<svg width="42" height="10" viewBox="0 0 42 10" fill="none" xmlns="http://www.w3.org/2000/svg">
<path fill-rule="evenodd" clip-rule="evenodd" d="M7.50992 5.53367L6.06359 1.93627L4.62556 5.53367H7.50992ZM21.3847 9.42697L21.3764 2.36323L18.3097 9.42697H16.4531L13.3822 2.35477V9.42697H9.08471L8.27245 7.4148H3.87132L3.05077 9.42697H0.754883L4.53853 0.406006H7.67983L11.2728 8.94507V0.406006H14.7208L17.485 6.52707L20.0337 0.406006H23.5521V9.42697H21.3847ZM26.9172 7.57966V5.78308H31.5587V3.94422H26.9172V2.30404H32.2176L34.5301 4.9334L32.114 7.57966H26.9172ZM41.2354 9.46079H38.4878L35.8852 6.47212L33.179 9.46079H24.8078V0.439824H33.3075L35.9101 3.3989L38.5996 0.439824H41.3597L37.2528 4.95031L41.2354 9.46079Z" fill="#D9D9D9"/>
</svg>
