<svg width="48" height="14" viewBox="0 0 48 14" fill="none" xmlns="http://www.w3.org/2000/svg">
<path fill-rule="evenodd" clip-rule="evenodd" d="M10.9148 13.0412L11.1147 12.9274C11.2213 13.155 11.4435 13.2688 11.7145 13.2688C12.0211 13.2688 12.1966 13.1335 12.1966 12.9274C12.1966 12.7685 12.09 12.6784 11.8434 12.6096L11.5257 12.5302C11.1614 12.4508 10.9725 12.2811 10.9725 12.0192C10.9725 11.7014 11.2436 11.4739 11.6901 11.4739C12.0544 11.4739 12.3121 11.622 12.4076 11.826L12.2077 11.9398C12.1144 11.7809 11.9256 11.6907 11.679 11.6907C11.3968 11.6907 11.2213 11.8045 11.2213 12.0085C11.2213 12.1566 11.3146 12.2468 11.5746 12.3155L11.8922 12.3949C12.281 12.4851 12.4454 12.6569 12.4454 12.9167C12.4454 13.2452 12.1744 13.4856 11.7056 13.4856C11.3146 13.4835 11.0325 13.3139 10.9148 13.0412ZM12.9008 11.5297H13.1474V13.4491H12.9008V11.5297ZM15.8155 13.4513V11.5297H15.5355L14.7602 12.6998L13.9849 11.5297H13.7272V13.4491H13.9738V11.8947L14.6669 12.951H14.878L15.5711 11.8947V13.4513H15.8155ZM17.8859 12.1223C17.8859 12.4851 17.6393 12.7127 17.215 12.7127H16.6508V13.4513H16.4042V11.5297H17.215C17.6504 11.5297 17.8859 11.7573 17.8859 12.1223ZM17.626 12.1223C17.626 11.8603 17.4972 11.7465 17.1906 11.7465H16.6508V12.4959H17.1906C17.4972 12.4959 17.626 12.3821 17.626 12.1223ZM19.6254 13.4513V13.2237H18.5679V11.5297H18.3213V13.4491H19.6254V13.4513ZM21.4004 13.2237V13.4513H20.0141V11.5297H21.3782V11.7573H20.2741V12.3821H21.3315V12.5989H20.2741V13.2344L21.4004 13.2237ZM22.129 13.1099H21.8824L21.7425 13.8485H21.9313L22.129 13.1099ZM25.3147 11.5297V13.4491H25.0681V11.8947L24.375 12.951H24.1751L23.4819 11.8947V13.4513H23.2354V11.5297H23.4931L24.2684 12.6998L25.0326 11.5297H25.3147ZM26.8187 11.4846C26.2078 11.4846 25.7968 11.9269 25.7968 12.4851C25.7968 13.0412 26.2078 13.4856 26.8187 13.4856C27.4296 13.4856 27.8406 13.0434 27.8406 12.4851C27.8406 11.929 27.4185 11.4846 26.8187 11.4846ZM26.8187 11.7122C27.2652 11.7122 27.5718 12.0407 27.5718 12.4851C27.5718 12.9274 27.2652 13.2581 26.8187 13.2581C26.3722 13.2581 26.0656 12.9296 26.0656 12.4851C26.0656 12.0407 26.3722 11.7122 26.8187 11.7122ZM29.9688 11.5297V13.4491H29.7333L28.547 11.9161V13.4491H28.3004V11.5297H28.5359L29.7222 13.0627V11.5297H29.9688ZM31.9549 13.4513V13.2237L30.8263 13.2344V12.5989H31.8838V12.3821H30.8263V11.7573H31.9304V11.5297H30.5664V13.4491H31.9549V13.4513ZM33.952 11.5297L33.1878 12.6547V13.4491H32.9412V12.6547L32.177 11.5297H32.4591L33.0701 12.4379L33.681 11.5297H33.952ZM33.9653 13.1443C33.872 13.1443 33.8009 13.213 33.8009 13.3031C33.8009 13.4062 33.8587 13.4728 33.9653 13.4728C34.072 13.4728 34.1408 13.4041 34.1408 13.3031C34.1408 13.2108 34.0697 13.1443 33.9653 13.1443Z" fill="#D9D9D9"/>
<path fill-rule="evenodd" clip-rule="evenodd" d="M31.8727 0.238323C33.0012 0.238323 33.8698 0.500264 34.4474 0.99838C34.9872 1.46429 35.2938 2.15779 35.2938 2.94146C35.2938 3.74876 35.0472 4.4079 34.554 4.89528C33.9187 5.53081 32.9212 5.88293 31.7438 5.88293C31.5683 5.88293 31.3795 5.87219 31.204 5.85931V9.05198H29.4645V0.442293L29.7355 0.397205C30.3909 0.296293 31.1084 0.238323 31.8727 0.238323ZM31.766 4.4079C32.4236 4.4079 33.541 4.2254 33.541 2.99943C33.541 1.93235 32.648 1.70476 31.8949 1.70476C31.6016 1.70476 31.3661 1.7155 31.2018 1.73911V4.37569C31.355 4.39717 31.5439 4.4079 31.766 4.4079ZM0.924561 9.06486L4.0147 0.296293H5.7786L8.87096 9.06486H7.01377L6.12071 6.50987H3.61483L2.74399 9.06486H0.924561ZM4.74337 3.12396L4.06136 5.05416H5.68307L5.00106 3.1347C4.97663 3.06599 4.95663 2.99943 4.93664 2.93073C4.91664 2.86202 4.89443 2.79546 4.87221 2.72676C4.84333 2.83626 4.80779 2.93717 4.77225 3.04238C4.76336 3.07029 4.75447 3.09605 4.74337 3.12396ZM11.0081 4.37355C11.0081 4.61187 11.1014 4.76002 11.9367 5.07778C12.7009 5.35046 13.7228 5.86146 13.7228 7.11104C13.7228 8.34989 12.6875 9.18939 11.148 9.18939C10.466 9.18939 9.78401 9.01977 9.27972 8.73421L9.05535 8.60968L9.52631 7.19048L9.87954 7.39445C10.1728 7.56407 10.6904 7.7573 11.1725 7.7573C11.4901 7.7573 12.0078 7.6886 12.0078 7.21195C12.0078 6.96289 11.95 6.74604 11.1147 6.44975C10.2794 6.15346 9.29305 5.5759 9.29305 4.49593C9.29305 3.32579 10.3038 2.47341 11.6901 2.47341C12.3254 2.47341 12.9364 2.62155 13.3473 2.88135L13.5584 3.01661L13.0874 4.40361L12.7342 4.18675C12.5454 4.0837 12.1699 3.89046 11.6768 3.89046C11.268 3.8969 11.0081 4.07726 11.0081 4.37355ZM16.4619 1.07997L14.7358 1.59097V2.59149H13.7961V4.03431H14.7358V6.89634C14.7358 7.69075 14.9002 8.27045 15.2423 8.64618C15.5711 8.9983 16.0887 9.19154 16.6641 9.19154C17.1928 9.19154 17.5682 9.08848 17.746 9.03265L17.9814 8.95321L17.8881 7.49966L17.4883 7.61345C17.3705 7.6478 17.2306 7.66928 16.9484 7.66928C16.7374 7.66928 16.4553 7.66928 16.4553 6.85125V4.03217H18.0303V2.58935H16.4553L16.4619 1.07997ZM21.9291 2.49917L22.2468 2.53352V4.20393L21.8469 4.12449C21.7647 4.11375 21.6825 4.11375 21.5403 4.11375C20.9516 4.11375 20.5184 4.53458 20.3874 5.20446C20.3629 5.31825 20.3518 5.47713 20.3518 5.63602V9.06701H18.6013V4.7364C18.6013 4.00855 18.5901 3.44173 18.5546 2.94146L18.5302 2.60008H20.163L20.1874 3.07673C20.5629 2.69026 21.0694 2.47555 21.6225 2.47555C21.7403 2.47555 21.8358 2.48844 21.9291 2.49917ZM25.4547 2.47555C23.5042 2.47555 22.129 3.87328 22.129 5.88293C22.129 7.83675 23.4575 9.20012 25.3503 9.20012C26.9609 9.20012 28.6892 8.13304 28.6892 5.77987C28.687 3.8282 27.3585 2.47555 25.4547 2.47555ZM26.912 5.81637C26.912 6.94142 26.2766 7.77019 25.408 7.77019C24.5372 7.77019 23.9151 6.96289 23.9151 5.85072C23.9151 5.13575 24.2328 3.90764 25.4324 3.90764C26.5943 3.90764 26.912 5.15722 26.912 5.81637ZM40.6299 7.34936V5.16796C40.6299 3.42884 39.7013 2.47555 38.0085 2.47555C37.2199 2.47555 36.409 2.67952 35.8336 3.03164L35.6093 3.1669L36.0802 4.50667L36.4335 4.26834C36.7978 4.03002 37.3154 3.89261 37.833 3.89261C38.1862 3.89261 38.4439 3.97205 38.6083 4.13093C38.7505 4.26834 38.8327 4.45943 38.8549 4.72137C37.4909 4.75572 36.4801 5.07349 35.8692 5.66393C35.4471 6.07187 35.2338 6.59575 35.2338 7.20981C35.2338 8.19745 35.9869 9.19798 37.4087 9.19798C38.0196 9.19798 38.595 9.00474 39.0415 8.67624L39.0882 9.06271H40.7454L40.6877 8.69986C40.6521 8.34989 40.6299 7.89472 40.6299 7.34936ZM37.7019 7.78092C37.4442 7.78092 37.0088 7.69075 37.0088 7.08742C37.0088 6.85984 37.0799 6.6666 37.2332 6.53134C37.4331 6.3381 37.8908 6.11051 38.9149 6.08904V6.78254C38.9149 6.82763 38.9149 6.93069 38.8793 7.02087C38.7616 7.36225 38.3728 7.78092 37.7019 7.78092ZM44.191 6.22431L45.4617 2.58935H47.33L45.5306 7.16687C44.7908 9.06486 44.2266 10.2221 43.3691 10.95C42.6626 11.5297 42.0406 11.6649 41.8651 11.6993L41.5718 11.7444L41.1253 10.2908L41.4319 10.2007C41.5718 10.1663 41.9251 10.031 42.2783 9.74548L42.2894 9.73474C42.596 9.49642 42.9003 9.09921 43.1114 8.66765C43.1358 8.6333 43.158 8.57748 43.1691 8.54313C43.1625 8.53239 43.158 8.51736 43.1491 8.49589C43.1402 8.47442 43.1291 8.44651 43.1114 8.40571L43.1003 8.39498L40.7032 2.57861H42.616L44.0022 6.23719C44.0266 6.31663 44.06 6.40681 44.0955 6.49913C44.1133 6.45404 44.1266 6.40895 44.1421 6.36172C44.1599 6.31663 44.1733 6.27154 44.191 6.22431Z" fill="#D9D9D9"/>
<path d="M7.32922 2.71602C8.45776 1.6017 10.3727 0.931821 12.4543 0.931821C13.2651 0.931821 14.0538 1.03488 14.8047 1.22811L14.8624 1.23885L16.1909 0.85238L15.5911 0.635528C14.4537 0.216852 13.1496 0 11.7967 0C9.84621 0 8.01123 0.455175 6.66054 1.28394L6.51837 1.37411L7.08263 2.96508L7.32922 2.71602Z" fill="#D9D9D9"/>
</svg>
