<svg width="61" height="14" viewBox="0 0 61 14" fill="none" xmlns="http://www.w3.org/2000/svg">
<path d="M3.90232 5.72928L6.23845 3.23783L8.57457 5.73183L9.93512 4.28082L6.23845 0.338379L2.54177 4.28082L3.90232 5.72928Z" fill="#D9D9D9"/>
<path d="M1.58252 5.30331L0.223145 6.75306L1.58252 8.20281L2.94189 6.75306L1.58252 5.30331Z" fill="#D9D9D9"/>
<path d="M3.90227 7.77701L6.2384 10.2685L8.57453 7.77701L9.93508 9.22546L6.2384 13.1705L2.53933 9.22546L3.90227 7.77701Z" fill="#D9D9D9"/>
<path d="M10.8932 5.30412L9.53387 6.75387L10.8932 8.20362L12.2526 6.75387L10.8932 5.30412Z" fill="#D9D9D9"/>
<path d="M7.61813 6.7544L6.23845 5.283L5.21744 6.36934L4.85638 6.7544L6.23845 8.22581L7.61813 6.7544Z" fill="#D9D9D9"/>
<path d="M14.373 3.44694H17.3309C18.0649 3.44694 18.6197 3.64839 18.9951 4.04876C19.2868 4.35987 19.4327 4.74493 19.4327 5.2065V5.2269C19.4327 5.42071 19.4111 5.59411 19.3657 5.74202C19.3203 5.88993 19.2605 6.02508 19.184 6.14494C19.1075 6.26479 19.0214 6.36934 18.921 6.46114C18.8205 6.55295 18.7153 6.62945 18.6005 6.6932C18.9688 6.84111 19.2605 7.04512 19.4709 7.30013C19.6813 7.55514 19.7889 7.91215 19.7889 8.36352V8.38392C19.7889 8.69503 19.7339 8.96789 19.6216 9.19995C19.5092 9.43201 19.349 9.62836 19.1385 9.78392C18.9281 9.93947 18.6771 10.0568 18.383 10.1333C18.0888 10.2098 17.7637 10.2506 17.405 10.2506H14.373V3.44694ZM17.0344 6.19848C17.3452 6.19848 17.5915 6.14238 17.7732 6.02763C17.9549 5.91543 18.0458 5.73182 18.0458 5.47936V5.45896C18.0458 5.232 17.9669 5.05859 17.8091 4.93874C17.6513 4.81888 17.4241 4.75768 17.1252 4.75768H15.7408V6.19594C15.7384 6.19849 17.0344 6.19848 17.0344 6.19848ZM17.4074 8.93984C17.7182 8.93984 17.9597 8.88119 18.1367 8.76133C18.3136 8.64148 18.4021 8.45532 18.4021 8.20286V8.18246C18.4021 7.9555 18.3208 7.77699 18.1558 7.64184C17.9908 7.50923 17.7278 7.44293 17.3619 7.44293H15.7408V8.93984H17.4074Z" fill="#D9D9D9"/>
<path d="M21.5464 3.44694H22.95V10.2506H21.5464V3.44694Z" fill="#D9D9D9"/>
<path d="M25.0757 3.44694H26.3693L29.3582 7.63674V3.44694H30.7427V10.2506H29.5495L26.4602 5.92563V10.2506H25.0757V3.44694Z" fill="#D9D9D9"/>
<path d="M34.9941 3.3985H36.2877L39.0232 10.2506H37.555L36.9716 8.72565H34.2744L33.691 10.2506H32.2611L34.9941 3.3985ZM36.4695 7.4047L35.6206 5.19887L34.7741 7.4047H36.4695Z" fill="#D9D9D9"/>
<path d="M40.5367 3.44694H41.8303L44.8192 7.63674V3.44694H46.2037V10.2506H45.0105L41.9212 5.92563V10.2506H40.5367V3.44694Z" fill="#D9D9D9"/>
<path d="M51.2586 10.3679C50.7899 10.3679 50.3571 10.2761 49.9554 10.095C49.5537 9.91398 49.207 9.66662 48.9177 9.35041C48.6259 9.03675 48.3988 8.66443 48.2338 8.23857C48.0688 7.81015 47.9875 7.35369 47.9875 6.86917V6.84877C47.9875 6.3617 48.0688 5.90778 48.2338 5.48192C48.3988 5.0586 48.6259 4.68374 48.9177 4.36497C49.2094 4.04366 49.5585 3.7912 49.965 3.6076C50.3715 3.42399 50.821 3.32964 51.3136 3.32964C51.6101 3.32964 51.8827 3.35514 52.1289 3.40614C52.3752 3.45714 52.5976 3.52854 52.7985 3.62035C52.9993 3.71215 53.1834 3.82181 53.3556 3.95186C53.5254 4.08192 53.6832 4.22472 53.829 4.38028L52.9371 5.47937C52.6885 5.23966 52.435 5.05095 52.1768 4.9158C51.9185 4.78064 51.6292 4.71179 51.3064 4.71179C51.0386 4.71179 50.7923 4.76789 50.5628 4.87755C50.3356 4.9872 50.1395 5.1402 49.9745 5.33401C49.8096 5.52782 49.6828 5.75478 49.592 6.00979C49.5011 6.26479 49.4557 6.54021 49.4557 6.83092V6.85132C49.4557 7.14203 49.5011 7.41744 49.592 7.67755C49.6828 7.93766 49.8096 8.16462 49.9698 8.35842C50.13 8.55223 50.326 8.70779 50.5532 8.81999C50.7803 8.93474 51.0314 8.99085 51.304 8.99085C51.6698 8.99085 51.9759 8.91944 52.2294 8.77664C52.4804 8.63383 52.7315 8.44003 52.9802 8.19267L53.8745 9.15405C53.7095 9.34276 53.5397 9.51107 53.3652 9.65897C53.1882 9.80688 52.9969 9.93693 52.7865 10.044C52.5761 10.1511 52.3465 10.2327 52.0979 10.2863C51.8468 10.3398 51.567 10.3679 51.2586 10.3679Z" fill="#D9D9D9"/>
<path d="M55.5243 3.44694H60.3281V4.77808H56.9112V6.15768H59.9192V7.48883H56.9112V8.91689H60.3735V10.248H55.5243V3.44694Z" fill="#D9D9D9"/>
</svg>
