<svg width="47" height="12" viewBox="0 0 47 12" fill="none" xmlns="http://www.w3.org/2000/svg">
<path fill-rule="evenodd" clip-rule="evenodd" d="M6.18007 1.02828C3.57821 0.331574 0.945493 2.03282 0.295542 4.82426C-0.352352 7.6157 1.22933 10.4442 3.83119 11.1409C6.43305 11.8376 9.06782 10.1363 9.71777 7.34489C10.3657 4.55345 8.78193 1.72498 6.18007 1.02828ZM7.14677 5.34042C7.07683 5.84732 6.81562 6.09267 6.46596 6.17832C6.94314 6.44681 7.1879 6.8565 6.95548 7.56477C6.66753 8.44664 5.98467 8.52072 5.07556 8.33555L4.85754 9.28917L4.32483 9.14567L4.54285 8.21055C4.40504 8.17352 4.26312 8.13417 4.11915 8.09251L3.90112 9.03225L3.36841 8.88874L3.58849 7.93975C3.46508 7.90503 3.33756 7.86799 3.21004 7.83327L2.51689 7.6481L2.78222 6.99306C2.78222 6.99306 3.17507 7.10416 3.1689 7.09722C3.31905 7.13888 3.38692 7.03241 3.41366 6.96066L3.76126 5.4631L3.8168 5.4793C3.79417 5.47004 3.77566 5.46309 3.76126 5.46078L4.01014 4.39142C4.01631 4.26875 3.97723 4.11598 3.76126 4.05812C3.76949 4.05349 3.37458 3.95396 3.37458 3.95396L3.5165 3.3429L4.25078 3.53964V3.54427L4.59221 3.62991L4.81023 2.69017L5.34295 2.83137L5.12904 3.75259C5.27301 3.78731 5.41699 3.82203 5.55685 3.85906L5.7687 2.94478L6.30142 3.08598L6.0834 4.02572C6.75186 4.2757 7.24549 4.64835 7.14677 5.34042Z" fill="#D9D9D9"/>
<path fill-rule="evenodd" clip-rule="evenodd" d="M4.58398 6.14592L4.28986 7.40507C4.65186 7.50228 5.76459 7.8842 5.93119 7.17592C6.10191 6.43293 4.94393 6.24313 4.58398 6.14592Z" fill="#D9D9D9"/>
<path fill-rule="evenodd" clip-rule="evenodd" d="M4.98095 4.42615L4.71562 5.56726C5.01797 5.64827 5.94353 5.97695 6.09368 5.33117C6.25205 4.65761 5.2833 4.50716 4.98095 4.42615Z" fill="#D9D9D9"/>
<path d="M14.3826 4.02573C14.7754 4.02573 15.1169 4.10211 15.4028 4.25024C15.6907 4.40069 15.9272 4.60207 16.1165 4.85667C16.3036 5.11128 16.4435 5.41219 16.534 5.75475C16.6245 6.09963 16.6677 6.46765 16.6677 6.86345C16.6677 7.46988 16.5649 8.04391 16.3551 8.58553C16.1535 9.11327 15.8635 9.59239 15.5015 9.99745C14.7322 10.84 13.6997 11.3075 12.6261 11.296C12.552 11.296 12.4224 11.2936 12.2373 11.289C12.0255 11.2821 11.8157 11.2636 11.6059 11.2312C11.3509 11.1918 11.0999 11.1386 10.849 11.0714C10.5878 11.0043 10.3348 10.9071 10.0921 10.7821L12.2209 1.19031L14.1255 0.873208L13.3645 4.2757C13.527 4.197 13.6915 4.13682 13.856 4.09284C14.0185 4.04887 14.1934 4.02573 14.3826 4.02573ZM12.7844 9.67341C13.0703 9.67341 13.3418 9.59702 13.5948 9.44889C13.8499 9.30075 14.0699 9.09938 14.253 8.8494C14.4381 8.59711 14.5821 8.31472 14.689 7.99762C14.796 7.68052 14.8495 7.34721 14.8495 7.00927C14.8495 6.58801 14.7837 6.25702 14.652 6.02093C14.5204 5.78252 14.2797 5.66448 13.926 5.66448C13.8108 5.66448 13.6627 5.68762 13.4776 5.7316C13.2945 5.77558 13.1218 5.87048 12.9798 6.00935L12.1695 9.62249L12.299 9.64794C12.3854 9.66646 12.4739 9.67572 12.5623 9.67572H12.7844V9.67341ZM18.6443 11.1108H16.824L18.3604 4.17386H20.191L18.6443 11.1108ZM19.5287 3.3267C19.2737 3.3267 19.0454 3.2457 18.8397 3.08367C18.634 2.92165 18.5312 2.67398 18.5312 2.33836C18.5312 2.15319 18.5661 1.9796 18.634 1.81757C18.7019 1.65786 18.7965 1.51435 18.9117 1.39631C19.0269 1.27826 19.1605 1.18337 19.3107 1.11161C19.4629 1.04218 19.6254 1.00745 19.7961 1.00745C20.0491 1.00745 20.2794 1.08846 20.4851 1.25049C20.6888 1.41251 20.7916 1.66249 20.7916 1.9958C20.7916 2.18097 20.7566 2.35456 20.6888 2.5189C20.6209 2.67861 20.5283 2.82212 20.4131 2.94017C20.2959 3.06053 20.1602 3.15543 20.0141 3.22255C19.8599 3.2943 19.6953 3.32902 19.5287 3.3267Z" fill="#D9D9D9"/>
<path fill-rule="evenodd" clip-rule="evenodd" d="M21.7871 2.44482L23.6917 2.12772L23.2228 4.17154H25.2631L24.895 5.7802H22.8669L22.326 8.20592C22.2766 8.40961 22.2478 8.59709 22.2396 8.773C22.2314 8.94891 22.252 9.10168 22.3013 9.22898C22.3548 9.36092 22.4474 9.46739 22.5666 9.52526C22.6921 9.59701 22.8752 9.63173 23.1138 9.63173C23.3092 9.63173 23.5004 9.6109 23.6856 9.57155C23.8707 9.5322 24.0558 9.47665 24.245 9.40721L24.3807 10.9117C24.1195 11.0136 23.8522 11.0969 23.5827 11.1617C23.2948 11.2334 22.9554 11.2659 22.5625 11.2659C21.999 11.2659 21.5588 11.1756 21.2482 10.9974C20.9356 10.8168 20.7155 10.5692 20.5839 10.2567C20.4481 9.91874 20.3905 9.55072 20.4111 9.1827C20.4276 8.77764 20.4852 8.35175 20.5839 7.90271L21.7871 2.44482ZM25.185 8.34017C25.185 7.743 25.2755 7.17823 25.4544 6.6505C25.6354 6.12276 25.8925 5.66215 26.2298 5.26635C26.5651 4.87055 26.9723 4.56039 27.4516 4.32893C27.9308 4.09978 28.4656 3.98636 29.0559 3.98636C29.4261 3.98636 29.7552 4.02339 30.0452 4.09978C30.3352 4.17616 30.6005 4.27337 30.8391 4.39605L30.2118 5.92833C30.0452 5.85658 29.8745 5.79177 29.7017 5.73622C29.4919 5.67372 29.2739 5.64595 29.0579 5.65058C28.4491 5.65058 27.9699 5.87509 27.612 6.32182C27.2562 6.77085 27.0772 7.37265 27.0772 8.12954C27.0772 8.57857 27.1677 8.94197 27.3487 9.21741C27.5297 9.49517 27.8609 9.63404 28.3442 9.63404C28.7823 9.63173 29.2163 9.53914 29.6236 9.3586L29.7593 10.9279C29.5104 11.0298 29.2554 11.1177 28.9983 11.1872C28.7186 11.2589 28.3874 11.2983 28.0028 11.2983C27.4948 11.2983 27.0649 11.2172 26.7132 11.0599C26.3861 10.9187 26.0879 10.7011 25.8411 10.421C25.6128 10.1548 25.4421 9.83079 25.3433 9.47665C25.2364 9.10863 25.1829 8.7244 25.185 8.34017Z" fill="#D9D9D9"/>
<path d="M33.2662 11.296C32.8322 11.296 32.4537 11.2242 32.1349 11.083C31.8326 10.9557 31.5631 10.7543 31.341 10.4881C31.1291 10.2266 30.9687 9.92106 30.8679 9.58544C30.7568 9.21279 30.7034 8.82393 30.7095 8.43275C30.7095 7.90502 30.7898 7.37729 30.9481 6.84955C31.1065 6.32182 31.343 5.84732 31.6557 5.42374C31.9663 5.00248 32.3488 4.65761 32.7972 4.3868C33.2476 4.1183 33.7639 3.98405 34.346 3.98405C34.7717 3.98405 35.1481 4.0558 35.471 4.197C35.794 4.33819 36.0593 4.53725 36.2691 4.79186C36.4768 5.04646 36.6352 5.34736 36.7422 5.69456C36.8491 6.04175 36.9005 6.42598 36.9005 6.84724C36.9005 7.37498 36.8244 7.90271 36.6681 8.43045C36.518 8.94892 36.2835 9.43036 35.9791 9.85394C35.6685 10.2845 35.2798 10.6363 34.8417 10.8886C34.3912 11.1617 33.8647 11.296 33.2662 11.296ZM34.1753 5.65058C33.9058 5.65058 33.6672 5.7339 33.4636 5.90056C33.2579 6.06721 33.0872 6.28016 32.9473 6.53477C32.8054 6.79401 32.7005 7.0787 32.6327 7.37266C32.5648 7.65504 32.5319 7.94438 32.5298 8.23602C32.5298 8.6758 32.5956 9.01836 32.7252 9.26602C32.8568 9.51137 33.0934 9.63405 33.4389 9.63405C33.7104 9.63405 33.947 9.55072 34.1526 9.38407C34.3563 9.21742 34.527 9.00679 34.6668 8.74986C34.8067 8.49526 34.9116 8.21518 34.9815 7.91196C35.0494 7.60875 35.0844 7.31943 35.0844 7.04861C35.0844 6.60884 35.0186 6.26627 34.8869 6.0186C34.7573 5.77325 34.5208 5.65058 34.1753 5.65058ZM38.8853 11.1108H37.0651L38.6015 4.17385H40.4341L38.8853 11.1108ZM39.7698 3.32669C39.523 3.32901 39.2823 3.24337 39.0828 3.08366C38.8771 2.92164 38.7743 2.67397 38.7743 2.33835C38.7743 2.15318 38.8092 1.97959 38.8792 1.81756C38.9471 1.65554 39.0417 1.51434 39.1548 1.3963C39.272 1.27594 39.4078 1.17873 39.5538 1.1116C39.704 1.04217 39.8664 1.00744 40.0392 1.00744C40.2943 1.00744 40.5226 1.08845 40.7282 1.25048C40.9339 1.4125 41.0368 1.66248 41.0368 1.99579C41.0368 2.18096 40.9997 2.35455 40.9319 2.51889C40.864 2.6786 40.7714 2.82211 40.6563 2.94016C40.539 3.06052 40.4033 3.15542 40.2572 3.22254C40.103 3.29429 39.9364 3.32901 39.7698 3.32669Z" fill="#D9D9D9"/>
<path fill-rule="evenodd" clip-rule="evenodd" d="M41.7443 4.48864C41.8821 4.44698 42.0364 4.39374 42.205 4.33819C42.6184 4.20394 43.0421 4.11136 43.472 4.06275C43.7291 4.03035 44.0232 4.01646 44.3503 4.01646C45.3087 4.01646 45.971 4.31505 46.3351 4.91453C46.7012 5.51171 46.7629 6.33108 46.5264 7.36804L45.6892 11.1154H43.8587L44.6691 7.44673C44.7184 7.21758 44.7575 6.99538 44.7863 6.78012C44.8151 6.59264 44.813 6.40052 44.7801 6.21303C44.7493 6.05564 44.6691 5.91445 44.5539 5.81724C44.4325 5.71539 44.2515 5.66447 44.0047 5.66447C43.7682 5.66447 43.5275 5.69225 43.2807 5.74548L42.0878 11.1131H40.2552L41.7443 4.48864Z" fill="#D9D9D9"/>
</svg>
