<svg width="65" height="14" viewBox="0 0 65 14" fill="none" xmlns="http://www.w3.org/2000/svg">
<path d="M4.61447 6.70605C4.58469 7.22338 4.97992 7.66526 5.49967 7.6949H5.55111C6.07086 7.6949 6.49046 7.27457 6.49046 6.75994C6.49046 6.24261 6.06816 5.82498 5.55111 5.82498C5.05301 5.82498 4.64154 6.21298 4.61447 6.70605Z" fill="#D9D9D9"/>
<path d="M1.11423 6.46896C0.946397 6.46087 0.802923 6.58751 0.794802 6.75457C0.78668 6.92162 0.913912 7.06442 1.08175 7.07251C1.24959 7.08059 1.39306 6.95395 1.40118 6.78959C1.4093 6.61984 1.28207 6.47973 1.11423 6.46896Z" fill="#D9D9D9"/>
<path d="M4.5549 1.2795C4.70379 1.20406 4.76334 1.02084 4.68755 0.872644C4.61175 0.724452 4.42767 0.665173 4.27878 0.740617C4.12989 0.81606 4.07034 0.996586 4.14613 1.14478C4.22193 1.29567 4.40331 1.35494 4.5549 1.2795Z" fill="#D9D9D9"/>
<path d="M5.5105 2.93387C5.7406 2.81801 5.83534 2.53779 5.71894 2.30607C5.60254 2.07704 5.321 1.98274 5.08819 2.0986C4.85809 2.21446 4.76335 2.49468 4.87975 2.7264C4.99615 2.95811 5.27769 3.04973 5.5105 2.93387Z" fill="#D9D9D9"/>
<path d="M2.3026 4.07092C2.48127 4.18678 2.71949 4.13828 2.8386 3.96045C2.95501 3.78262 2.90628 3.54551 2.72761 3.42696C2.54895 3.3111 2.31073 3.3596 2.19162 3.53743C2.07521 3.71526 2.12394 3.95506 2.3026 4.07092Z" fill="#D9D9D9"/>
<path d="M2.87381 6.29916C2.61393 6.28569 2.39466 6.48238 2.37842 6.73835C2.36488 6.99701 2.5625 7.21526 2.81967 7.23142C3.07684 7.2449 3.29882 7.04821 3.31506 6.79224C3.3286 6.53357 3.13098 6.31263 2.87381 6.29916Z" fill="#D9D9D9"/>
<path d="M2.35405 9.43818C2.16455 9.53518 2.08605 9.7642 2.1835 9.9555C2.28096 10.1441 2.51106 10.2223 2.70326 10.1253C2.89275 10.0283 2.97126 9.79923 2.8738 9.60793C2.77635 9.41932 2.54354 9.34118 2.35405 9.43818Z" fill="#D9D9D9"/>
<path d="M4.17591 5.33463C4.43038 5.50168 4.77417 5.42893 4.9393 5.17566C5.10714 4.92238 5.03405 4.58019 4.77959 4.41583C4.52512 4.24878 4.18133 4.32152 4.0162 4.5748C3.85107 4.82538 3.92145 5.16488 4.17591 5.33463C4.17591 5.33193 4.17591 5.33193 4.17591 5.33463Z" fill="#D9D9D9"/>
<path d="M9.96362 2.89615C10.1802 3.03626 10.4725 2.97698 10.6133 2.75873C10.7541 2.54318 10.6945 2.25218 10.4753 2.11207C10.2587 1.97196 9.96633 2.03124 9.82556 2.24679C9.68479 2.46504 9.74435 2.75604 9.96362 2.89615C9.96091 2.89615 9.96091 2.89615 9.96362 2.89615Z" fill="#D9D9D9"/>
<path d="M10.9246 1.24719C11.0654 1.3388 11.2522 1.30108 11.3442 1.16097C11.4363 1.02086 11.3984 0.834942 11.2576 0.743332C11.1168 0.651722 10.93 0.689445 10.838 0.829555C10.746 0.969664 10.7866 1.15558 10.9246 1.24719Z" fill="#D9D9D9"/>
<path d="M10.0367 5.8169C9.51966 5.78726 9.0757 6.18064 9.04593 6.69797C9.01615 7.2126 9.41138 7.65449 9.93113 7.68413C9.95008 7.68413 9.96633 7.68413 9.98528 7.68413C10.505 7.68413 10.9246 7.2638 10.9246 6.74917C10.9246 6.52014 10.8407 6.2992 10.6864 6.12676C10.5186 5.94084 10.2858 5.82768 10.0367 5.8169Z" fill="#D9D9D9"/>
<path d="M5.81908 5.26725C5.97879 5.5825 6.30364 5.78189 6.65827 5.78189C7.17802 5.78189 7.59762 5.36425 7.59762 4.84693C7.59762 4.69873 7.56242 4.55593 7.49745 4.4239C7.33774 4.10866 7.01289 3.91197 6.65827 3.91197C6.13851 3.91197 5.71892 4.33229 5.71892 4.84962C5.71892 4.99512 5.7514 5.13792 5.81908 5.26725Z" fill="#D9D9D9"/>
<path d="M13.1823 4.07089C13.3718 3.97389 13.4503 3.74487 13.3528 3.55356C13.2554 3.36495 13.0253 3.28681 12.8331 3.38381C12.6436 3.47812 12.5651 3.70984 12.6625 3.90114C12.76 4.08975 12.9928 4.16519 13.1823 4.07089Z" fill="#D9D9D9"/>
<path d="M10.8 4.3673C10.5266 4.50472 10.4183 4.83343 10.5564 5.10557C10.6945 5.3777 11.0247 5.48548 11.2981 5.34807C11.5715 5.21065 11.6798 4.88193 11.5418 4.6098C11.4064 4.34036 11.0734 4.23258 10.8 4.3673C10.8027 4.3673 10.8027 4.3673 10.8 4.3673Z" fill="#D9D9D9"/>
<path d="M7.73297 1.10706C7.94683 1.11784 8.1282 0.956175 8.14174 0.74601C8.15257 0.533152 7.99014 0.352624 7.77899 0.339152C7.56784 0.32568 7.38376 0.490042 7.37023 0.700206C7.35669 0.913064 7.51911 1.09359 7.73297 1.10706Z" fill="#D9D9D9"/>
<path d="M7.72755 3.52666C8.03345 3.54283 8.29332 3.31111 8.30957 3.00934C8.32581 2.70487 8.093 2.44621 7.78981 2.43004C7.48662 2.41387 7.22403 2.64559 7.20779 2.94737C7.19155 3.25184 7.42436 3.5105 7.72755 3.52666Z" fill="#D9D9D9"/>
<path d="M4.73627 9.1391C5.00968 9.00169 5.11796 8.67297 4.9799 8.40084C4.84184 8.1287 4.51158 8.02092 4.23817 8.15834C3.96476 8.29575 3.85647 8.62447 3.99453 8.89661C4.13259 9.16605 4.46286 9.27652 4.73627 9.1391Z" fill="#D9D9D9"/>
<path d="M8.08488 4.32956C7.80064 4.76067 7.92246 5.33997 8.35558 5.62288C8.78871 5.90579 9.37073 5.78454 9.65497 5.35344C9.93921 4.92233 9.8174 4.34304 9.38427 4.06012C9.23267 3.96043 9.05401 3.90654 8.86993 3.90654C8.55591 3.90654 8.25813 4.06551 8.08488 4.32956Z" fill="#D9D9D9"/>
<path d="M9.71992 8.23917C9.48711 7.77843 8.92134 7.59251 8.45843 7.82423C7.99552 8.05595 7.80873 8.61908 8.04154 9.07983C8.20126 9.39507 8.52611 9.59446 8.88073 9.59446C9.02691 9.59446 9.17309 9.55943 9.30303 9.49207C9.76594 9.26035 9.95002 8.69991 9.71992 8.23917Z" fill="#D9D9D9"/>
<path d="M11.3604 8.17446C11.106 8.00741 10.7622 8.07747 10.5943 8.33343C10.4265 8.58671 10.4969 8.9289 10.7541 9.09595C11.0085 9.26301 11.3523 9.19295 11.5202 8.93698C11.6853 8.68102 11.6149 8.34152 11.3604 8.17446Z" fill="#D9D9D9"/>
<path d="M13.1579 6.77074C13.1715 6.51208 12.9739 6.29383 12.7167 6.27767C12.4595 6.2615 12.2375 6.46088 12.2213 6.71685C12.2078 6.97282 12.4054 7.19376 12.6626 7.20993C12.9224 7.2234 13.1444 7.02671 13.1579 6.77074Z" fill="#D9D9D9"/>
<path d="M14.4573 6.43661C14.2895 6.42583 14.146 6.55516 14.1352 6.72221C14.1244 6.88927 14.2543 7.03207 14.4221 7.04285C14.59 7.05363 14.7334 6.9243 14.7443 6.75724C14.7551 6.59019 14.6252 6.44738 14.4573 6.43661Z" fill="#D9D9D9"/>
<path d="M13.2337 9.43546C13.055 9.3196 12.8168 9.3681 12.6977 9.54593C12.5786 9.72376 12.63 9.96087 12.8087 10.0794C12.9874 10.1953 13.2256 10.1468 13.3447 9.96895C13.4638 9.79112 13.4124 9.55402 13.2337 9.43546Z" fill="#D9D9D9"/>
<path d="M4.61172 12.2592C4.47096 12.1676 4.28417 12.2053 4.19213 12.3454C4.10009 12.4856 4.13799 12.6715 4.27875 12.7631C4.41952 12.8547 4.60631 12.817 4.69835 12.6769C4.79039 12.5394 4.75249 12.3508 4.61172 12.2592Z" fill="#D9D9D9"/>
<path d="M10.9815 12.2296C10.8326 12.305 10.7703 12.4856 10.8461 12.6365C10.9219 12.7846 11.1033 12.8466 11.2549 12.7712C11.4038 12.6957 11.466 12.5152 11.3902 12.3643C11.3145 12.2134 11.1304 12.1542 10.9815 12.2296C10.9815 12.2269 10.9815 12.2269 10.9815 12.2296Z" fill="#D9D9D9"/>
<path d="M7.45147 9.17684C7.73571 8.74574 7.61389 8.16644 7.18076 7.88353C6.74763 7.60061 6.16561 7.72186 5.88137 8.15297C5.59713 8.58407 5.71895 9.16337 6.15208 9.44629C6.30367 9.54598 6.48234 9.59987 6.66642 9.59987C6.98314 9.59987 7.27821 9.4409 7.45147 9.17684Z" fill="#D9D9D9"/>
<path d="M5.57277 10.6103C5.3562 10.4702 5.06384 10.5294 4.92307 10.745C4.7823 10.9605 4.84186 11.2515 5.05842 11.3916C5.27499 11.5318 5.56465 11.4725 5.70812 11.2569C5.85159 11.0414 5.79204 10.7531 5.57277 10.6103Z" fill="#D9D9D9"/>
<path d="M7.76546 12.402C7.5516 12.3913 7.37023 12.5529 7.35669 12.7631C7.34587 12.976 7.50829 13.1565 7.71944 13.17C7.9333 13.1807 8.11467 13.0191 8.12821 12.8089C8.13904 12.596 7.97661 12.4128 7.76546 12.402Z" fill="#D9D9D9"/>
<path d="M7.76818 9.97974C7.46499 9.96088 7.2024 10.1926 7.18345 10.4944C7.1645 10.7962 7.39731 11.0575 7.7005 11.0764C8.00369 11.0952 8.26628 10.8635 8.28523 10.5617V10.559C8.30418 10.2573 8.07137 9.9986 7.76818 9.97974Z" fill="#D9D9D9"/>
<path d="M10.0286 10.5752C9.79849 10.6911 9.70374 10.974 9.82285 11.203C9.93926 11.432 10.2235 11.5263 10.4536 11.4078C10.6837 11.2919 10.7784 11.009 10.6593 10.78C10.5402 10.5483 10.2587 10.4567 10.0286 10.5752Z" fill="#D9D9D9"/>
<path d="M20.3939 4.54513C21.3035 4.54513 21.9396 5.04359 21.9396 5.96777H23.1307C23.1307 4.34843 21.9288 3.56706 20.375 3.56706C18.4638 3.56706 17.3539 4.59902 17.3539 6.78149C17.3539 9.01785 18.4638 9.99592 20.375 9.99592C21.9478 9.99592 23.1307 9.2361 23.1307 7.61406H21.9857C21.9857 8.51938 21.3576 9.01785 20.3939 9.01785C19.1297 9.01785 18.545 8.32 18.545 6.8731V6.69257C18.5477 5.26992 19.1378 4.54513 20.3939 4.54513Z" fill="#D9D9D9"/>
<path d="M26.2817 3.67483L23.8508 9.88814H25.0527L25.5535 8.53824H28.4068L28.9211 9.88814H30.1772L27.7463 3.67752H26.2817V3.67483ZM25.9163 7.55748L26.5524 5.85461C26.6797 5.5205 26.9071 4.79571 26.9531 4.66907H26.9991C27.0451 4.79571 27.2725 5.52858 27.3997 5.85461L28.0359 7.55748H25.9163Z" fill="#D9D9D9"/>
<path d="M36.6715 5.55823C36.6715 4.40771 36.0082 3.67483 34.6331 3.67483H31.3386V9.88545H32.5026V7.48473H34.4409L35.6211 9.88545H36.8935L35.5589 7.3042C36.2979 7.0159 36.6715 6.40158 36.6715 5.55823ZM34.541 6.50935H32.5026V4.66368H34.541C35.1691 4.66368 35.4966 4.99779 35.4966 5.56092C35.4966 6.1483 35.142 6.50935 34.541 6.50935Z" fill="#D9D9D9"/>
<path d="M40.7564 3.67483H38.2632V9.88545H40.7564C42.6378 9.88545 43.7856 8.90738 43.7856 6.77879C43.7856 4.65021 42.6378 3.67483 40.7564 3.67483ZM42.5945 6.8704C42.5864 8.22839 41.9394 8.89929 40.7564 8.89929H39.4272V4.66099H40.7564C41.9367 4.66099 42.5945 5.33189 42.5945 6.68988V6.8704Z" fill="#D9D9D9"/>
<path d="M46.8338 3.67483L44.4028 9.88545H45.6048L46.1056 8.53555H48.9615L49.4705 9.88545H50.7265L48.2983 3.67483H46.8338ZM46.471 7.55748L47.1072 5.85461C47.2344 5.5205 47.4618 4.79571 47.5078 4.66907H47.5539C47.5999 4.79571 47.8273 5.52858 47.9545 5.85461L48.5907 7.55748H46.471Z" fill="#D9D9D9"/>
<path d="M56.0513 7.36888C56.0513 7.48743 56.0702 7.80268 56.0702 7.85657L56.0242 7.87543C55.9972 7.8404 55.8158 7.52246 55.7156 7.37696L53.0059 3.67215H51.8933V9.88276H53.0113V6.16178C53.0113 6.0082 52.9923 5.70912 52.9923 5.66332L53.0383 5.63637C53.0654 5.6714 53.2008 5.93545 53.3469 6.14292L56.0757 9.88276H57.1666V3.67215H56.0486L56.0513 7.36888Z" fill="#D9D9D9"/>
<path d="M61.8065 3.56706C59.852 3.56706 58.669 4.59902 58.669 6.78149C58.669 8.96396 59.8493 9.99592 61.8065 9.99592C63.7637 9.99592 64.9548 8.96396 64.9548 6.78149C64.9548 4.59902 63.761 3.56706 61.8065 3.56706ZM63.761 6.88118C63.761 8.30383 63.0788 9.01785 61.8065 9.01785C60.5423 9.01785 59.8601 8.30383 59.8601 6.88118V6.68988C59.8601 5.26723 60.5504 4.54513 61.8065 4.54513C63.0707 4.54513 63.761 5.26993 63.761 6.68988V6.88118Z" fill="#D9D9D9"/>
</svg>
