<svg width="45" height="13" viewBox="0 0 45 13" fill="none" xmlns="http://www.w3.org/2000/svg">
<path fill-rule="evenodd" clip-rule="evenodd" d="M7.26648 0.872192C3.25026 0.872192 0 3.09926 0 5.86718C0 7.03945 0.588683 8.11382 1.58422 8.98017C1.09554 8.27045 0.815973 7.47997 0.815973 6.63564C0.815973 3.77227 4.00032 1.44731 7.91881 1.44731C10.4508 1.44731 12.6715 2.40911 13.9284 3.86771C12.8033 2.10075 10.2394 0.872192 7.26648 0.872192Z" fill="#D9D9D9"/>
<path fill-rule="evenodd" clip-rule="evenodd" d="M4.49808 5.08403C4.70719 4.89314 4.96857 4.7977 5.27769 4.7977C5.57998 4.7977 5.8391 4.89559 6.05275 5.09137C6.2664 5.28471 6.38232 5.53434 6.40505 5.83781H4.09805C4.15715 5.52455 4.28897 5.27492 4.49808 5.08403ZM7.09829 6.98316C7.39604 6.98316 7.63242 6.91463 7.81425 6.77758C8.02336 6.62585 8.12791 6.40559 8.12791 6.1168C8.12791 5.58329 7.96881 5.08893 7.6506 4.63373C7.3324 4.17852 6.92555 3.8359 6.42778 3.60586C6.0823 3.44678 5.69363 3.36846 5.2686 3.36846C4.40944 3.36846 3.70484 3.67437 3.15025 4.28865C2.59793 4.90293 2.32291 5.64202 2.32291 6.50838C2.32291 7.38207 2.61157 8.11627 3.18889 8.71342C3.76621 9.31056 4.48899 9.60669 5.35497 9.60669C5.81637 9.60669 6.26186 9.53571 6.68689 9.39132C7.19147 9.2249 7.56196 8.98262 7.79152 8.66692C7.92108 8.49316 7.98699 8.3194 7.98699 8.14809C7.98699 7.69288 7.75516 7.46528 7.29376 7.46528C7.19375 7.46528 6.93236 7.56073 6.51415 7.75162C6.09593 7.94251 5.73682 8.03795 5.44134 8.03795C5.08676 8.03795 4.78674 7.9474 4.54354 7.76875C4.29807 7.58764 4.15715 7.32823 4.12078 6.98805L7.09829 6.98316ZM8.94616 8.70117C9.50757 9.30322 10.2508 9.60179 11.1759 9.60179C11.7305 9.60179 12.1919 9.51614 12.5646 9.33993C13.0806 9.09275 13.3397 8.79418 13.3397 8.43932C13.3397 8.22885 13.2738 8.05019 13.1397 7.9009C13.0078 7.75162 12.8351 7.6782 12.6214 7.6782C12.476 7.6782 12.2941 7.72225 12.0737 7.8079C11.8532 7.89356 11.6145 7.93761 11.3577 7.93761C10.9168 7.93761 10.5758 7.79322 10.3326 7.50444C10.1213 7.24257 10.0144 6.89505 10.0144 6.46188C10.0144 6.04828 10.1167 5.70565 10.3213 5.42911C10.5486 5.12319 10.8713 4.97146 11.2895 4.97146C11.5486 4.97146 11.7918 5.01796 12.0237 5.10607C12.2555 5.19662 12.4419 5.24311 12.5874 5.24311C12.8078 5.24311 12.9897 5.16969 13.1329 5.0253C13.2783 4.88091 13.3488 4.70226 13.3488 4.49423C13.3488 4.08798 13.0988 3.78451 12.5964 3.58138C12.226 3.43699 11.7896 3.36357 11.2873 3.36357C10.3304 3.36357 9.56439 3.6548 8.98934 4.23726C8.41203 4.81972 8.12564 5.57105 8.12564 6.49124C8.12791 7.38696 8.40066 8.12361 8.94616 8.70117ZM15.5921 5.47806C15.8172 5.16969 16.1376 5.01551 16.549 5.01551C16.9536 5.01551 17.2695 5.17458 17.4946 5.49029C17.6968 5.76194 17.7969 6.09234 17.7969 6.48146C17.7969 6.88282 17.6991 7.2181 17.5059 7.48241C17.2786 7.79812 16.9604 7.95719 16.549 7.95719C16.1445 7.95719 15.8285 7.79812 15.6035 7.48241C15.4012 7.21076 15.2989 6.87548 15.2989 6.48146C15.2989 6.08499 15.3967 5.75216 15.5921 5.47806ZM14.2261 8.68649C14.833 9.29587 15.608 9.60179 16.549 9.60179C17.4991 9.60179 18.2742 9.29832 18.8719 8.69628C19.447 8.10893 19.7356 7.37228 19.7356 6.4888C19.7356 5.60042 19.4447 4.85643 18.8606 4.25929C18.2764 3.66459 17.5059 3.36602 16.549 3.36602C15.608 3.36602 14.8398 3.66459 14.2443 4.26419C13.6488 4.86378 13.3511 5.60532 13.3511 6.4888C13.3511 7.36739 13.642 8.09913 14.2261 8.68649Z" fill="#D9D9D9"/>
<path fill-rule="evenodd" clip-rule="evenodd" d="M42.8988 8.06242H40.9759L43.5602 5.22598C43.8239 4.93719 43.9557 4.69491 43.9557 4.49423C43.9557 4.27397 43.8557 4.13692 43.6534 4.07818C43.4534 4.01945 43.1443 3.99252 42.7261 3.99252H39.6076C38.7803 3.99252 38.3666 4.24215 38.3666 4.7414C38.3666 5.248 38.7758 5.50252 39.5963 5.50252H41.2691L38.5962 8.45399C38.403 8.66691 38.3075 8.87983 38.3075 9.0903C38.3075 9.43293 38.6485 9.60423 39.3303 9.60423H42.8829C43.7011 9.60423 44.1103 9.35216 44.1103 8.84312C44.1125 8.32184 43.708 8.06242 42.8988 8.06242Z" fill="#D9D9D9"/>
<path fill-rule="evenodd" clip-rule="evenodd" d="M22.1267 8.31205V6.944H23.3496C24.2087 6.944 24.8838 6.70661 25.3793 6.22938C25.8725 5.7546 26.1202 5.08403 26.1202 4.22013C26.1202 3.34888 25.8475 2.67098 25.302 2.18885C24.786 1.72631 24.086 1.49626 23.2064 1.49626H21.5699C21.0971 1.49626 20.7698 1.5917 20.588 1.78015C20.4062 1.97104 20.3152 2.30388 20.3152 2.77866V8.30716C20.3152 9.17106 20.6175 9.60179 21.2221 9.60179C21.8244 9.60424 22.1267 9.17351 22.1267 8.31205ZM22.1267 3.17757H22.9132C23.7428 3.17757 24.1564 3.52509 24.1564 4.22013C24.1564 4.92985 23.7428 5.28471 22.9132 5.28471H22.1267V3.17757Z" fill="#D9D9D9"/>
<path fill-rule="evenodd" clip-rule="evenodd" d="M31.3402 9.6505C31.9448 9.6505 32.2494 9.21487 32.2494 8.34607V4.75585C32.2494 3.8944 31.9471 3.46367 31.3402 3.46367C30.9697 3.46367 30.6788 3.65211 30.4651 4.02655C30.0969 3.60071 29.6037 3.38535 28.99 3.38535C28.1513 3.38535 27.4581 3.71574 26.9126 4.37896C26.4012 4.99569 26.1421 5.7201 26.1421 6.55219C26.1421 7.37449 26.3875 8.09155 26.8807 8.70339C27.4172 9.36661 28.099 9.697 28.9241 9.697C29.5741 9.697 30.0878 9.47184 30.4674 9.02398C30.6492 9.44003 30.9402 9.6505 31.3402 9.6505ZM28.3331 5.54633C28.5513 5.24531 28.8491 5.09359 29.2264 5.09359C29.6105 5.09359 29.9083 5.24287 30.1174 5.54633C30.2969 5.81064 30.3878 6.13859 30.3878 6.52771C30.3878 6.91684 30.2969 7.24967 30.1174 7.52132C29.906 7.82969 29.6082 7.98387 29.2264 7.98387C28.8423 7.98387 28.54 7.82969 28.3218 7.52132C28.1331 7.24967 28.0399 6.91684 28.0399 6.52771C28.0399 6.14593 28.1377 5.81799 28.3331 5.54633ZM36.5065 4.1685L35.3814 7.01473L34.3382 4.32267C34.2245 4.02165 34.1222 3.81853 34.0313 3.71574C33.8813 3.54688 33.6722 3.46122 33.4063 3.46122C33.1494 3.46122 32.9358 3.54688 32.7653 3.71574C32.5948 3.88461 32.5107 4.09508 32.5107 4.3447C32.5107 4.52091 32.5448 4.68733 32.613 4.84151L34.4632 9.04356L33.7086 10.6417C33.6086 10.8693 33.5563 11.0699 33.5563 11.2462C33.5563 11.508 33.6404 11.7185 33.8063 11.8702C33.9722 12.0244 34.1927 12.1003 34.4654 12.1003C34.7905 12.1003 35.0587 11.8604 35.2723 11.3832L38.0748 4.92961C38.1725 4.70201 38.2225 4.49644 38.2225 4.31289C38.2225 3.74756 37.9203 3.46367 37.3157 3.46367C36.9634 3.46122 36.6952 3.69861 36.5065 4.1685Z" fill="#D9D9D9"/>
</svg>
