<svg width="72" height="20" viewBox="0 0 72 20" fill="none" xmlns="http://www.w3.org/2000/svg">
<g opacity="0.8">
<path d="M20.301 11.4746C20.301 11.6042 20.1968 11.7149 20.0619 11.7149H15.6826C15.796 12.834 16.6081 13.8551 17.7573 13.8551C18.5449 13.8551 19.1272 13.5484 19.5624 12.9004C19.6084 12.834 19.6758 12.7834 19.7555 12.7834C19.8811 12.7834 19.9731 12.8782 19.9731 13.0079C19.9731 13.0489 19.9608 13.09 19.9394 13.1248C19.498 13.9151 18.6154 14.304 17.7573 14.304C16.2832 14.304 15.2259 12.9414 15.2259 11.4904C15.2259 10.0299 16.2771 8.67372 17.7573 8.67372C19.2314 8.67372 20.2949 10.0236 20.301 11.4746ZM19.8321 11.266C19.7402 10.1469 18.9066 9.12578 17.7543 9.12578C16.605 9.12578 15.7929 10.1469 15.6795 11.266H19.8321ZM25.6273 8.78436C25.753 8.78436 25.8449 8.90133 25.8449 9.00881C25.8449 9.13843 25.753 9.23326 25.6273 9.23326H24.4505V13.9973C24.4505 14.1143 24.3586 14.2218 24.2329 14.2218C24.1134 14.2186 24.0184 14.1206 24.0153 13.9973V9.23326H22.8845C22.768 9.23642 22.6699 9.14159 22.6669 9.02146C22.6669 9.0183 22.6669 9.01197 22.6669 9.00881C22.6669 8.89185 22.7619 8.78436 22.8845 8.78436H24.0153V7.04566C24.0153 6.92869 24.1011 6.8212 24.2145 6.80856C24.3524 6.79591 24.4597 6.89707 24.4597 7.03301V8.78436H25.6273ZM32.8016 11.0858V13.972C32.8016 14.1017 32.6882 14.1965 32.584 14.1965C32.4676 14.1996 32.3695 14.1048 32.3665 13.9847C32.3665 13.9815 32.3665 13.9752 32.3665 13.972V11.0858C32.3665 10.1121 31.8301 9.14159 30.779 9.14159C29.4305 9.14159 28.8483 10.3555 28.9279 11.6042C28.9279 11.639 28.9402 11.7813 28.9402 11.8034V13.9625C28.9402 14.0795 28.8544 14.187 28.741 14.2028C28.6215 14.2186 28.5142 14.1333 28.4989 14.01C28.4989 13.9973 28.4958 13.9879 28.4958 13.9752V4.49449C28.4958 4.37753 28.5878 4.27005 28.7134 4.27005C28.8391 4.27005 28.931 4.38701 28.931 4.49449V9.85288C29.3079 9.1574 29.9822 8.68637 30.7667 8.68637C32.0661 8.68953 32.8016 9.85288 32.8016 11.0858ZM40.6716 11.4746C40.6716 11.6042 40.5644 11.7149 40.4326 11.7149H36.0501C36.1635 12.834 36.9757 13.8551 38.128 13.8551C38.9125 13.8551 39.4948 13.5484 39.933 12.9004C39.979 12.834 40.0464 12.7834 40.1261 12.7834C40.2518 12.7834 40.3437 12.8782 40.3437 13.0079C40.3437 13.0489 40.3314 13.09 40.31 13.1248C39.8687 13.9151 38.9861 14.304 38.128 14.304C36.6539 14.304 35.5966 12.9414 35.5966 11.4904C35.5966 10.0299 36.6478 8.67372 38.128 8.67372C39.5929 8.67372 40.6655 10.0236 40.6716 11.4746ZM40.1966 11.266C40.1047 10.1469 39.2711 9.12578 38.1188 9.12578C36.9695 9.12578 36.1574 10.1469 36.044 11.266H40.1966ZM46.0592 8.99301C46.0592 9.13527 45.9796 9.21746 45.8539 9.23959C44.5668 9.43875 43.9845 10.5199 43.9845 11.7813V13.9436C43.9845 14.0605 43.8987 14.168 43.7853 14.1838C43.6658 14.1996 43.5585 14.1143 43.5432 13.991C43.5432 13.9784 43.5401 13.9689 43.5401 13.9562V9.02778C43.5401 8.91081 43.6259 8.80333 43.7393 8.78752C43.8772 8.77487 43.9845 8.87604 43.9845 9.01198V10.0141C44.3492 9.37868 45.0694 8.7812 45.8233 8.7812C45.9336 8.78436 46.0592 8.86656 46.0592 8.99301ZM53.2611 11.4746C53.2611 11.6042 53.1539 11.7149 53.0221 11.7149H48.6366C48.75 12.834 49.5621 13.8551 50.7144 13.8551C51.499 13.8551 52.0813 13.5484 52.5195 12.9004C52.5655 12.834 52.6329 12.7834 52.7126 12.7834C52.8382 12.7834 52.9302 12.8782 52.9302 13.0079C52.9302 13.0489 52.9179 13.09 52.8965 13.1248C52.4551 13.9151 51.5756 14.304 50.7144 14.304C49.2403 14.304 48.183 12.9414 48.183 11.4904C48.183 10.0299 49.2342 8.67372 50.7144 8.67372C52.1885 8.67372 53.255 10.0236 53.2611 11.4746ZM52.7923 11.266C52.7003 10.1469 51.8667 9.12578 50.7175 9.12578C49.5683 9.12578 48.7531 10.1469 48.6397 11.266C48.6427 11.266 52.7923 11.266 52.7923 11.266ZM60.3466 9.04991V14.0005C60.3466 14.1301 60.2332 14.2249 60.129 14.2249C60.0125 14.2281 59.9145 14.1333 59.9114 14.01C59.9114 14.0068 59.9114 14.0005 59.9114 13.9973V13.0553C59.5498 13.7982 58.9093 14.3356 58.0879 14.3356C56.7855 14.3356 56.0653 13.1691 56.0653 11.9362V9.03726C56.0653 8.9203 56.1572 8.81282 56.2829 8.81282C56.4085 8.81282 56.5005 8.92978 56.5005 9.03726V11.9362C56.5005 12.9098 57.0337 13.8804 58.0849 13.8804C59.559 13.8804 59.9083 12.4546 59.9083 10.8803V9.03094C59.9083 8.89501 60.0462 8.75907 60.2056 8.81913C60.2945 8.86339 60.3466 8.95191 60.3466 9.04991ZM71.4436 11.0668V13.9625C71.4436 14.0922 71.3302 14.187 71.226 14.187C71.1096 14.1902 71.0115 14.0953 71.0085 13.972C71.0085 13.9689 71.0085 13.9625 71.0085 13.9594V11.0637C71.0085 10.0868 70.4721 9.13526 69.421 9.13526C68.1001 9.13526 67.5975 10.5958 67.5975 11.7244V13.9594C67.5975 14.089 67.4841 14.1838 67.3799 14.1838C67.2635 14.187 67.1654 14.0922 67.1623 13.9689C67.1623 13.9657 67.1623 13.9594 67.1623 13.9562V11.0605C67.1623 10.0836 66.626 9.13211 65.5749 9.13211C64.2387 9.13211 63.6901 10.2164 63.7391 11.6611C63.7391 11.6959 63.7514 11.756 63.7391 11.7781V13.9531C63.7391 14.07 63.6533 14.1775 63.5399 14.1933C63.4204 14.2091 63.3132 14.1238 63.2978 14.0005C63.2978 13.9878 63.2948 13.9784 63.2948 13.9657V9.02146C63.2948 8.90449 63.3806 8.79701 63.494 8.7812C63.6319 8.76856 63.7391 8.86971 63.7391 9.00565V9.83075C64.1161 9.13527 64.7903 8.68004 65.5749 8.68004C66.4667 8.68004 67.1623 9.26804 67.4443 10.1184C67.809 9.27436 68.5138 8.68004 69.421 8.68004C70.7112 8.68636 71.4436 9.83707 71.4436 11.0668Z" fill="#D9D9D9"/>
<path d="M5.55088 7.6874L0.0651855 10.2575L5.55088 13.6053L11.0427 10.2575L5.55088 7.6874Z" fill="#D9D9D9"/>
<path d="M0.0651855 10.2575L5.55088 13.6053L5.55088 0.862183L0.0651855 10.2575Z" fill="#D9D9D9"/>
<path d="M5.55088 0.862183L5.55088 13.6053L11.0427 10.2575L5.55088 0.862183Z" fill="#D9D9D9"/>
<path d="M0.0651855 11.3324L5.55088 19.3083V14.6738L0.0651855 11.3324Z" fill="#D9D9D9"/>
<path d="M5.55088 14.6738V19.3083L11.0427 11.3324L5.55088 14.6738Z" fill="#D9D9D9"/>
</g>
</svg>
