<svg width="49" height="13" viewBox="0 0 49 13" fill="none" xmlns="http://www.w3.org/2000/svg">
<path d="M7.48079 0.0701904C3.74023 0.0701904 0.706787 2.94333 0.706787 6.48623C0.706787 10.0291 3.74023 12.9023 7.48079 12.9023C11.2213 12.9023 14.2548 10.0291 14.2548 6.48623C14.2548 2.94333 11.2234 0.0701904 7.48079 0.0701904ZM7.58942 6.69783L6.88435 8.94975H10.6536C10.7602 8.94975 10.8463 9.03323 10.8463 9.13418C10.8463 9.15165 10.8442 9.16912 10.8381 9.18465L10.5101 10.2543C10.4773 10.3591 10.3749 10.431 10.2601 10.431H4.50679L5.48036 7.31711L4.40431 7.62772L4.64206 6.89973L5.72016 6.58912L7.08726 2.21534C7.11801 2.11051 7.21844 2.03674 7.33527 2.03674H8.7946C8.90118 2.03674 8.98726 2.11828 8.98931 2.21923C8.98931 2.2367 8.98726 2.25222 8.98111 2.2697L7.83332 5.9679L8.90938 5.65729L8.67777 6.39693L7.58942 6.69783Z" fill="#D9D9D9"/>
<path d="M18.1716 2.01733H17.7494C17.6756 2.01344 17.6121 2.06586 17.608 2.13574V2.13769L16.5237 10.3126C16.5155 10.3902 16.5422 10.4329 16.6283 10.4329H17.0484C17.1181 10.4426 17.1817 10.398 17.1919 10.332C17.1919 10.3261 17.1939 10.3184 17.1939 10.3126L18.2925 2.14157C18.3048 2.05227 18.2557 2.01733 18.1716 2.01733ZM20.3729 4.37408H19.9527C19.881 4.36631 19.8175 4.41679 19.8093 4.48473C19.8093 4.48668 19.8093 4.49056 19.8093 4.4925L19.0263 10.3126C19.0181 10.3921 19.0673 10.4329 19.1452 10.4329H19.5654C19.6371 10.4446 19.7047 10.398 19.715 10.33C19.715 10.3242 19.717 10.3184 19.717 10.3126L20.4897 4.49638C20.4918 4.41679 20.4631 4.37408 20.3729 4.37408ZM38.7826 4.27896C37.6656 4.25566 36.6797 4.97006 36.4112 5.99702C36.2944 6.45905 36.2083 6.92885 36.1509 7.40253C36.0833 7.86844 36.0443 8.33824 36.0341 8.80998C36.0238 9.27395 36.2124 9.7224 36.5567 10.0524C36.897 10.363 37.3643 10.5183 37.9587 10.5183C38.5018 10.53 39.0327 10.365 39.4651 10.0524C39.8894 9.74181 40.1907 9.30501 40.3178 8.80998C40.4367 8.34795 40.5228 7.87815 40.5781 7.40447C40.6457 6.93467 40.6826 6.46099 40.6949 5.98537C40.7175 5.5214 40.5289 5.06907 40.1784 4.74293C39.7931 4.42067 39.293 4.25372 38.7826 4.27896ZM39.9673 6.8376C39.9407 7.02591 39.9181 7.21422 39.8956 7.40253C39.8177 8.00239 39.7459 8.43337 39.6865 8.68962C39.6045 9.05653 39.3934 9.38461 39.086 9.62145C38.7867 9.85052 38.4096 9.97477 38.0243 9.96894C37.3397 10.0117 36.7473 9.52244 36.7023 8.87405C36.6982 8.82551 36.6982 8.77698 36.7023 8.7265C36.7064 8.47802 36.7248 8.22759 36.7596 7.98104C36.8006 7.68596 36.8252 7.49765 36.8314 7.41612C36.9113 6.83955 36.981 6.41052 37.0404 6.13097C37.1224 5.76406 37.3356 5.43598 37.643 5.19914C37.9423 4.97006 38.3174 4.84582 38.7047 4.85164C39.3893 4.80894 39.9796 5.30009 40.0247 5.94849C40.0288 5.99702 40.0288 6.04555 40.0247 6.09214C40.0206 6.34257 40.0021 6.59106 39.9673 6.8376ZM43.093 4.37408H42.6749C42.6011 4.3702 42.5355 4.42261 42.5314 4.4925L41.7464 10.3126C41.7341 10.396 41.7853 10.4329 41.8632 10.4329H42.2834C42.3572 10.4387 42.4207 10.3863 42.4268 10.3184C42.4268 10.3164 42.4268 10.3145 42.4268 10.3145L43.1996 4.49444C43.2098 4.41679 43.175 4.37408 43.093 4.37408ZM48.3933 4.71769C48.1043 4.43232 47.7005 4.2906 47.1758 4.2906C46.852 4.28672 46.5302 4.35078 46.233 4.47697C45.942 4.60315 45.6898 4.79534 45.4992 5.03607C45.4644 5.06713 45.4459 5.05936 45.4459 5.01083L45.5115 4.49444C45.5218 4.42262 45.4869 4.37602 45.407 4.37602H44.9889C44.9151 4.3702 44.8516 4.42261 44.8454 4.49056C44.8454 4.4925 44.8454 4.4925 44.8454 4.49444L44.0727 10.3145C44.0625 10.3902 44.0911 10.4349 44.1772 10.4349H44.5974C44.6712 10.4407 44.7368 10.3883 44.7409 10.3184C44.7409 10.3164 44.7409 10.3164 44.7409 10.3145L45.3025 6.14456C45.3824 5.78348 45.5853 5.45539 45.8784 5.21273C46.1654 4.97589 46.5343 4.8497 46.9155 4.85553C47.2476 4.84194 47.5714 4.96618 47.801 5.19331C48.0305 5.43792 48.1494 5.76018 48.1289 6.08826C48.131 6.17756 48.1269 6.26492 48.1146 6.35422L47.5796 10.3164C47.5714 10.3456 47.5796 10.3766 47.6001 10.3999C47.6247 10.4252 47.6616 10.4387 47.6985 10.4368H48.1166C48.1904 10.4426 48.2539 10.3902 48.2601 10.3223C48.2601 10.3203 48.2601 10.3184 48.2601 10.3184L48.7971 6.25715C48.8155 6.10185 48.8237 5.97566 48.8237 5.89801C48.8524 5.46121 48.6966 5.03995 48.3933 4.71769ZM20.6496 2.02121C20.4037 1.88532 20.086 1.96491 19.9425 2.19981C19.799 2.43277 19.8831 2.73367 20.1311 2.86956C20.1413 2.87538 20.1516 2.88121 20.1639 2.88509C20.4201 3.00351 20.7295 2.90451 20.8546 2.66184C20.9735 2.42889 20.8853 2.15128 20.6496 2.02121ZM43.3943 2.02121C43.1463 1.8892 42.8306 1.97267 42.6912 2.20757C42.5519 2.44247 42.64 2.74144 42.888 2.87345C42.8962 2.87733 42.9065 2.88315 42.9147 2.88703C43.1709 3.00545 43.4804 2.90451 43.6054 2.66184C43.7243 2.42889 43.632 2.14739 43.3943 2.02121ZM33.3081 4.27896C32.7588 4.26731 32.2238 4.4362 31.7893 4.75458C31.365 5.06519 31.0658 5.50393 30.9387 5.99702C30.8239 6.46099 30.7358 6.92885 30.6764 7.40253C30.6108 7.86844 30.5698 8.33824 30.5575 8.80998C30.5452 9.27395 30.7358 9.72434 31.0822 10.0524C31.4224 10.363 31.8897 10.5183 32.4821 10.5183C33.0252 10.53 33.5561 10.365 33.9886 10.0524C34.4149 9.74375 34.7141 9.30501 34.8391 8.80998L34.874 8.67797C34.8822 8.64885 34.8617 8.61779 34.8309 8.61197C34.8269 8.61003 34.8207 8.61002 34.8166 8.61002H34.3001C34.2632 8.60808 34.2304 8.63332 34.2202 8.66632V8.68962C34.1382 9.05653 33.925 9.38461 33.6176 9.62145C33.3183 9.85052 32.9432 9.97477 32.5579 9.96894C31.8733 10.0117 31.281 9.52244 31.2359 8.87405C31.2318 8.82551 31.2318 8.77698 31.2359 8.7265C31.24 8.47802 31.2585 8.22759 31.2933 7.98104C31.3179 7.79273 31.3425 7.60443 31.365 7.41612C31.445 6.83955 31.5126 6.41052 31.5741 6.13097C31.652 5.76212 31.8631 5.43209 32.1685 5.19331C32.4677 4.96424 32.8428 4.84194 33.2281 4.84582C33.9127 4.80117 34.5051 5.29232 34.5501 5.94072C34.5542 5.98925 34.5542 6.03973 34.5501 6.08826V6.09603C34.5481 6.1465 34.5891 6.18921 34.6444 6.19115C34.6465 6.19115 34.6465 6.19115 34.6485 6.19115H35.1404C35.1814 6.19309 35.2163 6.16203 35.2183 6.1232V5.97955C35.2409 5.51363 35.0523 5.06325 34.6998 4.73711C34.3185 4.41485 33.8184 4.24984 33.3081 4.27896ZM29.0797 4.74681C28.6985 4.42261 28.1963 4.25566 27.686 4.2809C26.5689 4.2576 25.5831 4.97201 25.3146 5.99896C25.1977 6.46294 25.1116 6.93079 25.0543 7.40447C24.9784 7.87039 24.9374 8.34018 24.9354 8.81192C24.9251 9.2759 25.1137 9.72434 25.458 10.0544C25.7983 10.365 26.2656 10.5203 26.8579 10.5203C27.4011 10.5319 27.9319 10.3669 28.3644 10.0544C28.7907 9.74569 29.092 9.30696 29.217 8.81192L29.2519 8.67991C29.2601 8.65079 29.2416 8.61973 29.2088 8.61197C29.2047 8.61003 29.1986 8.61002 29.1945 8.61002H28.6739C28.637 8.61002 28.6042 8.63332 28.5939 8.66827V8.69156C28.512 9.05847 28.3009 9.38655 27.9914 9.62339C27.6901 9.85052 27.3129 9.97088 26.9256 9.96118C26.241 10.0039 25.6507 9.51273 25.6035 8.86434C25.5995 8.8158 25.5995 8.76727 25.6035 8.71874C25.6056 8.50131 25.622 8.28388 25.6507 8.0684L29.4343 6.95991C29.506 6.94438 29.5552 6.8842 29.5552 6.81625C29.5778 6.62989 29.5921 6.31539 29.5962 5.9912C29.6106 5.52722 29.424 5.07878 29.0797 4.74681ZM28.9301 6.42217C28.9301 6.45711 28.9034 6.48817 28.8686 6.49788L25.7327 7.41612V7.40253C25.8106 6.82596 25.8823 6.39693 25.9417 6.11738C26.0237 5.75047 26.2369 5.42239 26.5423 5.18555C26.8415 4.95648 27.2187 4.83417 27.604 4.83805C27.9627 4.82447 28.3091 4.95259 28.5632 5.19138C28.9506 5.55052 28.9526 5.9349 28.9301 6.42217ZM23.5047 9.79035C23.5539 9.76511 23.6154 9.78258 23.6421 9.82917C23.6523 9.84664 23.6564 9.86411 23.6544 9.88352L23.6031 10.2854C23.5949 10.3378 23.558 10.3824 23.5068 10.4019C23.0866 10.561 22.6193 10.5669 22.195 10.4193C21.7154 10.2116 21.5924 9.76317 21.6621 9.20213L22.2155 4.939L22.2934 4.32555L22.4758 2.96857C22.4779 2.90062 22.5373 2.84627 22.6111 2.84821C22.6152 2.84821 22.6173 2.84821 22.6213 2.84821H23.0272C23.1235 2.84821 23.144 2.89868 23.1317 2.96857L22.8817 4.89241H24.1934C24.2692 4.89241 24.3041 4.93512 24.2979 5.01083L24.261 5.2865C24.261 5.32144 24.2467 5.35445 24.2221 5.37968C24.1914 5.3991 24.1545 5.4088 24.1176 5.40686H22.8058L22.3467 8.90316C22.2996 9.27978 22.2463 9.61756 22.4492 9.80393C22.7238 10.0252 23.2362 9.90877 23.5047 9.79035Z" fill="#D9D9D9"/>
</svg>
