<svg width="22" height="15" viewBox="0 0 22 15" fill="none" xmlns="http://www.w3.org/2000/svg">
<path d="M20.2571 7.80539C20.2571 11.1205 17.5958 13.8085 14.3137 13.8085C12.9814 13.8085 11.6887 13.3566 10.6404 12.5245C9.20568 11.3873 8.36865 9.64803 8.3703 7.80539C8.36865 5.96276 9.20568 4.22352 10.6404 3.08626C13.2208 1.03685 16.9569 1.48875 18.9859 4.09512C19.8097 5.15401 20.2571 6.45969 20.2571 7.80539Z" stroke="#D9D9D9" stroke-width="2" stroke-miterlimit="10"/>
<path d="M12.9105 7.80542C12.9105 11.1205 10.2492 13.8086 6.9671 13.8086C5.63478 13.8086 4.34209 13.3567 3.29374 12.5246C1.85906 11.3873 1.02203 9.64806 1.02368 7.80542C1.02203 5.96279 1.85906 4.22355 3.29374 3.08629C5.87417 1.03688 9.61027 1.48878 11.6393 4.09515C12.4631 5.15404 12.9105 6.45972 12.9105 7.80542Z" stroke="#D9D9D9" stroke-width="2" stroke-miterlimit="10"/>
</svg>
