<svg width="64" height="12" viewBox="0 0 64 12" fill="none" xmlns="http://www.w3.org/2000/svg">
<path d="M11.5279 5.29995C11.5202 5.07488 11.4156 4.95847 11.2116 4.95071H10.1251C9.86754 4.96623 9.73492 5.10852 9.72982 5.37757V7.35663C9.73492 7.63344 9.88284 7.77573 10.1685 7.78349H11.1631C11.2677 7.78349 11.3519 7.74469 11.4207 7.66449C11.4922 7.60499 11.5253 7.52738 11.5253 7.43424V5.29995H11.5279ZM8.33984 5.01797C8.34749 4.52126 8.45461 4.14614 8.6663 3.88744C8.77596 3.77879 8.91624 3.68824 9.08201 3.6158C9.25799 3.53561 9.42632 3.4968 9.58954 3.4968H11.5814C12.4613 3.50456 12.9076 3.99092 12.9204 4.96106V7.9413C12.9127 8.28537 12.7801 8.58288 12.5251 8.83382C12.27 9.09511 11.9665 9.22964 11.6146 9.2374H9.72982V11.3872H8.33984V5.01797Z" fill="#D9D9D9"/>
<path d="M15.4376 7.49892C15.4376 7.5817 15.4759 7.64638 15.5499 7.69553C15.6162 7.75503 15.6978 7.78608 15.8023 7.78608H16.8735C17.1158 7.78608 17.2408 7.69036 17.2484 7.49892V7.09276C17.2484 6.87027 17.1209 6.75903 16.8633 6.75903H15.8023C15.6621 6.75903 15.5652 6.78231 15.5116 6.82629C15.4631 6.87803 15.4376 6.98151 15.4376 7.13674V7.49892ZM17.2459 5.26374C17.2535 5.04643 17.1286 4.94295 16.871 4.95071H14.0655V3.49939H17.2255C18.1462 3.51491 18.6129 3.96505 18.6282 4.85757V7.89473C18.6205 8.27761 18.5032 8.59581 18.2788 8.84675C18.0442 9.10804 17.7407 9.23998 17.3683 9.23998H15.458C14.5271 9.23222 14.0579 8.80019 14.0426 7.94647V6.77455C14.0502 5.87945 14.4991 5.42672 15.3917 5.41119H17.2459V5.26374Z" fill="#D9D9D9"/>
<path d="M22.5431 9.9333C22.6527 9.92554 22.7497 9.88674 22.8262 9.8143C22.9001 9.74704 22.9384 9.66943 22.9384 9.58147V9.2374H21.1531C20.921 9.2374 20.7348 9.20635 20.5946 9.14685C20.4466 9.09252 20.3013 8.99163 20.1559 8.84675C20.0156 8.69412 19.9162 8.53372 19.8549 8.36557C19.7912 8.21293 19.7606 8.01891 19.7606 7.78349V3.4968H21.1531V7.323C21.1531 7.63086 21.2755 7.78349 21.5255 7.78349H22.5099C22.6272 7.78349 22.7293 7.74469 22.8134 7.66449C22.895 7.59723 22.9358 7.51703 22.9358 7.42389V3.4968H24.3182V9.82206C24.3105 10.2903 24.1932 10.6654 23.9637 10.95C23.7316 11.2346 23.4153 11.3794 23.0124 11.3872H19.7606V9.93589H22.5431" fill="#D9D9D9"/>
<path d="M25.4148 7.78608H27.8989C28.1259 7.77832 28.2432 7.68518 28.2509 7.50927V7.37992C28.2509 7.34111 28.2407 7.29972 28.2177 7.25574C28.1616 7.14709 28.0953 7.09276 28.0137 7.09276H26.7819C26.4172 7.085 26.106 6.95823 25.8433 6.71246C25.5781 6.48481 25.4429 6.20541 25.4352 5.87686V4.7929C25.4506 3.94694 25.902 3.5175 26.7946 3.50198H29.674V4.9533H27.2333C26.9476 4.9533 26.8023 5.04125 26.8023 5.21976V5.35946C26.8023 5.54313 26.9502 5.63627 27.2435 5.63627H28.4702C28.7967 5.64403 29.0772 5.77079 29.3093 6.01915C29.544 6.2675 29.6664 6.56501 29.674 6.90908V7.96717C29.6664 8.26468 29.5312 8.56219 29.2685 8.85711C29.141 9.00198 29.0109 9.10287 28.8808 9.15979C28.7457 9.21153 28.562 9.2374 28.33 9.2374H25.4148V7.78608Z" fill="#D9D9D9"/>
<path d="M32.0561 7.49892C32.0561 7.5817 32.0944 7.64638 32.1683 7.69553C32.2321 7.75503 32.3163 7.78608 32.4208 7.78608H33.492C33.7343 7.78608 33.8592 7.69036 33.8669 7.49892V7.09276C33.8669 6.87027 33.7368 6.75903 33.4818 6.75903H32.4208C32.2805 6.75903 32.1862 6.78231 32.1326 6.82629C32.0842 6.87803 32.0561 6.98151 32.0561 7.13674V7.49892ZM33.8669 5.26374C33.872 5.04643 33.747 4.94295 33.4894 4.95071H30.684V3.49939H33.8439C34.7621 3.51491 35.2314 3.96505 35.2441 4.85757V7.89473C35.2365 8.27761 35.1192 8.59581 34.8947 8.84675C34.6601 9.10804 34.3566 9.23998 33.9842 9.23998H32.0714C31.1431 9.23222 30.6712 8.80019 30.6585 7.94647V6.77455C30.6636 5.87945 31.115 5.42672 32.0077 5.41119H33.8618V5.26374" fill="#D9D9D9"/>
<path d="M36.3791 2.67413C36.3867 2.2809 36.5295 1.96787 36.8101 1.73246C37.0804 1.49186 37.4375 1.37027 37.8761 1.36251H38.7611V2.76468H38.2256C37.9323 2.77244 37.7818 2.91472 37.7741 3.19153V3.49939H38.7611V4.9533H37.7741V9.23998H36.3791V2.67413Z" fill="#D9D9D9"/>
<path d="M42.7245 5.23786V5.20423C42.7245 5.12921 42.6939 5.06712 42.6352 5.01797C42.5714 4.9714 42.4898 4.95071 42.3955 4.95071H41.4263C41.3013 4.95071 41.2019 4.98692 41.1228 5.05936C41.0259 5.12662 40.9774 5.21458 40.9774 5.32324V5.90532L42.7245 5.23786ZM40.9978 7.28937V7.37992C40.9978 7.49633 41.0285 7.58946 41.0871 7.65414C41.1305 7.73951 41.1891 7.78349 41.2682 7.78349H44.1298V9.23481H41.0871C40.8091 9.23481 40.5923 9.20894 40.4393 9.15461C40.271 9.0977 40.1231 9.00715 39.9904 8.88039C39.8374 8.72775 39.7328 8.56995 39.6793 8.40955C39.6206 8.2414 39.5926 8.01891 39.5926 7.7421L39.5798 4.83688C39.5951 3.95988 40.0465 3.51233 40.9366 3.4968H42.8163C43.6834 3.51233 44.1247 3.9754 44.1374 4.88603V6.03467L40.9978 7.28937Z" fill="#D9D9D9"/>
<path d="M47.0908 9.2374C46.8791 9.2374 46.6878 9.2167 46.5118 9.18048C46.3282 9.14944 46.1471 9.06406 45.961 8.91919C45.7697 8.75103 45.637 8.5596 45.5656 8.35264C45.4891 8.14568 45.4509 7.91284 45.4509 7.65155V4.94036C45.4432 4.72046 45.4636 4.52644 45.5146 4.35828C45.5605 4.19012 45.66 4.02714 45.8079 3.86416C45.9788 3.696 46.1497 3.58217 46.3333 3.52785C46.5093 3.48387 46.7082 3.46059 46.9301 3.46059H49.0648V3.79948H46.9786C46.6113 3.79948 46.3206 3.87709 46.1089 4.02973C45.8921 4.19788 45.7824 4.48504 45.7824 4.89379V7.60499C45.7824 7.79643 45.8105 7.98269 45.8691 8.1612C45.9278 8.33711 46.0247 8.49233 46.165 8.62686C46.318 8.74328 46.4685 8.81571 46.6164 8.84675C46.7694 8.88039 46.9352 8.8985 47.1086 8.8985H49.1005V9.2374H47.0908Z" fill="#D9D9D9"/>
<path d="M54.5609 5.72164H51.7606C51.4265 5.7294 51.1638 5.83547 50.9725 6.03725C50.7761 6.24421 50.6792 6.5262 50.6792 6.88321V7.74727C50.6792 7.91543 50.6971 8.06806 50.7328 8.20517C50.7685 8.35005 50.8552 8.4794 50.9955 8.59064C51.2377 8.79502 51.5055 8.89332 51.7988 8.89332H53.4949C54.2039 8.88556 54.5609 8.50785 54.5609 7.75503V5.72164ZM54.8925 7.67484C54.8925 7.89215 54.8772 8.08359 54.8491 8.25433C54.8032 8.43801 54.7114 8.61392 54.5711 8.78208C54.2778 9.09511 53.9157 9.24774 53.4847 9.23998H51.8192C51.3857 9.23998 51.0363 9.10804 50.7634 8.84675C50.4854 8.58805 50.3451 8.23105 50.3451 7.77056V6.89614C50.3579 5.91049 50.8424 5.40602 51.7963 5.38274H54.5711V4.99986C54.5711 4.68424 54.4819 4.41002 54.3033 4.17202C54.1886 4.01679 54.056 3.9159 53.9029 3.86157C53.7499 3.82018 53.5765 3.79948 53.3826 3.79948H50.3579V3.46059H53.2271C53.4898 3.46059 53.7269 3.47869 53.9412 3.51491C54.0508 3.53819 54.1529 3.57959 54.2447 3.64426C54.3416 3.70376 54.4334 3.79172 54.5201 3.90814C54.7777 4.24445 54.9027 4.6325 54.8976 5.06971V7.67484" fill="#D9D9D9"/>
<path d="M58.0244 3.79948C57.2491 3.81501 56.8639 4.24445 56.8793 5.09041V9.2374H56.5452V5.09299C56.5299 4.00386 57.0399 3.46059 58.0779 3.46059H58.4478V3.79948H58.0244Z" fill="#D9D9D9"/>
<path d="M63.6659 3.80207H61.0262C60.8349 3.80207 60.6666 3.82277 60.511 3.86416C60.3504 3.90038 60.1948 3.99868 60.0494 4.16166C59.9091 4.30912 59.8224 4.454 59.7867 4.59887C59.7383 4.74633 59.7153 4.92225 59.723 5.12663V7.77056C59.723 8.21035 59.8479 8.51044 60.103 8.67084C60.2279 8.74586 60.3657 8.80019 60.5212 8.83899C60.6743 8.88039 60.8477 8.90108 61.0364 8.90108H62.1892C62.6202 8.90108 62.9722 8.80019 63.2425 8.5984C63.5154 8.40696 63.6531 8.07841 63.6633 7.61016V3.80207H63.6659ZM63.9974 7.63345C63.9668 8.72775 63.3981 9.26326 62.2861 9.24257H61.0492C60.789 9.24257 60.5544 9.21929 60.3478 9.17531C60.1361 9.11839 59.9321 8.98904 59.7357 8.78208C59.5878 8.5984 59.4934 8.41214 59.4552 8.2207C59.4042 8.02926 59.3812 7.81712 59.3889 7.58688V5.11886C59.4042 4.00645 59.9551 3.45541 61.0466 3.46317H63.6659V1.59017H64V7.63345" fill="#D9D9D9"/>
<path d="M0.599346 3.2795C0.709014 3.23034 0.818682 3.19153 0.928349 3.16825C1.12983 2.19295 1.97912 1.46341 2.99928 1.46341C4.01945 1.46341 4.87128 2.19553 5.07022 3.16825C5.38392 3.22775 5.64151 3.3571 5.84299 3.54854C5.85064 3.36228 5.84299 3.18119 5.82259 3.01303C5.69252 1.54102 4.47597 0.387207 2.99418 0.387207C1.46649 0.387207 0.224436 1.61604 0.158125 3.15014C0.150474 3.28208 0.145373 3.42178 0.150474 3.56406C0.280545 3.45541 0.425919 3.35711 0.599346 3.2795Z" fill="#D9D9D9"/>
<path d="M4.65705 3.49939H1.25225C1.08903 3.49939 0.918148 3.5382 0.74472 3.61839C0.576393 3.69342 0.438671 3.78396 0.326453 3.89003C0.114768 4.14873 0.00765123 4.52385 0 5.02056V7.71881C0.00765123 8.21552 0.114768 8.59064 0.326453 8.84675C0.43612 8.95541 0.576393 9.04596 0.74472 9.12098C0.920698 9.19859 1.08903 9.2374 1.25225 9.2374H4.6545C5.53439 9.22964 5.98071 8.74069 5.99346 7.77314V4.96106C5.98326 3.99351 5.53439 3.50715 4.65705 3.49939Z" fill="#D9D9D9"/>
</svg>
