<svg width="47" height="15" viewBox="0 0 47 15" fill="none" xmlns="http://www.w3.org/2000/svg">
<path d="M17.126 5.67639C17.0012 5.63036 16.7381 5.60844 16.4751 5.60844C15.6838 5.60844 14.8434 6.26821 14.8434 7.08581V10.9743H13.0512V4.03242H14.7855V4.72946C15.1889 4.21436 15.9201 3.88775 16.7314 3.88775C16.9945 3.88775 17.1483 3.91844 17.34 3.94913C17.3377 3.94913 17.126 5.67639 17.126 5.67639ZM19.1589 0.387207C19.8098 0.387207 20.3292 0.902316 20.3292 1.57744C20.3292 2.25256 19.8031 2.76767 19.1589 2.76767C18.5147 2.76767 17.9886 2.25256 17.9886 1.57744C17.9886 0.902316 18.508 0.387207 19.1589 0.387207ZM20.0505 10.959H18.2584V4.03242H20.0505V10.959ZM25.3468 3.88775C24.5867 3.88775 23.9135 4.14641 23.3852 4.5848V4.02585H21.6599V14.3872H23.4521V10.468C23.9536 10.8823 24.5889 11.1059 25.2443 11.0971C26.2384 11.0971 27.1902 10.6434 27.7832 9.9222C28.3092 9.29311 28.6235 8.43606 28.6235 7.48913C28.6325 5.45719 27.168 3.88775 25.3468 3.88775ZM25.135 9.42243C24.0227 9.42243 23.2916 8.62676 23.2916 7.51324C23.2916 6.39973 24.0227 5.60405 25.135 5.60405C26.0869 5.60405 26.8536 6.46111 26.8536 7.51324C26.8536 8.56538 26.0869 9.42243 25.135 9.42243ZM39.517 10.959H37.7248V0.812446H39.517V10.959ZM46.8328 9.86083C46.1819 10.6653 45.1209 11.1037 44.0888 11.1037C42.0916 11.1037 40.5847 9.67232 40.5847 7.50448C40.5847 5.57117 41.8575 3.88995 43.8392 3.88995C45.6915 3.88995 47 5.50322 47 7.43653C47 7.62503 46.9866 7.80697 46.9576 7.96698H42.319C42.4126 8.93801 43.1749 9.61094 44.1267 9.61094C44.8868 9.61094 45.4954 9.17036 45.8097 8.8065L46.8328 9.86083ZM45.1655 6.60139C45.1075 5.98765 44.5748 5.38924 43.8414 5.38924C43.0947 5.38924 42.4884 5.9723 42.4081 6.60139H45.1655ZM33.3804 3.88775C32.618 3.88775 31.9449 4.14641 31.4188 4.5848V4.02585H29.6913V14.3872H31.4834V10.468C31.985 10.8823 32.6203 11.1059 33.2756 11.0971C34.2698 11.0971 35.2216 10.6434 35.8145 9.9222C36.3406 9.29311 36.6571 8.43606 36.6571 7.48913C36.6638 5.45719 35.2015 3.88775 33.3804 3.88775ZM33.1597 9.42243C32.0474 9.42243 31.3163 8.62676 31.3163 7.51324C31.3163 6.39973 32.0474 5.60405 33.1597 5.60405C34.1115 5.60405 34.8783 6.46111 34.8783 7.51324C34.8872 8.56538 34.1115 9.42243 33.1597 9.42243Z" fill="#D9D9D9"/>
<path d="M9.3621 8.43606C8.95864 8.19275 8.49945 8.1248 8.05364 8.10946C7.67247 8.09411 7.11074 7.84423 7.11074 7.13184C7.11074 6.60139 7.52758 6.16958 8.05364 6.15423C8.50837 6.13889 8.96087 6.07094 9.36433 5.82763C10.1022 5.38705 10.5569 4.56945 10.5569 3.68171C10.5569 2.79397 10.1022 1.97637 9.36433 1.53579C8.62874 1.0974 7.70813 1.0974 6.97254 1.53579C6.2258 1.9676 5.7733 2.78739 5.7733 3.67294C5.7733 4.15079 5.94048 4.59795 6.14555 5.00784C6.32165 5.34979 6.40858 5.99203 5.80227 6.35589C5.34754 6.6277 4.78582 6.45453 4.50718 5.99203C4.27313 5.59748 3.98112 5.22704 3.57766 4.9925C2.84207 4.55411 1.92146 4.55411 1.18587 4.9925C0.454731 5.42431 0 6.2441 0 7.12965C0 8.0152 0.454731 8.83499 1.19924 9.27557C1.93929 9.71616 2.85321 9.71616 3.59103 9.27557C3.9945 9.03227 4.27759 8.6684 4.52056 8.27604C4.71672 7.94944 5.20042 7.54174 5.81565 7.9056C6.27038 8.17741 6.40858 8.76923 6.15224 9.25365C5.94048 9.66355 5.77775 10.1019 5.77775 10.5886C5.77775 11.4763 6.23248 12.2939 6.97031 12.7345C7.70813 13.1751 8.62205 13.1751 9.3621 12.7345C10.1022 12.2939 10.5547 11.4763 10.5547 10.5886C10.5547 9.70081 10.1022 8.88321 9.3621 8.43606Z" fill="#D9D9D9"/>
</svg>
