<svg width="34" height="12" viewBox="0 0 34 12" fill="none" xmlns="http://www.w3.org/2000/svg">
<path fill-rule="evenodd" clip-rule="evenodd" d="M24.3105 3.25335C25.063 3.25335 25.6742 2.65961 25.6742 1.92868C25.6742 1.19774 25.063 0.604004 24.3105 0.604004C23.5581 0.604004 22.9469 1.19774 22.9469 1.92868C22.9469 2.65961 23.5581 3.25335 24.3105 3.25335ZM13.8664 3.96773C13.8055 4.11675 13.3623 5.33261 12.2909 6.59342V1.2072L9.43693 1.75363V11.516H12.2909V8.49763C13.1164 9.70167 13.5255 11.516 13.5255 11.516H16.9444C16.6059 10.1511 15.1278 7.63187 15.1278 7.63187C16.4549 5.99731 17.0393 4.25395 17.1319 3.96536H13.8664V3.96773ZM21.3689 3.86601C18.8121 3.94644 17.5142 5.06058 17.5142 7.27468V11.5184H20.3024V8.05765C20.3024 6.73062 20.4801 6.1629 22.1019 6.10849V3.90386C21.8292 3.84709 21.3689 3.86601 21.3689 3.86601ZM4.65196 5.04166C4.3013 5.02037 3.49285 4.96833 3.49285 4.26105C3.49285 3.40711 4.65683 3.40711 5.09515 3.40711C5.86464 3.40711 6.85816 3.62709 7.56921 3.83526C7.56921 3.83526 7.96613 3.97009 8.30218 4.10966L8.33383 4.11675V1.77729L8.29 1.76546C7.45232 1.47923 6.47585 1.2072 4.669 1.2072C1.55207 1.2072 0.446533 2.97186 0.446533 4.4834C0.446533 5.3539 0.83128 7.40478 4.40114 7.64133C4.70309 7.66025 5.50668 7.7052 5.50668 8.43613C5.50668 9.03933 4.8492 9.39652 3.74366 9.39652C2.53098 9.39652 1.35483 9.0961 0.641341 8.81224V11.2203C1.71035 11.4923 2.91573 11.6295 4.32809 11.6295C7.37684 11.6295 8.74049 9.9595 8.74049 8.30603C8.74293 6.42783 7.21368 5.20961 4.65196 5.04166ZM22.9274 11.516H25.6937V3.97482H22.9274V11.516ZM30.9024 1.6874V11.516H33.6686V1.2072L30.9024 1.6874ZM26.865 1.6874L29.6288 1.2072V11.516H26.865V1.6874Z" fill="#D9D9D9"/>
</svg>
