<svg width="51" height="15" viewBox="0 0 51 15" fill="none" xmlns="http://www.w3.org/2000/svg">
<path d="M7.64555 6.91889V8.11531C7.59587 8.12025 7.33566 8.1425 6.8105 8.1425C6.37287 8.1425 6.05825 8.12273 5.94707 8.11531V6.91642C4.26041 6.99305 3.00192 7.30204 3.00192 7.66789C3.00192 8.03621 4.26041 8.34273 5.94707 8.41936C6.05588 8.4243 6.36341 8.43913 6.80104 8.43913C7.34985 8.43913 7.59587 8.4243 7.64318 8.41936C9.32511 8.34026 10.5812 8.03374 10.5812 7.66789C10.5836 7.30204 9.32747 6.99552 7.64555 6.91889Z" fill="#D9D9D9"/>
<path d="M6.90748 0.536377C3.09181 0.536377 0 3.76719 0 7.75442C0 11.7416 3.09181 14.9725 6.90748 14.9725C10.7232 14.9725 13.815 11.7416 13.815 7.75442C13.815 3.76719 10.7232 0.536377 6.90748 0.536377ZM7.64554 8.71353V12.152H5.94706V8.71353C4.03804 8.6196 2.60213 8.22656 2.60213 7.75195C2.60213 7.27734 4.03804 6.8843 5.94706 6.79284V5.72002H3.59804V4.08607H9.99219V5.72002H7.64317V6.79284C9.54983 6.8843 10.981 7.27981 10.981 7.75195C10.9834 8.22903 9.55219 8.62207 7.64554 8.71353Z" fill="#D9D9D9"/>
<path d="M19.5042 4.69167V6.48382H21.1151V7.82856H19.4923V10.5551C19.4923 11.1582 19.7999 11.4499 20.2493 11.4499C20.474 11.4499 20.7343 11.3733 20.9472 11.2571L21.3493 12.587C20.9353 12.765 20.5923 12.8416 20.1547 12.8565C18.8891 12.9084 18.0588 12.1272 18.0588 10.5526V7.82608H16.9706V6.48135H18.0588V4.85729L19.5042 4.69167ZM47.2713 6.39978L47.3777 7.129C47.8272 6.34787 48.4328 6.23416 49.0242 6.23416C49.6274 6.23416 50.207 6.48877 50.5263 6.83484L49.8758 8.19193C49.5801 7.92249 49.308 7.78159 48.8349 7.78159C48.0779 7.78159 47.3777 8.21665 47.3777 9.38093V12.7082H45.9324V6.39731L47.2713 6.39978ZM43.7324 8.8198C43.6378 8.00159 43.0464 7.59125 42.216 7.59125C41.4354 7.59125 40.7943 8.00159 40.5814 8.8198H43.7324ZM40.5578 10.1101C40.6524 10.8913 41.2793 11.4549 42.2988 11.4549C42.8311 11.4549 43.5289 11.2374 43.8625 10.8666L44.7851 11.8529C44.17 12.5425 43.1623 12.8762 42.2752 12.8762C40.2621 12.8762 39.0651 11.5315 39.0651 9.50947C39.0651 7.58878 40.2739 6.20697 42.1687 6.20697C44.1227 6.20697 45.3433 7.51215 45.1162 10.1101H40.5578ZM34.1897 3.74987V7.25507C34.7101 6.52585 35.3488 6.30832 36.0135 6.30832C37.6718 6.30832 38.4051 7.52451 38.4051 9.38093V12.7082H36.9597V9.39329C36.9597 8.24137 36.4038 7.7544 35.6327 7.7544C34.7787 7.7544 34.1873 8.53553 34.1873 9.48228V12.7082H32.7443V3.75234L34.1897 3.74987ZM30.3551 4.61999V6.41214H31.966V7.75687H30.3432V10.4834C30.3432 11.0866 30.6508 11.3783 31.1002 11.3783C31.3249 11.3783 31.5852 11.3016 31.7981 11.1854L32.2002 12.5153C31.7862 12.6933 31.4432 12.7699 31.0056 12.7848C29.74 12.8367 28.9097 12.0556 28.9097 10.4809V7.7544H27.8215V6.40967H28.9097V4.7856L30.3551 4.61999ZM26.3643 8.8198C26.2697 8.00159 25.6783 7.59125 24.848 7.59125C24.0674 7.59125 23.4263 8.00159 23.2134 8.8198H26.3643ZM23.1921 10.1101C23.2867 10.8913 23.9136 11.4549 24.9332 11.4549C25.4654 11.4549 26.1633 11.2374 26.4968 10.8666L27.4194 11.8529C26.8043 12.5425 25.7966 12.8762 24.9095 12.8762C22.8964 12.8762 21.6994 11.5315 21.6994 9.50947C21.6994 7.58878 22.9082 6.20697 24.8007 6.20697C26.7546 6.20697 27.9729 7.51215 27.7482 10.1101H23.1921Z" fill="#D9D9D9"/>
</svg>
