<svg width="64" height="17" viewBox="0 0 64 17" fill="none" xmlns="http://www.w3.org/2000/svg">
<path d="M19.181 4.6372H19.6941C19.8256 4.6372 19.9317 4.74699 19.9317 4.88292V9.64057C19.9317 11.1437 20.7204 12.0926 22.1841 12.0926C23.6502 12.0926 24.4364 11.1437 24.4364 9.64057V4.88292C24.4364 4.74699 24.5426 4.6372 24.674 4.6372H25.1872C25.3186 4.6372 25.4248 4.74699 25.4248 4.88292V9.65365C25.4248 11.7005 24.3403 13.0049 22.1841 13.0049C20.0278 13.0049 18.9433 11.6874 18.9433 9.6641V4.88031C18.9408 4.74699 19.047 4.6372 19.181 4.6372ZM26.9415 11.1175C27.0173 11.0182 27.164 11.0078 27.2524 11.0966C27.7858 11.6325 28.5821 12.0926 29.5907 12.0926C31.0088 12.0926 31.4613 11.3031 31.4613 10.6731C31.4613 9.68502 30.4982 9.41576 29.4491 9.12037C28.1751 8.77531 26.7544 8.40672 26.7544 6.79121C26.7544 5.43711 27.9223 4.51172 29.4845 4.51172C30.6069 4.51172 31.4942 4.86723 32.1489 5.492C32.2424 5.58088 32.2525 5.72989 32.1691 5.83184L31.8582 6.22396C31.7824 6.32068 31.6433 6.32851 31.5549 6.24225C30.9734 5.68022 30.2075 5.42143 29.4112 5.42143C28.4557 5.42143 27.7782 5.95209 27.7782 6.72586C27.7782 7.55191 28.6958 7.79764 29.7095 8.07996C31.0088 8.43809 32.4851 8.85635 32.4851 10.5843C32.4851 11.7789 31.6964 12.9997 29.5528 12.9997C28.2686 12.9997 27.303 12.5318 26.6457 11.8521C26.5598 11.7632 26.5522 11.6221 26.628 11.5253L26.9415 11.1175ZM33.6631 4.88292C33.6631 4.74699 33.7693 4.6372 33.9007 4.6372H36.378C38.8452 4.6372 40.4555 6.42263 40.4555 8.7544C40.4555 11.0966 38.8477 12.8585 36.378 12.8585H33.9007C33.7693 12.8585 33.6631 12.7487 33.6631 12.6128V4.88292ZM36.3831 11.9462C38.3144 11.9462 39.4342 10.5163 39.4342 8.7544C39.4342 6.97681 38.3498 5.54951 36.3831 5.54951H34.6565V11.9462H36.3831ZM50.3495 9.87585C50.3495 8.15055 51.4466 6.75723 53.1984 6.75723C54.9502 6.75723 56.0473 8.15055 56.0473 9.87585C56.0473 11.6012 54.9502 13.0075 53.1984 13.0075C51.4466 13.0075 50.3495 11.5985 50.3495 9.87585ZM55.1044 9.87585C55.1044 8.66814 54.427 7.58328 53.1984 7.58328C51.9699 7.58328 51.2798 8.66814 51.2798 9.87585C51.2798 11.0966 51.9699 12.1815 53.1984 12.1815C54.427 12.1815 55.1044 11.0966 55.1044 9.87585ZM56.9068 5.27765C56.9068 4.93258 57.1798 4.66072 57.5034 4.66072C57.8371 4.66072 58.1126 4.92997 58.1126 5.27765C58.1126 5.62271 57.8396 5.90764 57.5034 5.90764C57.1798 5.90764 56.9068 5.62271 56.9068 5.27765ZM57.2986 6.90361H57.7157C57.8472 6.90361 57.9533 7.01341 57.9533 7.14934V12.6128C57.9533 12.7487 57.8472 12.8585 57.7157 12.8585H57.2986C57.1672 12.8585 57.061 12.7487 57.061 12.6128V7.14934C57.061 7.01341 57.1672 6.90361 57.2986 6.90361ZM63.1026 8.96352C63.1026 7.91527 62.5894 7.58328 61.8159 7.58328C61.1132 7.58328 60.4433 8.02768 60.1096 8.50867V12.6128C60.1096 12.7487 60.0034 12.8585 59.872 12.8585H59.4574C59.326 12.8585 59.2198 12.7487 59.2198 12.6128V7.14934C59.2198 7.01341 59.326 6.90361 59.4574 6.90361H59.8745C60.006 6.90361 60.1121 7.01341 60.1121 7.14934V7.76627C60.5166 7.27221 61.3053 6.75723 62.1622 6.75723C63.3655 6.75723 64 7.38722 64 8.67859V12.6102C64 12.7461 63.8938 12.8559 63.7624 12.8559H63.3453C63.2138 12.8559 63.1077 12.7461 63.1077 12.6102V8.96614H63.1026V8.96352ZM42.7154 8.7544C42.7154 6.22657 44.5152 4.50387 46.7701 4.50387C48.1048 4.50387 49.0426 5.10512 49.6746 5.92856C49.753 6.03313 49.7251 6.18735 49.6139 6.25271L49.169 6.50627C49.0679 6.5664 48.9415 6.53764 48.8682 6.44615C48.398 5.84229 47.6346 5.41881 46.7701 5.41881C45.0638 5.41881 43.7417 6.79905 43.7417 8.75963C43.7417 10.7071 45.0638 12.1004 46.7701 12.1004C47.6371 12.1004 48.4005 11.6848 48.8682 11.0731C48.9415 10.979 49.0654 10.9529 49.169 11.0104L49.619 11.2639C49.7353 11.3293 49.7631 11.4861 49.6796 11.5907C49.0224 12.422 48.1048 13.0128 46.7701 13.0128C44.5177 13.0049 42.7154 11.2822 42.7154 8.7544Z" fill="#D9D9D9"/>
<path d="M8.39709 0.734375C4.11489 0.734375 0.641602 4.32353 0.641602 8.75443C0.641602 13.1827 4.11236 16.7745 8.39709 16.7745C12.6818 16.7745 16.1526 13.1853 16.1526 8.75443C16.1526 4.32614 12.6818 0.734375 8.39709 0.734375ZM6.94357 14.3303C6.94357 14.5185 6.79948 14.6257 6.62506 14.5682C4.2792 13.7944 2.58047 11.5201 2.58047 8.83808C2.58047 6.15601 4.2792 3.88175 6.62506 3.10797C6.80201 3.05046 6.94357 3.15764 6.94357 3.34586V3.81117C6.94357 3.93664 6.85004 4.08565 6.73376 4.12486C4.8783 4.82805 3.54865 6.67099 3.54865 8.83284C3.54865 10.9921 4.8783 12.835 6.73376 13.5408C6.85004 13.5853 6.94357 13.7291 6.94357 13.8545V14.3303ZM8.88497 12.5971H8.88244C8.88244 12.7357 8.77374 12.8481 8.63977 12.8481H8.15694C8.02297 12.8481 7.91427 12.7357 7.91427 12.5971V11.8051C6.85509 11.6561 6.33941 11.0444 6.19785 10.2105C6.17257 10.0693 6.2838 9.94123 6.42283 9.94123H6.97643C7.09271 9.94123 7.18877 10.0249 7.21405 10.1451C7.31769 10.6418 7.59323 11.0235 8.44259 11.0235C9.0695 11.0235 9.51188 10.6627 9.51188 10.1216C9.51188 9.58047 9.25151 9.37658 8.33137 9.21973C6.9739 9.03152 6.33435 8.60542 6.33435 7.50489C6.33435 6.6553 6.95368 5.99655 7.9168 5.85278V5.07639C7.9168 4.93784 8.02549 4.82544 8.15947 4.82544H8.64229C8.77627 4.82544 8.88497 4.93784 8.88497 5.07639V5.8763C9.66608 6.02008 10.1615 6.48016 10.3233 7.24086C10.3537 7.38464 10.245 7.52057 10.1009 7.52057H9.59024C9.48154 7.52057 9.39054 7.44476 9.35515 7.33497C9.21865 6.85136 8.88497 6.64223 8.30356 6.64223C7.66148 6.64223 7.33033 6.96377 7.33033 7.41339C7.33033 7.88916 7.51992 8.12704 8.50326 8.27604C9.83545 8.46426 10.523 8.85899 10.523 10.0301C10.523 10.9189 9.88348 11.6404 8.88497 11.8077V12.5971ZM10.1717 14.5682C9.9947 14.6257 9.85314 14.5185 9.85314 14.3303V13.865C9.85314 13.7264 9.93403 13.5983 10.063 13.5513C11.9184 12.8481 13.2481 11.0052 13.2481 8.8433C13.2481 6.68144 11.9184 4.84112 10.063 4.13531C9.94667 4.09087 9.85314 3.9471 9.85314 3.82162V3.35631C9.85314 3.1681 9.99723 3.05831 10.1717 3.11843C12.5175 3.8922 14.2162 6.16646 14.2162 8.84853C14.2137 11.5201 12.515 13.7918 10.1717 14.5682Z" fill="#D9D9D9"/>
</svg>
