<svg width="34" height="12" viewBox="0 0 34 12" fill="none" xmlns="http://www.w3.org/2000/svg">
<path d="M19.28 9.10806C18.3203 9.12352 17.3727 8.90027 16.522 8.45549L16.0378 10.7137C16.9871 11.0812 17.9987 11.265 19.0172 11.2564C21.8357 11.2547 23.6772 9.84307 23.7014 7.73423C23.717 5.01059 19.944 4.8629 19.944 3.64534C19.9526 3.28127 20.3036 2.88458 21.0852 2.78497C21.9948 2.70254 22.9077 2.86397 23.7325 3.25036L24.2011 1.06252C23.3971 0.761995 22.5446 0.607439 21.6852 0.604004C19.0362 0.604004 17.1549 2.00875 17.1549 4.00941C17.1549 5.49144 18.4517 6.29857 19.4979 6.81032C20.544 7.32207 20.8881 7.63977 20.8881 8.09829C20.8414 8.79037 20.0616 9.10806 19.28 9.10806Z" fill="#D9D9D9"/>
<path d="M6.99959 7.78918L5.867 1.83016C5.77362 1.22567 5.24969 0.777451 4.63239 0.775734H0.0622493L0 1.0797C0.916448 1.26173 1.80523 1.55539 2.64905 1.95723C3.00872 2.12553 3.25253 2.47071 3.28884 2.86569L5.3984 11.0967H8.22555L12.6089 0.806645H9.79562L6.99959 7.78918Z" fill="#D9D9D9"/>
<path d="M11.5144 11.095H14.2257L16.4131 0.791189H13.7329L11.5144 11.095Z" fill="#D9D9D9"/>
<path d="M28.7626 0.775734C28.2577 0.777451 27.8047 1.08485 27.6214 1.55195L23.5977 11.095H26.4093L26.9712 9.54254H30.4088L30.7373 11.095L33.2221 11.0795L31.0589 0.775734H28.7626ZM27.7009 7.44915L29.1154 3.57836L29.9281 7.44915H27.7009Z" fill="#D9D9D9"/>
</svg>
