<svg width="77" height="17" viewBox="0 0 77 17" fill="none" xmlns="http://www.w3.org/2000/svg">
<path fill-rule="evenodd" clip-rule="evenodd" d="M12.8098 9.62698L10.0671 2.87302L7.34007 9.62698H12.8098ZM39.1208 16.9365L39.1051 3.6746L33.2896 16.9365H29.7689L23.9456 3.65873V16.9365H15.7961L14.2558 13.1587H5.90978L4.35375 16.9365H0L7.17504 0H13.132L19.9455 16.0317V0H26.484L31.7258 11.4921L36.5589 0H43.231V16.9365H39.1208ZM49.6123 13.4683V10.0952H58.4141V6.64286H49.6123V3.56349H59.6636L64.0488 8.5L59.4671 13.4683H49.6123ZM76.7642 17H71.5539L66.6186 11.3889L61.4868 17H45.6122V0.0634921H61.7305L66.6657 5.61905L71.7661 0.0634921H77L69.212 8.53175L76.7642 17Z" fill="#D9D9D9"/>
</svg>
