<svg width="88" height="26" viewBox="0 0 88 26" fill="none" xmlns="http://www.w3.org/2000/svg">
<path fill-rule="evenodd" clip-rule="evenodd" d="M18.9447 24.4843L19.3239 24.2707C19.5261 24.698 19.9473 24.9116 20.4613 24.9116C21.0427 24.9116 21.3755 24.6577 21.3755 24.2707C21.3755 23.9724 21.1732 23.8031 20.7056 23.6741L20.1032 23.525C19.4123 23.3758 19.0542 23.0574 19.0542 22.5656C19.0542 21.969 19.5682 21.5417 20.415 21.5417C21.1058 21.5417 21.5945 21.8198 21.7757 22.2028L21.3965 22.4164C21.2196 22.1181 20.8615 21.9488 20.3939 21.9488C19.8589 21.9488 19.5261 22.1625 19.5261 22.5454C19.5261 22.8236 19.703 22.9929 20.1959 23.1219L20.7983 23.271C21.5355 23.4403 21.8473 23.7628 21.8473 24.2505C21.8473 24.8673 21.3333 25.3188 20.4444 25.3188C19.703 25.3147 19.168 24.9963 18.9447 24.4843ZM22.7109 21.6465H23.1785V25.2502H22.7109V21.6465ZM28.238 25.2543V21.6465H27.7072L26.237 23.8434L24.7667 21.6465H24.278V25.2502H24.7457V22.3318L26.06 24.315H26.4602L27.7746 22.3318V25.2543H28.238ZM32.1643 22.7591C32.1643 23.4403 31.6967 23.8676 30.892 23.8676H29.822V25.2543H29.3544V21.6465H30.892C31.7177 21.6465 32.1643 22.0738 32.1643 22.7591ZM31.6714 22.7591C31.6714 22.2673 31.4271 22.0536 30.8457 22.0536H29.822V23.4605H30.8457C31.4271 23.4605 31.6714 23.2468 31.6714 22.7591ZM35.4629 25.2543V24.827H33.4576V21.6465H32.99V25.2502H35.4629V25.2543ZM38.8289 24.827V25.2543H36.2001V21.6465H38.7867V22.0738H36.693V23.2468H38.6983V23.654H36.693V24.8471L38.8289 24.827ZM40.2106 24.6133H39.743L39.4776 26H39.8357L40.2106 24.6133ZM46.2517 21.6465V25.2502H45.7841V22.3318L44.4697 24.315H44.0906L42.7762 22.3318V25.2543H42.3086V21.6465H42.7973L44.2675 23.8434L45.7167 21.6465H46.2517ZM49.1037 21.5619C47.9452 21.5619 47.1659 22.3922 47.1659 23.4403C47.1659 24.4843 47.9452 25.3188 49.1037 25.3188C50.2622 25.3188 51.0416 24.4884 51.0416 23.4403C51.0416 22.3963 50.2412 21.5619 49.1037 21.5619ZM49.1037 21.9891C49.9505 21.9891 50.5318 22.6059 50.5318 23.4403C50.5318 24.2707 49.9505 24.8915 49.1037 24.8915C48.257 24.8915 47.6756 24.2747 47.6756 23.4403C47.6756 22.6059 48.257 21.9891 49.1037 21.9891ZM55.0774 21.6465V25.2502H54.6308L52.3812 22.3721V25.2502H51.9136V21.6465H52.3602L54.6098 24.5246V21.6465H55.0774ZM58.8436 25.2543V24.827L56.7035 24.8471V23.654H58.7088V23.2468H56.7035V22.0738H58.7972V21.6465H56.2106V25.2502H58.8436V25.2543ZM62.6309 21.6465L61.1817 23.7588V25.2502H60.7141V23.7588L59.2649 21.6465H59.7999L60.9584 23.3516L62.1169 21.6465H62.6309ZM62.6561 24.6778C62.4792 24.6778 62.3444 24.8068 62.3444 24.9761C62.3444 25.1696 62.4539 25.2946 62.6561 25.2946C62.8583 25.2946 62.9889 25.1656 62.9889 24.9761C62.9889 24.8028 62.8541 24.6778 62.6561 24.6778Z" fill="#D9D9D9"/>
<path fill-rule="evenodd" clip-rule="evenodd" d="M58.6877 0.447442C60.8278 0.447442 62.475 0.939225 63.5703 1.87442C64.594 2.74915 65.1753 4.05116 65.1753 5.52248C65.1753 7.03814 64.7077 8.27566 63.7725 9.1907C62.5677 10.3839 60.6761 11.045 58.4434 11.045C58.1106 11.045 57.7525 11.0248 57.4197 11.0006V16.9947H54.1211V0.830387L54.6351 0.745736C55.8778 0.556279 57.2385 0.447442 58.6877 0.447442ZM58.4855 8.27566C59.7325 8.27566 61.8515 7.93302 61.8515 5.63132C61.8515 3.62791 60.158 3.20062 58.7299 3.20062C58.1738 3.20062 57.7272 3.22077 57.4155 3.26512V8.21519C57.7062 8.2555 58.0642 8.27566 58.4855 8.27566ZM0 17.0189L5.85993 0.556279H9.20484L15.069 17.0189H11.5471L9.85361 12.222H5.10163L3.45024 17.0189H0ZM7.24171 5.86512L5.94839 9.48899H9.0237L7.73038 5.88527C7.68404 5.75628 7.64613 5.63132 7.60821 5.50233C7.5703 5.37333 7.52817 5.24837 7.48604 5.11938C7.43128 5.32496 7.36387 5.51442 7.29647 5.71194C7.27962 5.76434 7.26277 5.81271 7.24171 5.86512ZM19.1216 8.21116C19.1216 8.6586 19.2986 8.93674 20.8826 9.53333C22.3318 10.0453 24.2696 11.0047 24.2696 13.3507C24.2696 15.6766 22.3065 17.2527 19.387 17.2527C18.0937 17.2527 16.8004 16.9343 15.8441 16.3981L15.4186 16.1643L16.3117 13.4998L16.9816 13.8828C17.5376 14.2012 18.5192 14.564 19.4334 14.564C20.0358 14.564 21.0174 14.435 21.0174 13.5402C21.0174 13.0726 20.9078 12.6654 19.3239 12.1091C17.7399 11.5529 15.8694 10.4685 15.8694 8.44093C15.8694 6.24403 17.7862 4.64372 20.415 4.64372C21.6198 4.64372 22.7783 4.92186 23.5577 5.40961L23.9579 5.66357L23.0648 8.2676L22.3949 7.86046C22.0369 7.66698 21.3249 7.30419 20.3897 7.30419C19.6145 7.31628 19.1216 7.65488 19.1216 8.21116ZM29.4639 2.0276L26.1906 2.98698V4.86543H24.4086V7.57426H26.1906V12.9476C26.1906 14.4391 26.5024 15.5274 27.1511 16.2329C27.7746 16.894 28.7562 17.2567 29.8473 17.2567C30.8499 17.2567 31.5619 17.0633 31.8989 16.9584L32.3454 16.8093L32.1685 14.0803L31.4102 14.294C31.1869 14.3584 30.9215 14.3988 30.3865 14.3988C29.9863 14.3988 29.4513 14.3988 29.4513 12.8629V7.57023H32.4381V4.86139H29.4513L29.4639 2.0276ZM39.8315 4.69209L40.4339 4.75659V7.89271L39.6756 7.74356C39.5197 7.72341 39.3639 7.72341 39.0943 7.72341C37.9779 7.72341 37.1564 8.51349 36.9078 9.77116C36.8615 9.98481 36.8404 10.2831 36.8404 10.5814V17.0229H33.5208V8.8924C33.5208 7.52589 33.4997 6.46171 33.4323 5.52248L33.386 4.88155H36.4824L36.5287 5.77643C37.2407 5.05085 38.2012 4.64775 39.2501 4.64775C39.4734 4.64775 39.6545 4.67194 39.8315 4.69209ZM46.5171 4.64775C42.8183 4.64775 40.2106 7.27194 40.2106 11.045C40.2106 14.7132 42.7299 17.2729 46.3191 17.2729C49.3733 17.2729 52.6509 15.2695 52.6509 10.8515C52.6467 7.18729 50.1274 4.64775 46.5171 4.64775ZM49.2807 10.92C49.2807 13.0322 48.0758 14.5882 46.4286 14.5882C44.7772 14.5882 43.5977 13.0726 43.5977 10.9845C43.5977 9.64217 44.2001 7.33643 46.475 7.33643C48.6782 7.33643 49.2807 9.68248 49.2807 10.92ZM75.2944 13.7981V9.70263C75.2944 6.43752 73.5334 4.64775 70.3233 4.64775C68.8278 4.64775 67.2901 5.0307 66.1991 5.69178L65.7736 5.94574L66.6667 8.46108L67.3365 8.01364C68.0274 7.5662 69.0089 7.30822 69.9905 7.30822C70.6603 7.30822 71.149 7.45736 71.4608 7.75566C71.7304 8.01364 71.8863 8.3724 71.9284 8.86419C69.3418 8.92868 67.425 9.52527 66.2664 10.6338C65.466 11.3997 65.0616 12.3833 65.0616 13.5361C65.0616 15.3904 66.4897 17.2688 69.1859 17.2688C70.3444 17.2688 71.4355 16.906 72.2822 16.2893L72.3707 17.0149H75.5134L75.4039 16.3336C75.3365 15.6766 75.2944 14.822 75.2944 13.7981ZM69.742 14.6084C69.2533 14.6084 68.4276 14.4391 68.4276 13.3064C68.4276 12.8791 68.5624 12.5163 68.8531 12.2623C69.2322 11.8995 70.1 11.4722 72.0421 11.4319V12.734C72.0421 12.8186 72.0421 13.0121 71.9747 13.1814C71.7514 13.8223 71.0142 14.6084 69.742 14.6084ZM82.0474 11.6859L84.4571 4.86139H88L84.5877 13.4555C83.1848 17.0189 82.1148 19.1916 80.4887 20.5581C79.149 21.6465 77.9695 21.9005 77.6366 21.965L77.0806 22.0496L76.2338 19.3206L76.8152 19.1513C77.0806 19.0868 77.7504 18.8329 78.4202 18.2967L78.4413 18.2766C79.0226 17.8291 79.5998 17.0834 80 16.2732C80.0463 16.2087 80.0885 16.1039 80.1095 16.0394C80.0969 16.0192 80.0885 15.991 80.0716 15.9507C80.0548 15.9104 80.0337 15.858 80 15.7814L79.9789 15.7612L75.4334 4.84124H79.0605L81.6893 11.7101C81.7356 11.8592 81.7988 12.0285 81.8662 12.2019C81.8999 12.1172 81.9252 12.0326 81.9547 11.9439C81.9884 11.8592 82.0137 11.7746 82.0474 11.6859Z" fill="#D9D9D9"/>
<path d="M12.1453 5.09922C14.2854 3.00713 17.9168 1.74946 21.8641 1.74946C23.4018 1.74946 24.8973 1.94295 26.3212 2.30574L26.4308 2.32589L28.95 1.60031L27.8125 1.19318C25.6556 0.407132 23.1827 0 20.6172 0C16.9184 0 13.4387 0.854574 10.8773 2.41054L10.6077 2.57984L11.6777 5.56682L12.1453 5.09922Z" fill="#D9D9D9"/>
</svg>
