<svg width="97" height="21" viewBox="0 0 97 21" fill="none" xmlns="http://www.w3.org/2000/svg">
<path d="M5.93312 8.82233L9.70042 4.74503L13.4677 8.8265L15.6618 6.4519L9.70042 0L3.73907 6.4519L5.93312 8.82233Z" fill="#D9D9D9"/>
<path d="M2.19216 8.12523L0 10.4978L2.19216 12.8703L4.38432 10.4978L2.19216 8.12523Z" fill="#D9D9D9"/>
<path d="M5.93306 12.1735L9.70036 16.2508L13.4677 12.1735L15.6617 14.5439L9.70036 21L3.73514 14.5439L5.93306 12.1735Z" fill="#D9D9D9"/>
<path d="M17.2069 8.12655L15.0147 10.4991L17.2069 12.8717L19.399 10.4991L17.2069 8.12655Z" fill="#D9D9D9"/>
<path d="M11.9253 10.5L9.70044 8.09199L8.05393 9.86981L7.47167 10.5L9.70044 12.908L11.9253 10.5Z" fill="#D9D9D9"/>
<path d="M22.8185 5.08723H27.5883C28.7721 5.08723 29.6667 5.41692 30.2721 6.07212C30.7425 6.58126 30.9777 7.21143 30.9777 7.96679V8.00018C30.9777 8.31735 30.943 8.60113 30.8698 8.84319C30.7965 9.08524 30.7001 9.30642 30.5767 9.50257C30.4533 9.69871 30.3145 9.86981 30.1526 10.02C29.9906 10.1703 29.8209 10.2955 29.6359 10.3998C30.2297 10.6419 30.7001 10.9757 31.0394 11.3931C31.3788 11.8104 31.5523 12.3947 31.5523 13.1333V13.1667C31.5523 13.6759 31.4636 14.1224 31.2824 14.5022C31.1011 14.8819 30.8428 15.2033 30.5035 15.4578C30.1641 15.7124 29.7592 15.9044 29.285 16.0296C28.8107 16.1548 28.2863 16.2216 27.7079 16.2216H22.8185V5.08723ZM27.1102 9.5902C27.6115 9.5902 28.0086 9.49839 28.3017 9.31059C28.5947 9.12697 28.7413 8.82649 28.7413 8.41334V8.37995C28.7413 8.00853 28.614 7.72474 28.3595 7.5286C28.105 7.33245 27.7387 7.2323 27.2567 7.2323H25.0241V9.58603C25.0202 9.5902 27.1102 9.5902 27.1102 9.5902ZM27.7117 14.0765C28.213 14.0765 28.6025 13.9805 28.8878 13.7844C29.1731 13.5882 29.3158 13.2836 29.3158 12.8704V12.837C29.3158 12.4656 29.1847 12.1735 28.9186 11.9523C28.6526 11.7353 28.2284 11.6268 27.6385 11.6268H25.0241V14.0765H27.7117Z" fill="#D9D9D9"/>
<path d="M34.3864 5.08723H36.6499V16.2216H34.3864V5.08723Z" fill="#D9D9D9"/>
<path d="M40.0779 5.08723H42.164L46.9839 11.9439V5.08723H49.2166V16.2216H47.2924L42.3105 9.14366V16.2216H40.0779V5.08723Z" fill="#D9D9D9"/>
<path d="M56.0726 5.00796H58.1587L62.5699 16.2216H60.2023L59.2615 13.726H54.9119L53.971 16.2216H51.6652L56.0726 5.00796ZM58.4517 11.5642L57.0828 7.95431L55.7178 11.5642H58.4517Z" fill="#D9D9D9"/>
<path d="M65.0107 5.08723H67.0967L71.9167 11.9439V5.08723H74.1494V16.2216H72.2252L67.2433 9.14366V16.2216H65.0107V5.08723Z" fill="#D9D9D9"/>
<path d="M82.301 16.4135C81.5452 16.4135 80.8473 16.2633 80.1995 15.967C79.5517 15.6707 78.9926 15.2659 78.526 14.7484C78.0556 14.2351 77.6892 13.6258 77.4232 12.9288C77.1571 12.2277 77.026 11.4807 77.026 10.6878V10.6544C77.026 9.85731 77.1571 9.11446 77.4232 8.41752C77.6892 7.72476 78.0556 7.11128 78.526 6.58962C78.9964 6.06378 79.5594 5.65063 80.2149 5.35015C80.8704 5.04967 81.5954 4.89526 82.3897 4.89526C82.8678 4.89526 83.3074 4.937 83.7046 5.02046C84.1018 5.10393 84.4604 5.22078 84.7843 5.37102C85.1082 5.52126 85.4051 5.70071 85.6827 5.91355C85.9565 6.12639 86.211 6.36009 86.4462 6.61466L85.0079 8.41335C84.6069 8.02106 84.1982 7.71224 83.7817 7.49105C83.3653 7.26987 82.8987 7.15719 82.3781 7.15719C81.9463 7.15719 81.5491 7.249 81.1789 7.42845C80.8126 7.60791 80.4964 7.8583 80.2303 8.17547C79.9643 8.49264 79.7599 8.86406 79.6134 9.28139C79.4669 9.69872 79.3936 10.1494 79.3936 10.6252V10.6586C79.3936 11.1343 79.4669 11.585 79.6134 12.0107C79.7599 12.4364 79.9643 12.8078 80.2226 13.125C80.481 13.4422 80.7972 13.6967 81.1635 13.8804C81.5298 14.0682 81.9347 14.16 82.3743 14.16C82.9642 14.16 83.4578 14.0431 83.8665 13.8094C84.2714 13.5757 84.6763 13.2585 85.0773 12.8537L86.5195 14.4271C86.2534 14.7359 85.9796 15.0113 85.6981 15.2534C85.4128 15.4954 85.1043 15.7083 84.765 15.8835C84.4257 16.0588 84.0555 16.1924 83.6545 16.28C83.2496 16.3676 82.7984 16.4135 82.301 16.4135Z" fill="#D9D9D9"/>
<path d="M89.1801 5.08723H96.9267V7.26568H91.4165V9.52343H96.2674V11.7019H91.4165V14.0389H97V16.2174H89.1801V5.08723Z" fill="#D9D9D9"/>
</svg>
