<svg width="89" height="19" viewBox="0 0 89 19" fill="none" xmlns="http://www.w3.org/2000/svg">
<path fill-rule="evenodd" clip-rule="evenodd" d="M11.5366 0.28444C6.55847 -0.985199 1.52128 2.11508 0.27772 7.20207C-0.961901 12.2891 2.06435 17.4435 7.04251 18.7132C12.0207 19.9828 17.0618 16.8825 18.3054 11.7956C19.545 6.70856 16.5148 1.55408 11.5366 0.28444ZM13.3862 8.1427C13.2524 9.06646 12.7526 9.51357 12.0836 9.66964C12.9966 10.1589 13.4649 10.9055 13.0202 12.1963C12.4693 13.8033 11.1628 13.9383 9.42337 13.6009L9.00623 15.3387L7.98698 15.0772L8.40413 13.3731C8.14046 13.3056 7.86892 13.2339 7.59345 13.158L7.17631 14.8705L6.15707 14.609L6.57814 12.8796C6.34203 12.8163 6.09804 12.7488 5.85405 12.6856L4.52785 12.3481L5.0355 11.1544C5.0355 11.1544 5.78715 11.3569 5.77534 11.3442C6.06262 11.4201 6.19248 11.2261 6.24364 11.0954L6.90871 8.36626L7.01496 8.39579C6.97167 8.37892 6.93626 8.36626 6.90871 8.36204L7.38488 6.41329C7.39669 6.18974 7.32192 5.91134 6.90871 5.80589C6.92445 5.79745 6.16887 5.61609 6.16887 5.61609L6.44041 4.50251L7.84531 4.86105V4.86948L8.49857 5.02555L8.91572 3.31301L9.93496 3.57032L9.52569 5.2491C9.80116 5.31237 10.0766 5.37565 10.3442 5.44314L10.7496 3.777L11.7688 4.03431L11.3517 5.74684C12.6306 6.2024 13.5751 6.8815 13.3862 8.1427Z" fill="#D9D9D9"/>
<path fill-rule="evenodd" clip-rule="evenodd" d="M8.48283 9.6106L7.92008 11.9052C8.6127 12.0824 10.7417 12.7784 11.0605 11.4876C11.3871 10.1336 9.17151 9.78776 8.48283 9.6106Z" fill="#D9D9D9"/>
<path fill-rule="evenodd" clip-rule="evenodd" d="M9.24234 6.47657L8.73469 8.55609C9.31318 8.70372 11.0841 9.30268 11.3713 8.12584C11.6744 6.89838 9.82084 6.6242 9.24234 6.47657Z" fill="#D9D9D9"/>
<path d="M27.2306 5.74686C27.9822 5.74686 28.6355 5.88606 29.1825 6.15601C29.7334 6.43019 30.186 6.79716 30.548 7.26114C30.9061 7.72513 31.1738 8.27348 31.3469 8.89776C31.5201 9.52625 31.6027 10.1969 31.6027 10.9182C31.6027 12.0233 31.4059 13.0694 31.0045 14.0564C30.6189 15.0182 30.064 15.8913 29.3714 16.6295C27.8996 18.1648 25.9241 19.0169 23.8698 18.9958C23.7282 18.9958 23.4802 18.9916 23.1261 18.9832C22.7207 18.9705 22.3193 18.9368 21.9179 18.8777C21.4299 18.806 20.9498 18.709 20.4697 18.5867C19.9699 18.4643 19.4859 18.2872 19.0215 18.0594L23.0946 0.579725L26.7387 0.00185135L25.2826 6.2024C25.5935 6.05899 25.9083 5.94932 26.2231 5.86917C26.534 5.78903 26.8685 5.74686 27.2306 5.74686ZM24.1728 16.0389C24.7198 16.0389 25.2393 15.8997 25.7234 15.6298C26.2113 15.3598 26.6324 14.9929 26.9826 14.5373C27.3368 14.0775 27.6123 13.5629 27.8169 12.9851C28.0216 12.4072 28.1239 11.7998 28.1239 11.1839C28.1239 10.4163 27.998 9.81308 27.7461 9.38283C27.4942 8.94837 27.0338 8.73325 26.3569 8.73325C26.1366 8.73325 25.8532 8.77543 25.499 8.85557C25.1488 8.93572 24.8182 9.10865 24.5467 9.36173L22.9962 15.9461L23.2441 15.9925C23.4094 16.0263 23.5786 16.0432 23.7478 16.0432H24.1728V16.0389ZM35.3845 18.6584H31.9018L34.8415 6.01681H38.3439L35.3845 18.6584ZM37.0767 4.47299C36.5887 4.47299 36.1519 4.32537 35.7584 4.0301C35.3649 3.73484 35.1681 3.2835 35.1681 2.67188C35.1681 2.33444 35.235 2.01808 35.3648 1.72282C35.4947 1.43177 35.6757 1.17025 35.8961 0.955126C36.1165 0.740005 36.3723 0.567072 36.6596 0.436312C36.9508 0.30977 37.2617 0.246494 37.5883 0.246494C38.0723 0.246494 38.5131 0.394121 38.9066 0.689386C39.2962 0.984651 39.493 1.4402 39.493 2.0476C39.493 2.38505 39.4261 2.70141 39.2962 3.00089C39.1664 3.29194 38.9893 3.55346 38.7689 3.76858C38.5446 3.98792 38.2848 4.16086 38.0054 4.28319C37.7103 4.41395 37.3955 4.47721 37.0767 4.47299Z" fill="#D9D9D9"/>
<path fill-rule="evenodd" clip-rule="evenodd" d="M41.3977 2.86589L45.0418 2.28801L44.1446 6.01258H48.0484L47.344 8.94413H43.4638L42.4288 13.3647C42.3343 13.7359 42.2792 14.0775 42.2635 14.3981C42.2478 14.7187 42.2871 14.9971 42.3816 15.229C42.4839 15.4695 42.661 15.6635 42.8892 15.769C43.1293 15.8997 43.4795 15.963 43.936 15.963C44.3099 15.963 44.6758 15.925 45.03 15.8533C45.3842 15.7816 45.7384 15.6804 46.1004 15.5538L46.3601 18.2956C45.8604 18.4812 45.3488 18.633 44.8333 18.7511C44.2823 18.8819 43.633 18.941 42.8813 18.941C41.8031 18.941 40.9609 18.7764 40.3667 18.4517C39.7685 18.1226 39.3474 17.6713 39.0956 17.1019C38.8358 16.486 38.7257 15.8154 38.765 15.1447C38.7965 14.4065 38.9067 13.6304 39.0956 12.8121L41.3977 2.86589ZM47.8989 13.6093C47.8989 12.521 48.072 11.4918 48.4144 10.5301C48.7607 9.56841 49.2526 8.729 49.898 8.00772C50.5394 7.28643 51.3186 6.72121 52.2356 6.2994C53.1525 5.88181 54.1757 5.67512 55.3051 5.67512C56.0135 5.67512 56.6431 5.74261 57.198 5.8818C57.7529 6.021 58.2605 6.19816 58.717 6.42172L57.5167 9.21409C57.198 9.08333 56.8713 8.96522 56.5408 8.86398C56.1394 8.75009 55.7222 8.69948 55.309 8.70792C54.1442 8.70792 53.2273 9.11707 52.5425 9.93115C51.8617 10.7495 51.5193 11.8462 51.5193 13.2255C51.5193 14.0438 51.6925 14.706 52.0388 15.208C52.3851 15.7141 53.0187 15.9672 53.9435 15.9672C54.7817 15.963 55.6121 15.7943 56.3912 15.4653L56.651 18.3251C56.1748 18.5107 55.6868 18.671 55.1949 18.7975C54.6597 18.9283 54.0261 19 53.2902 19C52.3182 19 51.4957 18.8524 50.8228 18.5655C50.1971 18.3082 49.6265 17.9117 49.1542 17.4014C48.7174 16.9163 48.3908 16.3257 48.2019 15.6804C47.9972 15.0097 47.8949 14.3095 47.8989 13.6093Z" fill="#D9D9D9"/>
<path d="M63.3607 18.9958C62.5303 18.9958 61.8062 18.865 61.1962 18.6077C60.6178 18.3757 60.1022 18.0088 59.6772 17.5237C59.2719 17.047 58.9649 16.4903 58.7721 15.8786C58.5596 15.1995 58.4573 14.4909 58.4691 13.778C58.4691 12.8163 58.6226 11.8546 58.9256 10.8929C59.2286 9.93116 59.6812 9.06645 60.2793 8.29455C60.8736 7.52686 61.6055 6.89837 62.4634 6.40486C63.3252 5.91556 64.313 5.67091 65.4267 5.67091C66.2413 5.67091 66.9615 5.80167 67.5793 6.05897C68.1972 6.31628 68.7048 6.67903 69.1062 7.14302C69.5037 7.60701 69.8067 8.15535 70.0113 8.78806C70.216 9.42077 70.3144 10.121 70.3144 10.8887C70.3144 11.8504 70.1687 12.8121 69.8697 13.7738C69.5824 14.7187 69.1338 15.596 68.5513 16.3679C67.9571 17.1525 67.2133 17.7936 66.3751 18.2534C65.5133 18.7511 64.5058 18.9958 63.3607 18.9958ZM65.1001 8.70792C64.5845 8.70792 64.128 8.85977 63.7384 9.16347C63.3449 9.46717 63.0183 9.85524 62.7507 10.3192C62.4792 10.7916 62.2785 11.3105 62.1486 11.8462C62.0187 12.3608 61.9558 12.888 61.9518 13.4195C61.9518 14.2209 62.0778 14.8452 62.3257 15.2965C62.5775 15.7437 63.0301 15.9672 63.6912 15.9672C64.2107 15.9672 64.6633 15.8154 65.0568 15.5117C65.4464 15.208 65.773 14.8241 66.0406 14.3559C66.3082 13.8919 66.5089 13.3815 66.6427 12.829C66.7726 12.2764 66.8395 11.7492 66.8395 11.2556C66.8395 10.4542 66.7135 9.82993 66.4617 9.37859C66.2138 8.93148 65.7612 8.70792 65.1001 8.70792ZM74.1119 18.6583H70.6292L73.5688 6.01679H77.0752L74.1119 18.6583ZM75.8041 4.47298C75.3319 4.47719 74.8714 4.32113 74.4897 4.03008C74.0962 3.73482 73.8994 3.28348 73.8994 2.67186C73.8994 2.33442 73.9663 2.01806 74.1001 1.7228C74.23 1.42753 74.411 1.17023 74.6274 0.955108C74.8518 0.735768 75.1115 0.558618 75.3909 0.436294C75.6782 0.309752 75.9891 0.246476 76.3196 0.246476C76.8076 0.246476 77.2444 0.394103 77.638 0.689368C78.0315 0.984632 78.2282 1.44018 78.2282 2.04759C78.2282 2.38503 78.1574 2.70139 78.0275 3.00087C77.8977 3.29192 77.7206 3.55344 77.5002 3.76857C77.2759 3.98791 77.0162 4.16085 76.7368 4.28317C76.4416 4.41393 76.1229 4.47719 75.8041 4.47298Z" fill="#D9D9D9"/>
<path fill-rule="evenodd" clip-rule="evenodd" d="M79.582 6.59046C79.8456 6.51453 80.1408 6.41751 80.4635 6.31628C81.2545 6.07163 82.0651 5.90292 82.8876 5.81434C83.3795 5.75528 83.9423 5.72997 84.568 5.72997C86.4018 5.72997 87.669 6.2741 88.3656 7.36658C89.066 8.45485 89.1841 9.94804 88.7315 11.8377L87.1299 18.6668H83.6275L85.178 11.9812C85.2724 11.5636 85.3472 11.1586 85.4023 10.7663C85.4574 10.4247 85.4534 10.0746 85.3905 9.73291C85.3314 9.44608 85.178 9.18879 84.9576 9.01163C84.7254 8.82603 84.3791 8.73323 83.9069 8.73323C83.4543 8.73323 82.9939 8.78385 82.5216 8.88087L80.2392 18.6626H76.7328L79.582 6.59046Z" fill="#D9D9D9"/>
</svg>
