<svg width="102" height="21" viewBox="0 0 102 21" fill="none" xmlns="http://www.w3.org/2000/svg">
<path d="M6.07296 10.4208C6.02562 11.2675 6.65394 11.9906 7.48023 12.0391H7.562C8.38829 12.0391 9.05534 11.3512 9.05534 10.509C9.05534 9.66242 8.38398 8.97895 7.562 8.97895C6.77014 8.97895 6.11599 9.61392 6.07296 10.4208Z" fill="#D9D9D9"/>
<path d="M0.508409 10.0328C0.241586 10.0196 0.0134959 10.2269 0.000585117 10.5002C-0.0123257 10.7736 0.189943 11.0073 0.456766 11.0206C0.723588 11.0338 0.951679 10.8265 0.964589 10.5576C0.9775 10.2798 0.775232 10.0505 0.508409 10.0328Z" fill="#D9D9D9"/>
<path d="M5.97826 1.54016C6.21496 1.4167 6.30964 1.11686 6.18914 0.874338C6.06864 0.631817 5.77599 0.534806 5.53929 0.658271C5.3026 0.781736 5.20792 1.07717 5.32842 1.31969C5.44892 1.56662 5.73726 1.66363 5.97826 1.54016Z" fill="#D9D9D9"/>
<path d="M7.49743 4.24758C7.86324 4.05797 8.01387 3.59938 7.82881 3.22017C7.64376 2.84536 7.19618 2.69103 6.82607 2.88064C6.46027 3.07024 6.30964 3.52883 6.4947 3.90804C6.67975 4.28726 7.12732 4.43718 7.49743 4.24758Z" fill="#D9D9D9"/>
<path d="M2.39764 6.10839C2.68168 6.298 3.06039 6.21863 3.24975 5.9276C3.4348 5.63658 3.35734 5.24855 3.0733 5.05453C2.78927 4.86492 2.41055 4.9443 2.22119 5.23532C2.03614 5.52635 2.1136 5.91879 2.39764 6.10839Z" fill="#D9D9D9"/>
<path d="M3.30572 9.75496C2.89258 9.73291 2.54399 10.0548 2.51816 10.4737C2.49665 10.897 2.81081 11.2542 3.21965 11.2806C3.62849 11.3027 3.98138 10.9808 4.00721 10.5619C4.02872 10.1386 3.71456 9.777 3.30572 9.75496Z" fill="#D9D9D9"/>
<path d="M2.47942 14.892C2.17817 15.0508 2.05336 15.4256 2.20829 15.7387C2.36322 16.0473 2.72903 16.1752 3.03458 16.0165C3.33583 15.8577 3.46064 15.4829 3.30571 15.1698C3.15078 14.8612 2.78067 14.7333 2.47942 14.892Z" fill="#D9D9D9"/>
<path d="M5.37576 8.17647C5.7803 8.44986 6.32685 8.33081 6.58937 7.91632C6.85619 7.50183 6.74 6.94182 6.33546 6.67284C5.93092 6.39946 5.38437 6.51851 5.12185 6.933C4.85933 7.34308 4.97122 7.89868 5.37576 8.17647C5.37576 8.17206 5.37576 8.17206 5.37576 8.17647Z" fill="#D9D9D9"/>
<path d="M14.5769 4.18585C14.9211 4.41514 15.3859 4.31814 15.6097 3.96097C15.8335 3.60821 15.7388 3.13198 15.3902 2.90269C15.046 2.6734 14.5812 2.77041 14.3574 3.12317C14.1336 3.48033 14.2283 3.95656 14.5769 4.18585C14.5726 4.18585 14.5726 4.18585 14.5769 4.18585Z" fill="#D9D9D9"/>
<path d="M16.1046 1.48729C16.3284 1.63721 16.6254 1.57548 16.7717 1.34618C16.918 1.11689 16.8578 0.812637 16.634 0.662715C16.4102 0.512793 16.1132 0.574529 15.9669 0.803821C15.8206 1.03311 15.8851 1.33737 16.1046 1.48729Z" fill="#D9D9D9"/>
<path d="M14.6931 8.96572C13.8711 8.91722 13.1653 9.561 13.1179 10.4076C13.0706 11.2498 13.6989 11.973 14.5252 12.0215C14.5553 12.0215 14.5812 12.0215 14.6113 12.0215C15.4376 12.0215 16.1046 11.3336 16.1046 10.4914C16.1046 10.1166 15.9712 9.75502 15.7259 9.47282C15.4591 9.16856 15.089 8.98336 14.6931 8.96572Z" fill="#D9D9D9"/>
<path d="M7.98801 8.06622C8.24192 8.58213 8.75835 8.90843 9.32212 8.90843C10.1484 8.90843 10.8155 8.22496 10.8155 7.37834C10.8155 7.13582 10.7595 6.90212 10.6562 6.68605C10.4023 6.17015 9.88589 5.84826 9.32212 5.84826C8.49583 5.84826 7.82877 6.53613 7.82877 7.38275C7.82877 7.62086 7.88042 7.85457 7.98801 8.06622Z" fill="#D9D9D9"/>
<path d="M19.6938 6.10834C19.995 5.9496 20.1198 5.5748 19.9649 5.26172C19.81 4.95306 19.4442 4.82518 19.1386 4.98392C18.8373 5.13826 18.7125 5.51747 18.8675 5.83054C19.0224 6.1392 19.3925 6.26267 19.6938 6.10834Z" fill="#D9D9D9"/>
<path d="M15.9066 6.59343C15.4719 6.81831 15.2998 7.35626 15.5192 7.80162C15.7387 8.24697 16.2638 8.42336 16.6984 8.19847C17.1331 7.97359 17.3052 7.43563 17.0857 6.99028C16.8706 6.54933 16.3412 6.37295 15.9066 6.59343C15.9109 6.59343 15.9109 6.59343 15.9066 6.59343Z" fill="#D9D9D9"/>
<path d="M11.0307 1.25797C11.3706 1.2756 11.659 1.01104 11.6805 0.667099C11.6977 0.318751 11.4395 0.023312 11.1038 0.00126467C10.7681 -0.0207827 10.4755 0.2482 10.454 0.592138C10.4325 0.940486 10.6907 1.23592 11.0307 1.25797Z" fill="#D9D9D9"/>
<path d="M11.022 5.2177C11.5083 5.24416 11.9215 4.86495 11.9473 4.37109C11.9731 3.87282 11.603 3.44951 11.121 3.42305C10.639 3.3966 10.2216 3.77581 10.1957 4.26967C10.1699 4.76794 10.54 5.19125 11.022 5.2177Z" fill="#D9D9D9"/>
<path d="M6.26659 14.4026C6.70126 14.1777 6.8734 13.6398 6.65392 13.1944C6.43443 12.749 5.9094 12.5727 5.47473 12.7975C5.04007 13.0224 4.86793 13.5604 5.08741 14.0057C5.30689 14.4467 5.83193 14.6275 6.26659 14.4026Z" fill="#D9D9D9"/>
<path d="M11.5901 6.53167C11.1382 7.23718 11.3319 8.18521 12.0205 8.64821C12.709 9.1112 13.6343 8.91278 14.0862 8.20726C14.5381 7.50175 14.3444 6.55372 13.6558 6.09072C13.4148 5.92757 13.1308 5.83938 12.8381 5.83938C12.3389 5.83938 11.8655 6.09954 11.5901 6.53167Z" fill="#D9D9D9"/>
<path d="M14.1894 12.9298C13.8193 12.1758 12.9199 11.8716 12.184 12.2508C11.448 12.63 11.1511 13.5516 11.5212 14.3056C11.7751 14.8215 12.2915 15.1478 12.8553 15.1478C13.0877 15.1478 13.3201 15.0905 13.5267 14.9802C14.2626 14.601 14.5552 13.6838 14.1894 12.9298Z" fill="#D9D9D9"/>
<path d="M16.7975 12.8239C16.3929 12.5506 15.8464 12.6652 15.5796 13.0841C15.3127 13.4986 15.4246 14.0586 15.8335 14.332C16.238 14.6054 16.7846 14.4907 17.0514 14.0718C17.3139 13.6529 17.202 13.0973 16.7975 12.8239Z" fill="#D9D9D9"/>
<path d="M19.6551 10.5267C19.6766 10.1034 19.3624 9.74624 18.9536 9.71978C18.5448 9.69332 18.1919 10.0196 18.166 10.4385C18.1445 10.8574 18.4587 11.219 18.8675 11.2455C19.2807 11.2675 19.6336 10.9456 19.6551 10.5267Z" fill="#D9D9D9"/>
<path d="M21.7208 9.97989C21.454 9.96225 21.2259 10.1739 21.2087 10.4473C21.1914 10.7207 21.398 10.9544 21.6648 10.972C21.9317 10.9897 22.1598 10.778 22.177 10.5046C22.1942 10.2312 21.9876 9.99753 21.7208 9.97989Z" fill="#D9D9D9"/>
<path d="M19.7755 14.8876C19.4915 14.698 19.1128 14.7773 18.9234 15.0684C18.7341 15.3594 18.8158 15.7474 19.0999 15.9415C19.3839 16.1311 19.7626 16.0517 19.952 15.7607C20.1413 15.4696 20.0596 15.0816 19.7755 14.8876Z" fill="#D9D9D9"/>
<path d="M6.06859 19.5087C5.84481 19.3588 5.54786 19.4206 5.40154 19.6498C5.25522 19.8791 5.31547 20.1834 5.53925 20.3333C5.76304 20.4832 6.05999 20.4215 6.20631 20.1922C6.35263 19.9673 6.29238 19.6587 6.06859 19.5087Z" fill="#D9D9D9"/>
<path d="M16.195 19.4603C15.9583 19.5837 15.8593 19.8792 15.9798 20.1261C16.1003 20.3686 16.3887 20.47 16.6297 20.3466C16.8664 20.2231 16.9654 19.9277 16.8449 19.6807C16.7244 19.4338 16.4317 19.3368 16.195 19.4603C16.195 19.4558 16.195 19.4558 16.195 19.4603Z" fill="#D9D9D9"/>
<path d="M10.5831 14.4644C11.035 13.7588 10.8413 12.8108 10.1528 12.3478C9.46419 11.8848 8.53891 12.0832 8.08704 12.7888C7.63516 13.4943 7.82882 14.4423 8.5174 14.9053C8.7584 15.0685 9.04243 15.1566 9.33508 15.1566C9.8386 15.1566 10.3077 14.8965 10.5831 14.4644Z" fill="#D9D9D9"/>
<path d="M7.59643 16.8102C7.25214 16.5809 6.78735 16.6779 6.56357 17.0307C6.33978 17.3834 6.43446 17.8596 6.77875 18.0889C7.12303 18.3182 7.58352 18.2212 7.81161 17.8685C8.0397 17.5157 7.94502 17.0439 7.59643 16.8102Z" fill="#D9D9D9"/>
<path d="M11.0823 19.7425C10.7423 19.7248 10.454 19.9894 10.4325 20.3333C10.4152 20.6817 10.6735 20.9771 11.0091 20.9992C11.3491 21.0168 11.6375 20.7522 11.659 20.4083C11.6762 20.0599 11.418 19.7601 11.0823 19.7425Z" fill="#D9D9D9"/>
<path d="M11.0866 15.7783C10.6046 15.7474 10.1872 16.1267 10.157 16.6205C10.1269 17.1144 10.497 17.5421 10.979 17.573C11.461 17.6038 11.8785 17.2246 11.9086 16.7308V16.7264C11.9387 16.2325 11.5686 15.8092 11.0866 15.7783Z" fill="#D9D9D9"/>
<path d="M14.6801 16.7528C14.3143 16.9424 14.1637 17.4054 14.3531 17.7802C14.5381 18.155 14.99 18.3094 15.3558 18.1153C15.7216 17.9257 15.8722 17.4627 15.6829 17.0879C15.4935 16.7087 15.0459 16.5588 14.6801 16.7528Z" fill="#D9D9D9"/>
<path d="M31.1586 6.88444C32.6046 6.88444 33.6159 7.70019 33.6159 9.21264H35.5095C35.5095 6.56255 33.5987 5.28381 31.1284 5.28381C28.0901 5.28381 26.3256 6.97263 26.3256 10.5443C26.3256 14.2042 28.0901 15.8048 31.1284 15.8048C33.6288 15.8048 35.5095 14.5613 35.5095 11.9068H33.6891C33.6891 13.3884 32.6907 14.2042 31.1586 14.2042C29.1488 14.2042 28.2192 13.0621 28.2192 10.6942V10.3988C28.2235 8.07059 29.1617 6.88444 31.1586 6.88444Z" fill="#D9D9D9"/>
<path d="M40.5188 5.46018L36.6542 15.6284H38.565L39.3612 13.4193H43.8971L44.7148 15.6284H46.7117L42.8471 5.46459H40.5188V5.46018ZM39.9378 11.8142L40.9492 9.02744C41.1515 8.48066 41.513 7.29452 41.5861 7.08728H41.6593C41.7324 7.29452 42.0939 8.49389 42.2962 9.02744L43.3076 11.8142H39.9378Z" fill="#D9D9D9"/>
<path d="M57.0361 8.5424C57.0361 6.65956 55.9817 5.46018 53.7955 5.46018H48.558V15.624H50.4086V11.6952H53.4899L55.3663 15.624H57.389L55.2673 11.3997C56.4422 10.9279 57.0361 9.92256 57.0361 8.5424ZM53.6492 10.0989H50.4086V7.07845H53.6492C54.6476 7.07845 55.1683 7.62523 55.1683 8.54681C55.1683 9.50807 54.6046 10.0989 53.6492 10.0989Z" fill="#D9D9D9"/>
<path d="M63.5302 5.46018H59.5665V15.624H63.5302C66.5211 15.624 68.3459 14.0234 68.3459 10.5399C68.3459 7.05641 66.5211 5.46018 63.5302 5.46018ZM66.4523 10.6898C66.4394 12.9122 65.4108 14.0101 63.5302 14.0101H61.4171V7.07405H63.5302C65.4065 7.07405 66.4523 8.172 66.4523 10.3944V10.6898Z" fill="#D9D9D9"/>
<path d="M73.1918 5.46018L69.3272 15.624H71.2379L72.0341 13.4149H76.5744L77.3835 15.624H79.3803L75.52 5.46018H73.1918ZM72.6151 11.8142L73.6264 9.02744C73.8287 8.48066 74.1902 7.29452 74.2634 7.08728H74.3365C74.4097 7.29452 74.7712 8.49389 74.9735 9.02744L75.9848 11.8142H72.6151Z" fill="#D9D9D9"/>
<path d="M87.8455 11.5056C87.8455 11.6996 87.8756 12.2155 87.8756 12.3037L87.8024 12.3346C87.7594 12.2772 87.471 11.7569 87.3118 11.5188L83.0039 5.45579H81.2352V15.6196H83.0125V9.53013C83.0125 9.27879 82.9824 8.78935 82.9824 8.71439L83.0556 8.67029C83.0986 8.72761 83.3138 9.15974 83.5462 9.49927L87.8842 15.6196H89.6185V5.45579H87.8412L87.8455 11.5056Z" fill="#D9D9D9"/>
<path d="M96.9949 5.28381C93.8877 5.28381 92.0071 6.97263 92.0071 10.5443C92.0071 14.116 93.8834 15.8048 96.9949 15.8048C100.106 15.8048 102 14.116 102 10.5443C102 6.97263 100.102 5.28381 96.9949 5.28381ZM100.102 10.7074C100.102 13.0356 99.0176 14.2042 96.9949 14.2042C94.9851 14.2042 93.9006 13.0356 93.9006 10.7074V10.3944C93.9006 8.06618 94.998 6.88444 96.9949 6.88444C99.0047 6.88444 100.102 8.07059 100.102 10.3944V10.7074Z" fill="#D9D9D9"/>
</svg>
