<svg width="84" height="21" viewBox="0 0 84 21" fill="none" xmlns="http://www.w3.org/2000/svg">
<path fill-rule="evenodd" clip-rule="evenodd" d="M13.8377 0C6.18952 0 0 4.16531 0 9.34218C0 11.5347 1.12104 13.5441 3.01685 15.1645C2.08626 13.8371 1.55387 12.3586 1.55387 10.7795C1.55387 5.42406 7.61787 1.07566 15.0799 1.07566C19.9017 1.07566 24.1305 2.87451 26.524 5.60256C24.3815 2.29778 19.4992 0 13.8377 0Z" fill="#D9D9D9"/>
<path fill-rule="evenodd" clip-rule="evenodd" d="M8.56578 7.87746C8.96398 7.52043 9.46174 7.34193 10.0504 7.34193C10.6261 7.34193 11.1195 7.52501 11.5264 7.89119C11.9332 8.25279 12.154 8.71968 12.1973 9.28726H7.80399C7.91653 8.70137 8.16757 8.23448 8.56578 7.87746ZM13.5174 11.4294C14.0844 11.4294 14.5346 11.3013 14.8808 11.0449C15.279 10.7611 15.4781 10.3492 15.4781 9.80906C15.4781 8.81122 15.1751 7.88661 14.5692 7.03524C13.9632 6.18387 13.1884 5.54307 12.2405 5.1128C11.5826 4.81528 10.8425 4.66881 10.0331 4.66881C8.39697 4.66881 7.05519 5.24096 5.99907 6.38985C4.94729 7.53874 4.42356 8.92108 4.42356 10.5414C4.42356 12.1755 4.97326 13.5487 6.07266 14.6655C7.17205 15.7824 8.54846 16.3362 10.1976 16.3362C11.0762 16.3362 11.9246 16.2035 12.734 15.9334C13.6949 15.6222 14.4004 15.169 14.8375 14.5786C15.0843 14.2536 15.2098 13.9286 15.2098 13.6082C15.2098 12.7568 14.7683 12.3311 13.8896 12.3311C13.6992 12.3311 13.2014 12.5097 12.405 12.8667C11.6086 13.2237 10.9247 13.4022 10.362 13.4022C9.68682 13.4022 9.11548 13.2328 8.65234 12.8987C8.18488 12.56 7.91653 12.0748 7.84727 11.4386L13.5174 11.4294ZM17.0363 14.6426C18.1054 15.7686 19.5208 16.3271 21.2824 16.3271C22.3385 16.3271 23.2172 16.1669 23.927 15.8373C24.9096 15.375 25.403 14.8166 25.403 14.1529C25.403 13.7592 25.2775 13.4251 25.0221 13.1459C24.7711 12.8667 24.4421 12.7294 24.0352 12.7294C23.7582 12.7294 23.412 12.8117 22.9921 12.9719C22.5723 13.1322 22.1178 13.2145 21.6287 13.2145C20.789 13.2145 20.1397 12.9445 19.6766 12.4044C19.2741 11.9146 19.0707 11.2646 19.0707 10.4545C19.0707 9.6809 19.2654 9.04008 19.655 8.52285C20.0878 7.9507 20.7024 7.66691 21.4988 7.66691C21.9923 7.66691 22.4554 7.75388 22.8969 7.91866C23.3384 8.08802 23.6933 8.17499 23.9703 8.17499C24.3902 8.17499 24.7364 8.03767 25.0091 7.76761C25.2861 7.49755 25.4203 7.16342 25.4203 6.77435C25.4203 6.01453 24.9442 5.44694 23.9876 5.06703C23.2821 4.79697 22.4511 4.65965 21.4945 4.65965C19.6723 4.65965 18.2136 5.20434 17.1186 6.29373C16.0192 7.38312 15.4738 8.78833 15.4738 10.5094C15.4781 12.1847 15.9975 13.5624 17.0363 14.6426ZM29.6924 8.6144C30.1209 8.03767 30.7312 7.74929 31.5146 7.74929C32.2851 7.74929 32.8867 8.04682 33.3152 8.63728C33.7004 9.14536 33.8909 9.7633 33.8909 10.4911C33.8909 11.2418 33.7048 11.8688 33.3368 12.3632C32.904 12.9536 32.298 13.2512 31.5146 13.2512C30.7442 13.2512 30.1425 12.9536 29.714 12.3632C29.3288 11.8551 29.134 11.228 29.134 10.4911C29.134 9.74957 29.3201 9.12706 29.6924 8.6144ZM27.0911 14.6152C28.2467 15.7549 29.7227 16.3271 31.5146 16.3271C33.3239 16.3271 34.7998 15.7595 35.9382 14.6335C37.0332 13.535 37.5829 12.1572 37.5829 10.5048C37.5829 8.84327 37.0289 7.45177 35.9165 6.33492C34.8042 5.22265 33.3368 4.66423 31.5146 4.66423C29.7227 4.66423 28.2597 5.22266 27.1257 6.34409C25.9917 7.46552 25.4247 8.85242 25.4247 10.5048C25.4247 12.148 25.9787 13.5166 27.0911 14.6152Z" fill="#D9D9D9"/>
<path fill-rule="evenodd" clip-rule="evenodd" d="M81.693 13.448H78.0312L82.9525 8.14294C83.4546 7.60282 83.7057 7.14968 83.7057 6.77434C83.7057 6.36239 83.5152 6.10606 83.13 5.9962C82.7491 5.88635 82.1604 5.83599 81.364 5.83599H75.4255C73.85 5.83599 73.0623 6.30287 73.0623 7.23663C73.0623 8.18413 73.8414 8.66017 75.4039 8.66017H78.5896L73.4994 14.1803C73.1315 14.5786 72.9497 14.9768 72.9497 15.3704C72.9497 16.0112 73.599 16.3316 74.8975 16.3316H81.6627C83.2209 16.3316 84 15.8602 84 14.9081C84.0043 13.9332 83.2339 13.448 81.693 13.448Z" fill="#D9D9D9"/>
<path fill-rule="evenodd" clip-rule="evenodd" d="M42.1364 13.9149V11.3562H44.465C46.1011 11.3562 47.3866 10.9122 48.3302 10.0196C49.2694 9.13164 49.7412 7.87746 49.7412 6.26169C49.7412 4.63218 49.2218 3.36429 48.183 2.46257C47.2005 1.59747 45.8674 1.16721 44.1923 1.16721H41.0759C40.1756 1.16721 39.5523 1.34571 39.2061 1.69816C38.8598 2.05519 38.6867 2.6777 38.6867 3.56569V13.9057C38.6867 15.5215 39.2623 16.3271 40.4137 16.3271C41.5607 16.3317 42.1364 15.5261 42.1364 13.9149ZM42.1364 4.31178H43.634C45.2138 4.31178 46.0016 4.96175 46.0016 6.26169C46.0016 7.58909 45.2138 8.2528 43.634 8.2528H42.1364V4.31178Z" fill="#D9D9D9"/>
<path fill-rule="evenodd" clip-rule="evenodd" d="M59.6817 16.4182C60.833 16.4182 61.413 15.6034 61.413 13.9785V7.26366C61.413 5.65246 60.8374 4.84687 59.6817 4.84687C58.9762 4.84687 58.4221 5.19931 58.0153 5.89963C57.3141 5.10319 56.3748 4.70039 55.2062 4.70039C53.609 4.70039 52.2889 5.31832 51.2501 6.55876C50.2762 7.71223 49.7828 9.0671 49.7828 10.6234C49.7828 12.1613 50.2502 13.5025 51.1895 14.6468C52.211 15.8872 53.5095 16.5051 55.0807 16.5051C56.3186 16.5051 57.2968 16.084 58.0196 15.2464C58.3659 16.0245 58.9199 16.4182 59.6817 16.4182ZM53.9553 8.7421C54.3708 8.1791 54.9378 7.89532 55.6563 7.89532C56.3878 7.89532 56.9548 8.17452 57.353 8.7421C57.695 9.23645 57.8681 9.8498 57.8681 10.5776C57.8681 11.3054 57.695 11.9279 57.353 12.436C56.9505 13.0127 56.3835 13.3011 55.6563 13.3011C54.9249 13.3011 54.3492 13.0127 53.9337 12.436C53.5744 11.9279 53.3969 11.3054 53.3969 10.5776C53.3969 9.86354 53.5831 9.25018 53.9553 8.7421ZM69.52 6.16512L67.3775 11.4885L65.3908 6.45348C65.1744 5.89047 64.9796 5.51057 64.8064 5.31833C64.5208 5.00249 64.1226 4.84229 63.6161 4.84229C63.127 4.84229 62.7202 5.00249 62.3956 5.31833C62.0709 5.63416 61.9108 6.0278 61.9108 6.49468C61.9108 6.82425 61.9757 7.1355 62.1056 7.42387L65.6288 15.283L64.1918 18.272C64.0014 18.6976 63.9018 19.073 63.9018 19.4025C63.9018 19.8923 64.062 20.286 64.3779 20.5697C64.6939 20.8581 65.1138 21 65.6332 21C66.2521 21 66.7628 20.5514 67.1697 19.6589L72.5066 7.58864C72.6927 7.16296 72.7879 6.77847 72.7879 6.43518C72.7879 5.37783 72.2122 4.84687 71.0609 4.84687C70.39 4.84229 69.8792 5.28629 69.52 6.16512Z" fill="#D9D9D9"/>
</svg>
