<svg width="113" height="29" viewBox="0 0 113 29" fill="none" xmlns="http://www.w3.org/2000/svg">
<g opacity="0.8">
<path d="M32.0355 16.6843C32.0355 16.8881 31.8706 17.062 31.6571 17.062H24.7241C24.9036 18.8214 26.1893 20.4267 28.0086 20.4267C29.2555 20.4267 30.1773 19.9446 30.8663 18.9258C30.939 18.8214 31.0458 18.7419 31.1719 18.7419C31.3708 18.7419 31.5164 18.891 31.5164 19.0948C31.5164 19.1594 31.497 19.224 31.463 19.2787C30.7644 20.5212 29.3671 21.1325 28.0086 21.1325C25.675 21.1325 24.0012 18.9904 24.0012 16.7091C24.0012 14.413 25.6653 12.2809 28.0086 12.2809C30.3423 12.2809 32.0258 14.4031 32.0355 16.6843ZM31.2932 16.3563C31.1477 14.5969 29.828 12.9916 28.0038 12.9916C26.1844 12.9916 24.8987 14.5969 24.7192 16.3563H31.2932ZM40.4677 12.4548C40.6666 12.4548 40.8122 12.6387 40.8122 12.8077C40.8122 13.0115 40.6666 13.1606 40.4677 13.1606H38.6047V20.6504C38.6047 20.8343 38.4591 21.0032 38.2602 21.0032C38.071 20.9983 37.9206 20.8442 37.9157 20.6504V13.1606H36.1255C35.9411 13.1655 35.7858 13.0164 35.781 12.8276C35.781 12.8226 35.781 12.8127 35.781 12.8077C35.781 12.6238 35.9314 12.4548 36.1255 12.4548H37.9157V9.72133C37.9157 9.53744 38.0516 9.36846 38.2311 9.34858C38.4494 9.3287 38.6192 9.48773 38.6192 9.70144V12.4548H40.4677ZM51.8254 16.073V20.6106C51.8254 20.8144 51.6459 20.9635 51.481 20.9635C51.2966 20.9684 51.1413 20.8193 51.1365 20.6305C51.1365 20.6255 51.1365 20.6156 51.1365 20.6106V16.073C51.1365 14.5422 50.2875 13.0164 48.6233 13.0164C46.4886 13.0164 45.5668 14.9249 45.6929 16.8881C45.6929 16.9428 45.7123 17.1664 45.7123 17.2012V20.5957C45.7123 20.7796 45.5765 20.9486 45.397 20.9734C45.2078 20.9983 45.038 20.8641 45.0137 20.6703C45.0137 20.6504 45.0088 20.6355 45.0088 20.6156V5.71053C45.0088 5.52664 45.1544 5.35766 45.3533 5.35766C45.5522 5.35766 45.6978 5.54155 45.6978 5.71053V14.1347C46.2945 13.0413 47.3619 12.3008 48.6039 12.3008C50.661 12.3057 51.8254 14.1347 51.8254 16.073ZM64.2845 16.6843C64.2845 16.8881 64.1147 17.062 63.9061 17.062H56.9682C57.1477 18.8214 58.4334 20.4267 60.2576 20.4267C61.4996 20.4267 62.4214 19.9446 63.1152 18.9258C63.188 18.8214 63.2947 18.7419 63.4209 18.7419C63.6198 18.7419 63.7654 18.891 63.7654 19.0948C63.7654 19.1594 63.7459 19.224 63.712 19.2787C63.0133 20.5212 61.6161 21.1325 60.2576 21.1325C57.924 21.1325 56.2501 18.9904 56.2501 16.7091C56.2501 14.413 57.9143 12.2809 60.2576 12.2809C62.5767 12.2809 64.2748 14.4031 64.2845 16.6843ZM63.5325 16.3563C63.3869 14.5969 62.0673 12.9916 60.2431 12.9916C58.4237 12.9916 57.138 14.5969 56.9585 16.3563H63.5325ZM72.8137 12.7829C72.8137 13.0065 72.6876 13.1357 72.4886 13.1705C70.4509 13.4836 69.5291 15.1834 69.5291 17.1664V20.5659C69.5291 20.7498 69.3933 20.9188 69.2138 20.9436C69.0246 20.9685 68.8547 20.8343 68.8305 20.6404C68.8305 20.6206 68.8256 20.6057 68.8256 20.5858V12.8375C68.8256 12.6536 68.9615 12.4846 69.141 12.4598C69.3593 12.4399 69.5291 12.599 69.5291 12.8127V14.3882C70.1065 13.3892 71.2466 12.4499 72.4401 12.4499C72.6148 12.4548 72.8137 12.5841 72.8137 12.7829ZM84.2151 16.6843C84.2151 16.8881 84.0453 17.062 83.8367 17.062H76.8939C77.0735 18.8214 78.3592 20.4267 80.1834 20.4267C81.4254 20.4267 82.3472 19.9446 83.041 18.9258C83.1138 18.8214 83.2205 18.7419 83.3467 18.7419C83.5456 18.7419 83.6911 18.891 83.6911 19.0948C83.6911 19.1594 83.6717 19.224 83.6378 19.2787C82.9391 20.5212 81.5467 21.1325 80.1834 21.1325C77.8497 21.1325 76.1759 18.9904 76.1759 16.7091C76.1759 14.413 77.84 12.2809 80.1834 12.2809C82.517 12.2809 84.2054 14.4031 84.2151 16.6843ZM83.4728 16.3563C83.3272 14.5969 82.0076 12.9916 80.1882 12.9916C78.3689 12.9916 77.0783 14.5969 76.8988 16.3563C76.9036 16.3563 83.4728 16.3563 83.4728 16.3563ZM95.4321 12.8723V20.6553C95.4321 20.8591 95.2526 21.0082 95.0877 21.0082C94.9033 21.0132 94.7481 20.8641 94.7432 20.6703C94.7432 20.6653 94.7432 20.6554 94.7432 20.6504V19.1693C94.1707 20.3373 93.1567 21.1822 91.8565 21.1822C89.7945 21.1822 88.6544 19.3482 88.6544 17.4099V12.8524C88.6544 12.6685 88.7999 12.4996 88.9988 12.4996C89.1978 12.4996 89.3433 12.6834 89.3433 12.8524V17.4099C89.3433 18.9407 90.1875 20.4665 91.8516 20.4665C94.1853 20.4665 94.7384 18.225 94.7384 15.7499V12.8425C94.7384 12.6288 94.9567 12.4151 95.209 12.5095C95.3497 12.5791 95.4321 12.7182 95.4321 12.8723ZM113 16.0432V20.5957C113 20.7995 112.82 20.9486 112.656 20.9486C112.471 20.9535 112.316 20.8045 112.311 20.6106C112.311 20.6056 112.311 20.5957 112.311 20.5907V16.0382C112.311 14.5025 111.462 13.0065 109.798 13.0065C107.707 13.0065 106.911 15.3027 106.911 17.077V20.5907C106.911 20.7945 106.732 20.9436 106.567 20.9436C106.382 20.9486 106.227 20.7995 106.222 20.6056C106.222 20.6007 106.222 20.5907 106.222 20.5858V16.0332C106.222 14.4975 105.373 13.0015 103.709 13.0015C101.594 13.0015 100.725 14.7062 100.803 16.9775C100.803 17.0322 100.822 17.1266 100.803 17.1614V20.5808C100.803 20.7647 100.667 20.9337 100.488 20.9585C100.298 20.9834 100.129 20.8492 100.104 20.6553C100.104 20.6355 100.099 20.6206 100.099 20.6007V12.8276C100.099 12.6437 100.235 12.4747 100.415 12.4499C100.633 12.43 100.803 12.589 100.803 12.8027V14.0999C101.4 13.0065 102.467 12.2908 103.709 12.2908C105.121 12.2908 106.222 13.2152 106.669 14.5522C107.246 13.2252 108.362 12.2908 109.798 12.2908C111.84 12.3008 113 14.1098 113 16.0432Z" fill="#D9D9D9"/>
<path d="M8.68447 10.7302L0 14.7709L8.68447 20.0341L17.3786 14.7709L8.68447 10.7302Z" fill="#D9D9D9"/>
<path d="M0 14.7709L8.68447 20.0341L8.68447 0L0 14.7709Z" fill="#D9D9D9"/>
<path d="M8.68447 0L8.68447 20.0341L17.3786 14.7709L8.68447 0Z" fill="#D9D9D9"/>
<path d="M0 16.4606L8.68447 29V21.7139L0 16.4606Z" fill="#D9D9D9"/>
<path d="M8.68447 21.7139V29L17.3786 16.4606L8.68447 21.7139Z" fill="#D9D9D9"/>
</g>
</svg>
