<svg width="92" height="24" viewBox="0 0 92 24" fill="none" xmlns="http://www.w3.org/2000/svg">
<path d="M12.951 0C5.79956 0 0 5.37367 0 12C0 18.6263 5.79956 24 12.951 24C20.1025 24 25.9021 18.6263 25.9021 12C25.9021 5.37367 20.1064 0 12.951 0ZM13.1587 12.3958L11.8107 16.6076H19.0171C19.2208 16.6076 19.3854 16.7637 19.3854 16.9525C19.3854 16.9852 19.3815 17.0178 19.3697 17.0469L18.7428 19.0475C18.6801 19.2436 18.4841 19.3779 18.2647 19.3779H7.26513L9.12647 13.554L7.06919 14.1349L7.52375 12.7734L9.58495 12.1924L12.1987 4.0121C12.2574 3.81603 12.4495 3.67806 12.6728 3.67806H15.4629C15.6666 3.67806 15.8312 3.83056 15.8352 4.01937C15.8352 4.05204 15.8312 4.08108 15.8195 4.11376L13.625 11.0306L15.6823 10.4496L15.2395 11.833L13.1587 12.3958Z" fill="#D9D9D9"/>
<path d="M33.3906 3.64175H32.5833C32.4423 3.63449 32.3208 3.73252 32.313 3.86323V3.86686L30.24 19.1564C30.2243 19.3017 30.2753 19.3815 30.4399 19.3815H31.2432C31.3764 19.3997 31.4979 19.3162 31.5175 19.1927C31.5175 19.1818 31.5214 19.1673 31.5214 19.1564L33.6218 3.87412C33.6453 3.7071 33.5512 3.64175 33.3906 3.64175ZM37.5992 8.04961H36.7959C36.6587 8.03509 36.5372 8.1295 36.5216 8.25658C36.5216 8.26021 36.5216 8.26747 36.5216 8.2711L35.0246 19.1564C35.009 19.3053 35.103 19.3815 35.2519 19.3815H36.0552C36.1924 19.4033 36.3217 19.3162 36.3413 19.1891C36.3413 19.1782 36.3452 19.1673 36.3452 19.1564L37.8225 8.27836C37.8265 8.12949 37.7716 8.04961 37.5992 8.04961ZM72.7962 7.87171C70.6606 7.82814 68.7757 9.1643 68.2624 11.085C68.039 11.9492 67.8744 12.8278 67.7647 13.7138C67.6354 14.5852 67.561 15.4638 67.5414 16.3461C67.5218 17.2139 67.8823 18.0526 68.5406 18.6699C69.1911 19.2508 70.0845 19.5413 71.2209 19.5413C72.2594 19.5631 73.2743 19.2545 74.1011 18.6699C74.9123 18.0889 75.4883 17.272 75.7313 16.3461C75.9586 15.482 76.1231 14.6033 76.229 13.7174C76.3583 12.8387 76.4288 11.9528 76.4523 11.0632C76.4954 10.1955 76.1349 9.34947 75.4648 8.73949C74.7281 8.13676 73.772 7.8245 72.7962 7.87171ZM75.0612 12.6572C75.0103 13.0094 74.9672 13.3616 74.924 13.7138C74.7751 14.8357 74.638 15.6418 74.5243 16.121C74.3676 16.8073 73.964 17.4209 73.3762 17.8638C72.8041 18.2923 72.083 18.5247 71.3463 18.5138C70.0375 18.5936 68.905 17.6787 68.8188 16.466C68.811 16.3752 68.811 16.2844 68.8188 16.19C68.8267 15.7253 68.8619 15.2569 68.9286 14.7958C69.0069 14.2439 69.054 13.8917 69.0657 13.7392C69.2185 12.6608 69.3518 11.8584 69.4654 11.3356C69.6222 10.6493 70.0297 10.0357 70.6175 9.59273C71.1896 9.16429 71.9067 8.93192 72.6473 8.94281C73.9561 8.86294 75.0847 9.78154 75.1709 10.9942C75.1788 11.085 75.1788 11.1758 75.1709 11.2629C75.1631 11.7313 75.1278 12.1961 75.0612 12.6572ZM81.0371 8.04961H80.2377C80.0966 8.04235 79.9712 8.14039 79.9634 8.2711L78.4626 19.1564C78.439 19.3125 78.537 19.3815 78.6859 19.3815H79.4892C79.6303 19.3924 79.7518 19.2944 79.7635 19.1673C79.7635 19.1637 79.7635 19.1601 79.7635 19.1601L81.2409 8.27474C81.2605 8.1295 81.1938 8.04961 81.0371 8.04961ZM91.1707 8.69228C90.6181 8.15855 89.8462 7.89349 88.843 7.89349C88.2239 7.88623 87.6086 8.00604 87.0404 8.24205C86.484 8.47806 86.002 8.83751 85.6376 9.28774C85.5709 9.34583 85.5357 9.33131 85.5357 9.24054L85.6611 8.27474C85.6807 8.1404 85.6141 8.05325 85.4612 8.05325H84.6618C84.5208 8.04236 84.3993 8.14039 84.3875 8.26747C84.3875 8.2711 84.3875 8.27111 84.3875 8.27474L82.9102 19.1601C82.8906 19.3017 82.9455 19.3852 83.1101 19.3852H83.9134C84.0544 19.3961 84.1798 19.298 84.1877 19.1673C84.1877 19.1637 84.1877 19.1637 84.1877 19.1601L85.2614 11.361C85.4142 10.6856 85.8021 10.072 86.3625 9.61815C86.9111 9.17518 87.6165 8.93918 88.3453 8.95007C88.9801 8.92466 89.5993 9.15703 90.0382 9.58184C90.4771 10.0393 90.7043 10.6421 90.6652 11.2557C90.6691 11.4227 90.6612 11.5861 90.6377 11.7531L89.615 19.1637C89.5993 19.2182 89.615 19.2762 89.6541 19.3198C89.7012 19.367 89.7717 19.3924 89.8422 19.3888H90.6416C90.7827 19.3997 90.9042 19.3017 90.9159 19.1746C90.9159 19.1709 90.9159 19.1673 90.9159 19.1673L91.9426 11.5716C91.9779 11.2811 91.9936 11.0451 91.9936 10.8998C92.0484 10.0829 91.7506 9.29501 91.1707 8.69228ZM38.1282 3.64901C37.658 3.39485 37.0506 3.54372 36.7763 3.98306C36.502 4.41876 36.6626 4.98154 37.1368 5.2357C37.1564 5.24659 37.176 5.25749 37.1995 5.26475C37.6893 5.48623 38.281 5.30106 38.5201 4.8472C38.7473 4.4115 38.5788 3.89228 38.1282 3.64901ZM81.6131 3.64901C81.139 3.40211 80.5355 3.55824 80.269 3.99757C80.0026 4.43691 80.1711 4.99607 80.6452 5.24297C80.6609 5.25023 80.6805 5.26111 80.6962 5.26837C81.186 5.48986 81.7777 5.30106 82.0168 4.8472C82.244 4.4115 82.0677 3.88502 81.6131 3.64901ZM62.3296 7.87171C61.2794 7.84992 60.2566 8.16581 59.4259 8.76127C58.6147 9.34221 58.0426 10.1628 57.7997 11.085C57.5802 11.9528 57.4117 12.8278 57.2981 13.7138C57.1727 14.5852 57.0943 15.4638 57.0708 16.3461C57.0473 17.2139 57.4117 18.0563 58.074 18.6699C58.7245 19.2508 59.6179 19.5413 60.7504 19.5413C61.7888 19.5631 62.8037 19.2545 63.6306 18.6699C64.4457 18.0926 65.0178 17.272 65.2568 16.3461L65.3234 16.0992C65.3391 16.0448 65.2999 15.9867 65.2411 15.9758C65.2333 15.9722 65.2215 15.9722 65.2137 15.9722H64.2262C64.1557 15.9685 64.093 16.0157 64.0734 16.0775V16.121C63.9166 16.8073 63.5091 17.4209 62.9213 17.8638C62.3492 18.2923 61.6321 18.5247 60.8954 18.5138C59.5866 18.5936 58.4541 17.6787 58.3679 16.466C58.36 16.3752 58.36 16.2844 58.3679 16.19C58.3757 15.7253 58.411 15.2569 58.4776 14.7958C58.5246 14.4436 58.5716 14.0914 58.6147 13.7392C58.7676 12.6608 58.8969 11.8584 59.0144 11.3356C59.1634 10.6457 59.567 10.0284 60.1508 9.58184C60.723 9.1534 61.4401 8.92466 62.1768 8.93192C63.4856 8.84841 64.6181 9.76701 64.7043 10.9797C64.7121 11.0705 64.7121 11.1649 64.7043 11.2557V11.2702C64.7004 11.3646 64.7787 11.4445 64.8845 11.4481C64.8885 11.4481 64.8885 11.4481 64.8924 11.4481H65.8328C65.9112 11.4517 65.9778 11.3936 65.9818 11.321V11.0523C66.0249 10.1809 65.6643 9.33858 64.9903 8.72859C64.2615 8.12587 63.3053 7.81724 62.3296 7.87171ZM54.2455 8.74675C53.5166 8.14039 52.5566 7.82814 51.5808 7.87534C49.4452 7.83177 47.5603 9.16793 47.047 11.0887C46.8236 11.9564 46.659 12.8315 46.5493 13.7174C46.4043 14.5888 46.3259 15.4675 46.322 16.3498C46.3024 17.2175 46.6629 18.0563 47.3213 18.6735C47.9718 19.2545 48.8652 19.5449 49.9977 19.5449C51.0361 19.5667 52.0511 19.2581 52.8779 18.6735C53.693 18.0962 54.269 17.2756 54.508 16.3498L54.5746 16.1029C54.5903 16.0484 54.555 15.9903 54.4924 15.9758C54.4845 15.9722 54.4728 15.9722 54.4649 15.9722H53.4696C53.3991 15.9722 53.3364 16.0157 53.3168 16.0811V16.1247C53.16 16.8109 52.7564 17.4245 52.1647 17.8675C51.5887 18.2923 50.8676 18.5174 50.127 18.4992C48.8182 18.5791 47.6896 17.6605 47.5995 16.4478C47.5917 16.357 47.5917 16.2663 47.5995 16.1755C47.6034 15.7688 47.6348 15.3622 47.6896 14.9591L54.9234 12.8859C55.0606 12.8569 55.1546 12.7443 55.1546 12.6172C55.1977 12.2687 55.2251 11.6805 55.233 11.0741C55.2604 10.2064 54.9038 9.36762 54.2455 8.74675ZM53.9594 11.8802C53.9594 11.9455 53.9085 12.0036 53.8419 12.0218L47.8464 13.7392V13.7138C47.9953 12.6354 48.1324 11.833 48.2461 11.3101C48.4028 10.6239 48.8104 10.0103 49.3942 9.56732C49.9663 9.13888 50.6874 8.91013 51.4241 8.9174C52.1098 8.89198 52.7721 9.13162 53.258 9.57822C53.9986 10.2499 54.0025 10.9688 53.9594 11.8802ZM43.5868 18.1797C43.6809 18.1325 43.7984 18.1652 43.8494 18.2523C43.869 18.285 43.8768 18.3177 43.8729 18.354L43.7749 19.1056C43.7593 19.2036 43.6887 19.2871 43.5907 19.3234C42.7874 19.6212 41.894 19.6321 41.0828 19.3561C40.1659 18.9676 39.9308 18.1289 40.064 17.0796L41.122 9.1062L41.2709 7.95884L41.6197 5.42087C41.6236 5.29379 41.7372 5.19213 41.8783 5.19576C41.8862 5.19576 41.8901 5.19576 41.8979 5.19576H42.6738C42.858 5.19576 42.8972 5.29016 42.8736 5.42087L42.3956 9.01906H44.9035C45.0485 9.01906 45.1151 9.09893 45.1033 9.24054L45.0328 9.75612C45.0328 9.82148 45.0054 9.88321 44.9583 9.93041C44.8996 9.96672 44.829 9.98487 44.7585 9.98124H42.2506L41.3728 16.5204C41.2827 17.2248 41.1808 17.8566 41.5687 18.2051C42.0938 18.6191 43.0735 18.4012 43.5868 18.1797Z" fill="#D9D9D9"/>
</svg>
