<svg width="39" height="25" viewBox="0 0 39 25" fill="none" xmlns="http://www.w3.org/2000/svg">
<path d="M37.4732 12.2712C37.4732 18.4951 32.4264 23.5419 26.2025 23.5419C23.676 23.5419 21.2246 22.6934 19.2366 21.1312C16.516 18.996 14.9287 15.7307 14.9318 12.2712C14.9287 8.81172 16.516 5.54636 19.2366 3.41119C24.1299 -0.436485 31.2148 0.411946 35.0625 5.30529C36.6247 7.29331 37.4732 9.74468 37.4732 12.2712Z" stroke="#D9D9D9" stroke-width="2" stroke-miterlimit="10"/>
<path d="M23.5413 12.2712C23.5413 18.4951 18.4946 23.5419 12.2707 23.5419C9.74416 23.5419 7.29279 22.6934 5.30477 21.1312C2.58416 18.996 0.996874 15.7307 1 12.2712C0.996874 8.81172 2.58416 5.54636 5.30477 3.41119C10.1981 -0.436485 17.283 0.411946 21.1307 5.30529C22.6929 7.29331 23.5413 9.74468 23.5413 12.2712Z" stroke="#D9D9D9" stroke-width="2" stroke-miterlimit="10"/>
</svg>
