<svg width="119" height="21" viewBox="0 0 119 21" fill="none" xmlns="http://www.w3.org/2000/svg">
<path d="M21.4346 9.37888C21.4204 8.9492 21.226 8.72695 20.8466 8.71213H18.8264C18.3475 8.74177 18.1009 9.01341 18.0914 9.52705V13.3053C18.1009 13.8337 18.3759 14.1054 18.907 14.1202H20.7565C20.9509 14.1202 21.1074 14.0461 21.2354 13.893C21.3682 13.7794 21.4299 13.6312 21.4299 13.4534V9.37888H21.4346ZM15.5069 8.84055C15.5211 7.89229 15.7203 7.17615 16.1139 6.68227C16.3178 6.47483 16.5786 6.30197 16.8869 6.16368C17.2141 6.01058 17.5271 5.9365 17.8306 5.9365H21.5342C23.1702 5.95132 24.0001 6.87982 24.0238 8.73189V14.4214C24.0096 15.0783 23.763 15.6463 23.2888 16.1254C22.8146 16.6242 22.2503 16.881 21.5958 16.8958H18.0914V21H15.5069V8.84055Z" fill="#D9D9D9"/>
<path d="M28.7044 13.5769C28.7044 13.735 28.7755 13.8584 28.913 13.9523C29.0363 14.0659 29.1881 14.1251 29.3825 14.1251H31.3742C31.8247 14.1251 32.0571 13.9424 32.0713 13.5769V12.8015C32.0713 12.3768 31.8342 12.1644 31.3552 12.1644H29.3825C29.1217 12.1644 28.9415 12.2088 28.8419 12.2928C28.7518 12.3916 28.7044 12.5891 28.7044 12.8855V13.5769ZM32.0666 9.30974C32.0808 8.89488 31.8484 8.69732 31.3695 8.71214H26.1531V5.94144H32.0286C33.7405 5.97107 34.6084 6.83043 34.6368 8.53434V14.3326C34.6226 15.0635 34.4044 15.671 33.9871 16.15C33.5508 16.6489 32.9865 16.9008 32.2942 16.9008H28.7423C27.0114 16.8859 26.1388 16.0611 26.1104 14.4313V12.194C26.1246 10.4852 26.9592 9.62088 28.619 9.59125H32.0666V9.30974Z" fill="#D9D9D9"/>
<path d="M41.916 18.2244C42.1199 18.2096 42.3002 18.1355 42.4424 17.9972C42.5799 17.8688 42.6511 17.7206 42.6511 17.5527V16.8958H39.3316C38.9 16.8958 38.5538 16.8365 38.293 16.723C38.018 16.6192 37.7477 16.4266 37.4774 16.15C37.2165 15.8587 37.0316 15.5524 36.9178 15.2314C36.7992 14.94 36.7423 14.5696 36.7423 14.1202V5.9365H39.3316V13.2411C39.3316 13.8288 39.5592 14.1202 40.0239 14.1202H41.8544C42.0725 14.1202 42.2622 14.0461 42.4187 13.893C42.5705 13.7646 42.6463 13.6115 42.6463 13.4337V5.9365H45.2166V18.012C45.2024 18.9059 44.9842 19.6221 44.5574 20.1653C44.1259 20.7086 43.5379 20.9852 42.7886 21H36.7423V18.2293H41.916" fill="#D9D9D9"/>
<path d="M47.2557 14.1251H51.8746C52.2966 14.1103 52.5148 13.9325 52.529 13.5967V13.3497C52.529 13.2756 52.51 13.1966 52.4674 13.1127C52.363 12.9052 52.2397 12.8015 52.088 12.8015H49.7975C49.1194 12.7867 48.5408 12.5447 48.0524 12.0755C47.5592 11.6409 47.3079 11.1075 47.2937 10.4802V8.41086C47.3221 6.79586 48.1615 5.97602 49.8212 5.94638H55.1751V8.71708H50.6369C50.1058 8.71708 49.8355 8.885 49.8355 9.22578V9.49247C49.8355 9.84313 50.1105 10.0209 50.6559 10.0209H52.9368C53.5438 10.0358 54.0655 10.2778 54.497 10.7519C54.9333 11.226 55.1609 11.794 55.1751 12.4508V14.4708C55.1609 15.0388 54.9096 15.6068 54.4211 16.1698C54.184 16.4464 53.9422 16.639 53.7003 16.7477C53.449 16.8464 53.1076 16.8958 52.676 16.8958H47.2557V14.1251Z" fill="#D9D9D9"/>
<path d="M59.6043 13.5769C59.6043 13.735 59.6755 13.8584 59.813 13.9523C59.9315 14.0659 60.088 14.1251 60.2825 14.1251H62.2742C62.7247 14.1251 62.957 13.9424 62.9713 13.5769V12.8015C62.9713 12.3768 62.7294 12.1644 62.2552 12.1644H60.2825C60.0216 12.1644 59.8462 12.2088 59.7466 12.2928C59.6565 12.3916 59.6043 12.5891 59.6043 12.8855V13.5769ZM62.9713 9.30974C62.9808 8.89488 62.7484 8.69732 62.2694 8.71214H57.053V5.94144H62.9286C64.6358 5.97107 65.5083 6.83043 65.532 8.53434V14.3326C65.5178 15.0635 65.2997 15.671 64.8824 16.15C64.4461 16.6489 63.8818 16.9008 63.1894 16.9008H59.6328C57.9066 16.8859 57.0293 16.0611 57.0056 14.4313V12.194C57.0151 10.4852 57.8545 9.62088 59.5142 9.59125H62.9618V9.30974" fill="#D9D9D9"/>
<path d="M67.6423 4.36594C67.6565 3.61524 67.9221 3.01764 68.4437 2.5682C68.9464 2.10889 69.6103 1.87677 70.426 1.86195H72.0715V4.53881H71.0756C70.5303 4.55362 70.2505 4.82526 70.2363 5.35371V5.94144H72.0715V8.71708H70.2363V16.9008H67.6423V4.36594Z" fill="#D9D9D9"/>
<path d="M79.4408 9.26035V9.19614C79.4408 9.05291 79.3839 8.93439 79.2748 8.84055C79.1563 8.75165 79.0045 8.71214 78.8291 8.71214H77.0271C76.7947 8.71214 76.6097 8.78128 76.4627 8.91957C76.2825 9.04798 76.1924 9.2159 76.1924 9.42333V10.5346L79.4408 9.26035ZM76.2304 13.1769V13.3497C76.2304 13.572 76.2873 13.7498 76.3963 13.8732C76.477 14.0362 76.586 14.1202 76.733 14.1202H82.0538V16.8909H76.3963C75.8795 16.8909 75.4764 16.8415 75.1918 16.7378C74.8789 16.6291 74.6038 16.4563 74.3572 16.2143C74.0727 15.9229 73.8783 15.6216 73.7787 15.3154C73.6696 14.9944 73.6174 14.5696 73.6174 14.0412L73.5937 8.49482C73.6222 6.82055 74.4615 5.96614 76.1166 5.9365H79.6115C81.2239 5.96614 82.0443 6.85019 82.068 8.58866V10.7815L76.2304 13.1769Z" fill="#D9D9D9"/>
<path d="M87.5594 16.8958C87.1658 16.8958 86.8102 16.8563 86.4829 16.7872C86.1415 16.7279 85.8048 16.5649 85.4586 16.2883C85.103 15.9673 84.8564 15.6018 84.7236 15.2067C84.5813 14.8116 84.5102 14.3671 84.5102 13.8683V8.69238C84.496 8.27258 84.5339 7.90217 84.6288 7.58114C84.7141 7.26012 84.8991 6.94897 85.1741 6.63782C85.4918 6.31679 85.8096 6.09948 86.151 5.99577C86.4782 5.91181 86.8481 5.86736 87.2607 5.86736H91.2299V6.51435H87.3508C86.6679 6.51435 86.1273 6.66251 85.7337 6.9539C85.3306 7.27493 85.1267 7.82314 85.1267 8.60348V13.7794C85.1267 14.1449 85.1789 14.5005 85.2879 14.8413C85.397 15.1771 85.5772 15.4734 85.838 15.7302C86.1225 15.9525 86.4023 16.0908 86.6774 16.15C86.9619 16.2142 87.2701 16.2488 87.5926 16.2488H91.2962V16.8958H87.5594Z" fill="#D9D9D9"/>
<path d="M101.449 10.1839H96.2423C95.6211 10.1987 95.1327 10.4012 94.777 10.7865C94.4118 11.1816 94.2317 11.7199 94.2317 12.4015V14.051C94.2317 14.3721 94.2648 14.6635 94.3312 14.9252C94.3976 15.2018 94.5589 15.4487 94.8197 15.6611C95.2702 16.0513 95.7681 16.2389 96.3135 16.2389H99.467C100.785 16.2241 101.449 15.5031 101.449 14.0658V10.1839ZM102.066 13.9127C102.066 14.3276 102.037 14.6931 101.985 15.0191C101.9 15.3697 101.729 15.7055 101.468 16.0266C100.923 16.6242 100.249 16.9156 99.448 16.9008H96.3514C95.5452 16.9008 94.8956 16.6489 94.3881 16.15C93.8712 15.6562 93.6104 14.9746 93.6104 14.0955V12.4262C93.6341 10.5445 94.5351 9.58137 96.3087 9.53692H101.468V8.80597C101.468 8.20343 101.302 7.67992 100.97 7.22554C100.757 6.92921 100.51 6.7366 100.226 6.63288C99.9412 6.55386 99.6188 6.51435 99.2583 6.51435H93.6341V5.86736H98.9691C99.4575 5.86736 99.8985 5.90193 100.297 5.97107C100.501 6.01552 100.69 6.09454 100.861 6.21801C101.041 6.33161 101.212 6.49953 101.373 6.72178C101.852 7.36383 102.085 8.10466 102.075 8.93933V13.9127" fill="#D9D9D9"/>
<path d="M107.889 6.51435C106.447 6.54398 105.731 7.36383 105.76 8.97884V16.8958H105.139V8.98377C105.11 6.90452 106.059 5.86736 107.989 5.86736H108.676V6.51435H107.889Z" fill="#D9D9D9"/>
<path d="M118.379 6.51928H113.471C113.115 6.51928 112.802 6.5588 112.513 6.63782C112.214 6.70696 111.925 6.89464 111.654 7.20578C111.394 7.4873 111.232 7.76388 111.166 8.04045C111.076 8.32197 111.033 8.65781 111.047 9.04798V14.0955C111.047 14.9351 111.28 15.508 111.754 15.8142C111.986 15.9574 112.242 16.0611 112.532 16.1352C112.816 16.2143 113.139 16.2538 113.49 16.2538H115.633C116.434 16.2538 117.089 16.0611 117.592 15.6759C118.099 15.3104 118.355 14.6832 118.374 13.7893V6.51928H118.379ZM118.995 13.8337C118.938 15.9229 117.881 16.9452 115.813 16.9057H113.513C113.03 16.9057 112.593 16.8612 112.209 16.7773C111.816 16.6686 111.436 16.4217 111.071 16.0266C110.796 15.6759 110.621 15.3203 110.549 14.9548C110.455 14.5894 110.412 14.1844 110.426 13.7448V9.03316C110.455 6.90946 111.479 5.85748 113.509 5.87229H118.379V2.29657H119V13.8337" fill="#D9D9D9"/>
<path d="M1.11441 5.52164C1.31832 5.4278 1.52224 5.35372 1.72615 5.30927C2.10078 3.44732 3.67992 2.05456 5.57679 2.05456C7.47366 2.05456 9.05754 3.45226 9.42743 5.30927C10.0107 5.42286 10.4897 5.6698 10.8643 6.03528C10.8785 5.67968 10.8643 5.33397 10.8264 5.01294C10.5845 2.20273 8.32251 0 5.56731 0C2.72675 0 0.417311 2.34596 0.294015 5.2747C0.279788 5.52658 0.270304 5.79327 0.279788 6.06491C0.521639 5.85748 0.791942 5.66981 1.11441 5.52164Z" fill="#D9D9D9"/>
<path d="M8.6592 5.94144H2.3284C2.02491 5.94144 1.70718 6.01552 1.38471 6.16863C1.07173 6.31186 0.815653 6.48472 0.606998 6.68721C0.213398 7.1811 0.0142265 7.89723 0 8.84549V13.9967C0.0142265 14.945 0.213398 15.6611 0.606998 16.15C0.810911 16.3575 1.07173 16.5303 1.38471 16.6736C1.71192 16.8217 2.02491 16.8958 2.3284 16.8958H8.65446C10.2905 16.881 11.1204 15.9476 11.1441 14.1004V8.73189C11.1251 6.88476 10.2905 5.95625 8.6592 5.94144Z" fill="#D9D9D9"/>
</svg>
