<svg width="82" height="24" viewBox="0 0 82 24" fill="none" xmlns="http://www.w3.org/2000/svg">
<path d="M29.8794 9.06717C29.6616 8.98826 29.2027 8.95068 28.7438 8.95068C27.3632 8.95068 25.897 10.0817 25.897 11.4833V18.1494H22.7702V6.24894H25.7959V7.44387C26.4998 6.56083 27.7754 6.00094 29.191 6.00094C29.6499 6.00094 29.9183 6.05355 30.2527 6.10615C30.2488 6.10615 29.8794 9.06717 29.8794 9.06717ZM33.4262 0C34.5618 0 35.4679 0.883044 35.4679 2.04039C35.4679 3.19775 34.5501 4.08079 33.4262 4.08079C32.3022 4.08079 31.3844 3.19775 31.3844 2.04039C31.3844 0.883044 32.2906 0 33.4262 0ZM34.9818 18.1231H31.855V6.24894H34.9818V18.1231ZM44.2221 6.00094C42.8959 6.00094 41.7214 6.44434 40.7997 7.19587V6.23767H37.7896V24H40.9164V17.2814C41.7914 17.9915 42.8998 18.3748 44.0432 18.3598C45.7777 18.3598 47.4383 17.582 48.4728 16.3457C49.3906 15.2673 49.9389 13.798 49.9389 12.1747C49.9545 8.69141 47.3994 6.00094 44.2221 6.00094ZM43.8526 15.489C41.912 15.489 40.6364 14.1249 40.6364 12.2161C40.6364 10.3072 41.912 8.94316 43.8526 8.94316C45.5132 8.94316 46.851 10.4124 46.851 12.2161C46.851 14.0197 45.5132 15.489 43.8526 15.489ZM68.9446 18.1231H65.8178V0.728981H68.9446V18.1231ZM81.7083 16.2405C80.5727 17.6195 78.7215 18.3711 76.9209 18.3711C73.4364 18.3711 70.8074 15.9173 70.8074 12.201C70.8074 8.8868 73.028 6.0047 76.4854 6.0047C79.7171 6.0047 82 8.77031 82 12.0845C82 12.4077 81.9767 12.7196 81.9261 12.9939H73.8331C73.9964 14.6585 75.3264 15.8121 76.9871 15.8121C78.3132 15.8121 79.3749 15.0568 79.9233 14.4331L81.7083 16.2405ZM78.7993 10.6529C78.6982 9.60075 77.7688 8.57492 76.4893 8.57492C75.1864 8.57492 74.1286 9.57445 73.9886 10.6529H78.7993ZM58.2381 6.00094C56.9081 6.00094 55.7336 6.44434 54.8158 7.19587V6.23767H51.8018V24H54.9285V17.2814C55.8036 17.9915 56.9119 18.3748 58.0553 18.3598C59.7898 18.3598 61.4504 17.582 62.4849 16.3457C63.4027 15.2673 63.955 13.798 63.955 12.1747C63.9666 8.69141 61.4154 6.00094 58.2381 6.00094ZM57.8531 15.489C55.9125 15.489 54.6369 14.1249 54.6369 12.2161C54.6369 10.3072 55.9125 8.94316 57.8531 8.94316C59.5137 8.94316 60.8515 10.4124 60.8515 12.2161C60.8671 14.0197 59.5137 15.489 57.8531 15.489Z" fill="#D9D9D9"/>
<path d="M16.3339 13.798C15.63 13.3809 14.8288 13.2644 14.051 13.2381C13.386 13.2118 12.406 12.7835 12.406 11.5622C12.406 10.6529 13.1332 9.91263 14.051 9.88633C14.8444 9.86003 15.6339 9.74354 16.3378 9.32644C17.625 8.57116 18.4184 7.16956 18.4184 5.64772C18.4184 4.12588 17.625 2.72428 16.3378 1.969C15.0544 1.21747 13.4482 1.21747 12.1648 1.969C10.862 2.70925 10.0726 4.11461 10.0726 5.63269C10.0726 6.45185 10.3642 7.21841 10.722 7.92109C11.0293 8.50728 11.1809 9.60827 10.1231 10.232C9.32975 10.698 8.34972 10.4011 7.8636 9.60827C7.45525 8.93189 6.94579 8.29685 6.24188 7.89479C4.9585 7.14326 3.35233 7.14326 2.06896 7.89479C0.79336 8.63504 0 10.0404 0 11.5585C0 13.0766 0.79336 14.4819 2.09229 15.2372C3.38345 15.9925 4.97794 15.9925 6.26521 15.2372C6.96912 14.8201 7.46303 14.1963 7.88693 13.5237C8.22916 12.9638 9.07308 12.2649 10.1465 12.8887C10.9398 13.3546 11.1809 14.3692 10.7337 15.1996C10.3642 15.9023 10.0803 16.6538 10.0803 17.488C10.0803 19.0099 10.8737 20.4115 12.161 21.1667C13.4482 21.922 15.0427 21.922 16.3339 21.1667C17.625 20.4115 18.4145 19.0099 18.4145 17.488C18.4145 15.9662 17.625 14.5646 16.3339 13.798Z" fill="#D9D9D9"/>
</svg>
