<svg width="63" height="21" viewBox="0 0 63 21" fill="none" xmlns="http://www.w3.org/2000/svg">
<path fill-rule="evenodd" clip-rule="evenodd" d="M45.254 5.12403C46.6809 5.12403 47.8399 4.00932 47.8399 2.63701C47.8399 1.26471 46.6809 0.149994 45.254 0.149994C43.8271 0.149994 42.668 1.26471 42.668 2.63701C42.668 4.00932 43.8271 5.12403 45.254 5.12403ZM25.4484 6.46525C25.333 6.74504 24.4926 9.02777 22.4608 11.3949V1.28248L17.0487 2.30837V20.6368H22.4608V14.97C24.0262 17.2305 24.802 20.6368 24.802 20.6368H31.2853C30.6434 18.0743 27.8404 13.3445 27.8404 13.3445C30.3571 10.2757 31.4654 7.00262 31.6408 6.46081H25.4484V6.46525ZM39.6757 6.27428C34.8271 6.42528 32.3658 8.51704 32.3658 12.6739V20.6413H37.6532V14.1439C37.6532 11.6525 37.9903 10.5866 41.0657 10.4844V6.34534C40.5485 6.23875 39.6757 6.27428 39.6757 6.27428ZM7.97486 8.48151C7.3099 8.44154 5.77681 8.34384 5.77681 7.01595C5.77681 5.41271 7.9841 5.41271 8.81529 5.41271C10.2745 5.41271 12.1585 5.82573 13.5069 6.21654C13.5069 6.21654 14.2596 6.46969 14.8969 6.73172L14.9569 6.74504V2.35278L14.8738 2.33058C13.2853 1.7932 11.4336 1.28248 8.00718 1.28248C2.09646 1.28248 0 4.59554 0 7.43341C0 9.06774 0.729606 12.9182 7.49923 13.3623C8.07183 13.3978 9.59569 13.4822 9.59569 14.8545C9.59569 15.987 8.3489 16.6576 6.25244 16.6576C3.95279 16.6576 1.72242 16.0936 0.36942 15.5606V20.0817C2.39661 20.5924 4.6824 20.85 7.3607 20.85C13.1421 20.85 15.7281 17.7146 15.7281 14.6102C15.7327 11.084 12.8327 8.79683 7.97486 8.48151ZM42.6311 20.6368H47.8769V6.47857H42.6311V20.6368ZM57.7542 2.18402V20.6368H63V1.28248L57.7542 2.18402ZM50.098 2.18402L55.3392 1.28248V20.6368H50.098V2.18402Z" fill="#D9D9D9"/>
</svg>
