<svg width="82" height="23" viewBox="0 0 82 23" fill="none" xmlns="http://www.w3.org/2000/svg">
<path d="M12.4081 10.1688V12.075C12.3275 12.0829 11.9052 12.1183 11.0529 12.1183C10.3426 12.1183 9.83203 12.0868 9.65159 12.075V10.1649C6.91429 10.287 4.87187 10.7793 4.87187 11.3621C4.87187 11.949 6.91429 12.4373 9.65159 12.5594C9.82819 12.5673 10.3273 12.5909 11.0375 12.5909C11.9282 12.5909 12.3275 12.5673 12.4042 12.5594C15.1339 12.4334 17.1725 11.945 17.1725 11.3621C17.1763 10.7793 15.1377 10.2909 12.4081 10.1688Z" fill="#D9D9D9"/>
<path d="M11.2103 0C5.01775 0 0 5.14743 0 11.5C0 17.8526 5.01775 23 11.2103 23C17.4028 23 22.4205 17.8526 22.4205 11.5C22.4205 5.14743 17.4028 0 11.2103 0ZM12.4081 13.0281V18.5063H9.65158V13.0281C6.5534 12.8784 4.22304 12.2522 4.22304 11.4961C4.22304 10.7399 6.5534 10.1137 9.65158 9.96798V8.25873H5.83932V5.65548H16.2165V8.25873H12.4042V9.96798C15.4986 10.1137 17.8212 10.7438 17.8212 11.4961C17.8251 12.2562 15.5024 12.8824 12.4081 13.0281Z" fill="#D9D9D9"/>
<path d="M31.6536 6.62034V9.47565H34.2681V11.6181H31.6344V15.9621C31.6344 16.9231 32.1335 17.3878 32.8629 17.3878C33.2277 17.3878 33.65 17.2657 33.9955 17.0806L34.6481 19.1994C33.9763 19.483 33.4196 19.6051 32.7094 19.6287C30.6554 19.7114 29.3079 18.4669 29.3079 15.9582V11.6142H27.5419V9.47171H29.3079V6.88421L31.6536 6.62034ZM76.7174 9.34174L76.8901 10.5036C77.6196 9.25904 78.6024 9.07787 79.5621 9.07787C80.5411 9.07787 81.4817 9.48352 82 10.0349L80.9442 12.1971C80.4643 11.7678 80.0229 11.5433 79.255 11.5433C78.0265 11.5433 76.8901 12.2364 76.8901 14.0914V19.3924H74.5444V9.3378L76.7174 9.34174ZM70.974 13.1974C70.8204 11.8938 69.8607 11.24 68.5131 11.24C67.2462 11.24 66.2058 11.8938 65.8603 13.1974H70.974ZM65.8219 15.2532C65.9755 16.4977 66.9928 17.3957 68.6475 17.3957C69.5113 17.3957 70.6438 17.0491 71.1852 16.4584L72.6824 18.0298C71.6842 19.1286 70.0488 19.6602 68.6091 19.6602C65.342 19.6602 63.3994 17.5178 63.3994 14.2962C63.3994 11.2361 65.3612 9.03455 68.4363 9.03455C71.6075 9.03455 73.5885 11.114 73.2199 15.2532H65.8219ZM55.487 5.11983V10.7044C56.3316 9.5426 57.3681 9.19602 58.4469 9.19602C61.1382 9.19602 62.3283 11.1337 62.3283 14.0914V19.3924H59.9826V14.1111C59.9826 12.2758 59.0804 11.5 57.8288 11.5C56.4429 11.5 55.4831 12.7445 55.4831 14.2529V19.3924H53.1412V5.12376L55.487 5.11983ZM49.2637 6.50612V9.36143H51.8782V11.5039H49.2445V15.8479C49.2445 16.8089 49.7436 17.2736 50.473 17.2736C50.8378 17.2736 51.2601 17.1515 51.6056 16.9664L52.2582 19.0852C51.5864 19.3688 51.0297 19.4909 50.3195 19.5145C48.2655 19.5972 46.918 18.3527 46.918 15.844V11.5H45.152V9.35749H46.918V6.76999L49.2637 6.50612ZM42.7871 13.1974C42.6335 11.8938 41.6738 11.24 40.3262 11.24C39.0593 11.24 38.0189 11.8938 37.6734 13.1974H42.7871ZM37.6388 15.2532C37.7924 16.4977 38.8098 17.3957 40.4644 17.3957C41.3282 17.3957 42.4608 17.0491 43.0021 16.4584L44.4994 18.0298C43.5012 19.1286 41.8657 19.6602 40.426 19.6602C37.1589 19.6602 35.2163 17.5178 35.2163 14.2962C35.2163 11.2361 37.1781 9.03455 40.2494 9.03455C43.4206 9.03455 45.3977 11.114 45.033 15.2532H37.6388Z" fill="#D9D9D9"/>
</svg>
