<svg width="116" height="27" viewBox="0 0 116 27" fill="none" xmlns="http://www.w3.org/2000/svg">
<path d="M33.9429 6.56955H34.8824C35.123 6.56955 35.3174 6.75436 35.3174 6.98317V14.9916C35.3174 17.5218 36.7614 19.1191 39.4411 19.1191C42.1254 19.1191 43.5648 17.5218 43.5648 14.9916V6.98317C43.5648 6.75436 43.7592 6.56955 43.9998 6.56955H44.9394C45.18 6.56955 45.3744 6.75436 45.3744 6.98317V15.0136C45.3744 18.4591 43.3889 20.6548 39.4411 20.6548C35.4933 20.6548 33.5078 18.437 33.5078 15.0312V6.97877C33.5032 6.75435 33.6976 6.56955 33.9429 6.56955ZM48.1513 17.4778C48.2901 17.3106 48.5586 17.293 48.7206 17.4426C49.6971 18.3446 51.155 19.1191 53.0016 19.1191C55.598 19.1191 56.4264 17.7902 56.4264 16.7297C56.4264 15.0665 54.6631 14.6132 52.7424 14.116C50.4098 13.5352 47.8088 12.9147 47.8088 10.1954C47.8088 7.91602 49.947 6.35833 52.8072 6.35833C54.8621 6.35833 56.4866 6.95676 57.6853 8.00843C57.8565 8.15804 57.875 8.40886 57.7223 8.58047L57.153 9.24051C57.0142 9.40332 56.7597 9.41651 56.5977 9.2713C55.5332 8.32524 54.1309 7.88962 52.673 7.88962C50.9235 7.88962 49.6832 8.78287 49.6832 10.0854C49.6832 11.4758 51.3632 11.8895 53.2191 12.3647C55.598 12.9675 58.3008 13.6716 58.3008 16.5801C58.3008 18.5911 56.8568 20.646 52.9322 20.646C50.5811 20.646 48.8131 19.8583 47.6098 18.7143C47.4524 18.5647 47.4385 18.327 47.5774 18.1642L48.1513 17.4778ZM60.4575 6.98317C60.4575 6.75436 60.6519 6.56955 60.8926 6.56955H65.4282C69.9453 6.56955 72.8934 9.57492 72.8934 13.5C72.8934 17.4426 69.9499 20.4084 65.4282 20.4084H60.8926C60.6519 20.4084 60.4575 20.2236 60.4575 19.9947V6.98317ZM65.4374 18.8727C68.9733 18.8727 71.0236 16.4657 71.0236 13.5C71.0236 10.5078 69.0381 8.10523 65.4374 8.10523H62.2764V18.8727H65.4374ZM91.008 15.3877C91.008 12.4835 93.0166 10.1382 96.2239 10.1382C99.4312 10.1382 101.44 12.4835 101.44 15.3877C101.44 18.2918 99.4312 20.6592 96.2239 20.6592C93.0166 20.6592 91.008 18.2874 91.008 15.3877ZM99.7135 15.3877C99.7135 13.3548 98.4732 11.5286 96.2239 11.5286C93.9746 11.5286 92.7111 13.3548 92.7111 15.3877C92.7111 17.4426 93.9746 19.2687 96.2239 19.2687C98.4732 19.2687 99.7135 17.4426 99.7135 15.3877ZM103.013 7.6476C103.013 7.06677 103.513 6.60915 104.106 6.60915C104.717 6.60915 105.221 7.06237 105.221 7.6476C105.221 8.22844 104.721 8.70807 104.106 8.70807C103.513 8.70807 103.013 8.22844 103.013 7.6476ZM103.731 10.3846H104.494C104.735 10.3846 104.929 10.5694 104.929 10.7982V19.9947C104.929 20.2236 104.735 20.4084 104.494 20.4084H103.731C103.49 20.4084 103.296 20.2236 103.296 19.9947V10.7982C103.296 10.5694 103.49 10.3846 103.731 10.3846ZM114.357 13.852C114.357 12.0875 113.417 11.5286 112.001 11.5286C110.715 11.5286 109.488 12.2767 108.877 13.0863V19.9947C108.877 20.2236 108.683 20.4084 108.442 20.4084H107.683C107.443 20.4084 107.248 20.2236 107.248 19.9947V10.7982C107.248 10.5694 107.443 10.3846 107.683 10.3846H108.447C108.688 10.3846 108.882 10.5694 108.882 10.7982V11.8367C109.622 11.005 111.066 10.1382 112.635 10.1382C114.838 10.1382 116 11.1986 116 13.3723V19.9903C116 20.2192 115.806 20.404 115.565 20.404H114.801C114.561 20.404 114.366 20.2192 114.366 19.9903V13.8564H114.357V13.852ZM77.031 13.5C77.031 9.24491 80.3262 6.34513 84.4545 6.34513C86.8982 6.34513 88.6152 7.35719 89.7723 8.74328C89.9157 8.91929 89.8648 9.1789 89.6612 9.2889L88.8466 9.71573C88.6615 9.81694 88.4301 9.76853 88.2959 9.61452C87.435 8.59806 86.0373 7.88522 84.4545 7.88522C81.3305 7.88522 78.91 10.2086 78.91 13.5088C78.91 16.7869 81.3305 19.1323 84.4545 19.1323C86.042 19.1323 87.4397 18.4326 88.2959 17.403C88.4301 17.2446 88.6569 17.2006 88.8466 17.2974L89.6704 17.7242C89.8833 17.8342 89.9342 18.0982 89.7815 18.2742C88.5782 19.6735 86.8982 20.668 84.4545 20.668C80.3308 20.6548 77.031 17.755 77.031 13.5Z" fill="#D9D9D9"/>
<path d="M14.1992 0C6.35908 0 0 6.04156 0 13.5C0 20.954 6.35445 27 14.1992 27C22.0439 27 28.3983 20.9584 28.3983 13.5C28.3983 6.04596 22.0439 0 14.1992 0ZM11.538 22.8858C11.538 23.2026 11.2742 23.383 10.9548 23.2862C6.65991 21.9837 3.54979 18.1555 3.54979 13.6408C3.54979 9.12614 6.65991 5.29791 10.9548 3.99543C11.2788 3.89863 11.538 4.07904 11.538 4.39586V5.1791C11.538 5.39032 11.3667 5.64114 11.1538 5.70714C7.75678 6.89081 5.32238 9.99299 5.32238 13.632C5.32238 17.2666 7.75678 20.3688 11.1538 21.5569C11.3667 21.6317 11.538 21.8737 11.538 22.0849V22.8858ZM15.0924 19.9684H15.0878C15.0878 20.2016 14.8888 20.3908 14.6435 20.3908H13.7595C13.5142 20.3908 13.3152 20.2016 13.3152 19.9684V18.6351C11.376 18.3843 10.4319 17.3546 10.1727 15.9509C10.1264 15.7133 10.33 15.4977 10.5846 15.4977H11.5981C11.811 15.4977 11.9869 15.6385 12.0332 15.8409C12.2229 16.677 12.7274 17.3194 14.2825 17.3194C15.4303 17.3194 16.2402 16.7122 16.2402 15.8013C16.2402 14.8905 15.7635 14.5473 14.0788 14.2832C11.5935 13.9664 10.4226 13.2492 10.4226 11.3967C10.4226 9.96659 11.5565 8.85772 13.3198 8.61571V7.30883C13.3198 7.07561 13.5188 6.88641 13.7641 6.88641H14.6481C14.8934 6.88641 15.0924 7.07561 15.0924 7.30883V8.65531C16.5225 8.89732 17.4296 9.67177 17.7258 10.9522C17.7814 11.1943 17.5823 11.4231 17.3185 11.4231H16.3837C16.1846 11.4231 16.018 11.2955 15.9532 11.1107C15.7033 10.2966 15.0924 9.94458 14.0279 9.94458C12.8524 9.94458 12.2461 10.4858 12.2461 11.2427C12.2461 12.0435 12.5932 12.4439 14.3936 12.6947C16.8326 13.0116 18.0914 13.676 18.0914 15.6473C18.0914 17.1434 16.9205 18.3579 15.0924 18.6395V19.9684ZM17.4481 23.2862C17.1242 23.383 16.865 23.2026 16.865 22.8858V22.1025C16.865 21.8693 17.0131 21.6537 17.2491 21.5745C20.6462 20.3908 23.0806 17.2886 23.0806 13.6496C23.0806 10.0106 20.6462 6.9128 17.2491 5.72473C17.0362 5.64993 16.865 5.40792 16.865 5.19671V4.41346C16.865 4.09664 17.1288 3.91183 17.4481 4.01304C21.7431 5.31551 24.8532 9.14373 24.8532 13.6584C24.8485 18.1555 21.7384 21.9793 17.4481 23.2862Z" fill="#D9D9D9"/>
</svg>
