<svg width="63" height="20" viewBox="0 0 63 20" fill="none" xmlns="http://www.w3.org/2000/svg">
<path d="M36.5612 15.966C34.7413 15.9951 32.9444 15.5759 31.3311 14.7409L30.413 18.9806C32.2132 19.6706 34.1314 20.0156 36.0628 19.9995C41.4076 19.9962 44.8998 17.346 44.9457 13.3867C44.9752 8.27319 37.8203 7.99591 37.8203 5.70999C37.8367 5.02646 38.5024 4.28168 39.9845 4.09468C41.7093 3.93992 43.4406 4.24299 45.0047 4.96843L45.8933 0.860851C44.3686 0.296623 42.752 0.00644832 41.1223 0C36.0988 0 32.5313 2.63736 32.5313 6.39351C32.5313 9.17596 34.9905 10.6913 36.9743 11.6521C38.9581 12.6129 39.6107 13.2094 39.6107 14.0702C39.5221 15.3696 38.0433 15.966 36.5612 15.966Z" fill="#D9D9D9"/>
<path d="M13.2735 13.4899L11.1257 2.30205C10.9487 1.16715 9.95513 0.32564 8.78452 0.322416H0.118045L0 0.893092C1.73789 1.23485 3.42331 1.78618 5.02347 2.54064C5.70551 2.85661 6.16785 3.50466 6.23671 4.24622L10.2371 19.6996H15.5983L23.9107 0.380451H18.5757L13.2735 13.4899Z" fill="#D9D9D9"/>
<path d="M21.8351 19.6964H26.9766L31.1245 0.351433H26.0421L21.8351 19.6964Z" fill="#D9D9D9"/>
<path d="M54.5434 0.322416C53.5859 0.32564 52.7268 0.902765 52.3792 1.77974L44.7489 19.6964H50.0806L51.1463 16.7817H57.665L58.288 19.6964L63 19.6674L58.8979 0.322416H54.5434ZM52.5301 12.8515L55.2123 5.58424L56.7534 12.8515H52.5301Z" fill="#D9D9D9"/>
</svg>
