<svg width="71" height="18" viewBox="0 0 71 18" fill="none" xmlns="http://www.w3.org/2000/svg">
<path d="M0 0.191488H3.47074V14.4574H11.7527V17.8085H0V0.191488Z" fill="white"/>
<path d="M13.7661 9.02394C13.7661 7.81117 13.9975 6.66223 14.4603 5.57713C14.923 4.49202 15.5613 3.53457 16.3751 2.70479C17.2049 1.85904 18.1624 1.19681 19.2475 0.718084C20.3326 0.239361 21.4975 0 22.7422 0C23.9709 0 25.1278 0.239361 26.2129 0.718084C27.298 1.19681 28.2555 1.85904 29.0853 2.70479C29.931 3.53457 30.5853 4.49202 31.048 5.57713C31.5267 6.66223 31.7661 7.81117 31.7661 9.02394C31.7661 10.2686 31.5267 11.4335 31.048 12.5186C30.5853 13.6037 29.931 14.5612 29.0853 15.391C28.2555 16.2048 27.298 16.8431 26.2129 17.3059C25.1278 17.7686 23.9709 18 22.7422 18C21.4975 18 20.3326 17.7686 19.2475 17.3059C18.1624 16.8431 17.2049 16.2048 16.3751 15.391C15.5613 14.5612 14.923 13.6037 14.4603 12.5186C13.9975 11.4335 13.7661 10.2686 13.7661 9.02394ZM17.3565 9.02394C17.3565 9.80585 17.4922 10.5399 17.7634 11.2261C18.0507 11.8963 18.4416 12.4947 18.9363 13.0213C19.447 13.5319 20.0294 13.9309 20.6837 14.2181C21.3539 14.5053 22.0799 14.6489 22.8618 14.6489C23.6118 14.6489 24.306 14.5053 24.9443 14.2181C25.5986 13.9309 26.165 13.5319 26.6438 13.0213C27.1225 12.4947 27.4975 11.8963 27.7688 11.2261C28.04 10.5399 28.1757 9.80585 28.1757 9.02394C28.1757 8.22606 28.0321 7.48404 27.7448 6.79787C27.4736 6.1117 27.0906 5.5133 26.5959 5.00266C26.1172 4.47606 25.5507 4.06915 24.8964 3.78191C24.2422 3.49468 23.5321 3.35106 22.7661 3.35106C22.0001 3.35106 21.29 3.49468 20.6358 3.78191C19.9815 4.06915 19.4071 4.47606 18.9124 5.00266C18.4177 5.5133 18.0347 6.1117 17.7634 6.79787C17.4922 7.48404 17.3565 8.22606 17.3565 9.02394Z" fill="white"/>
<path d="M49.5163 16.0372C49.3088 16.2606 48.9817 16.492 48.5349 16.7314C48.0881 16.9548 47.5695 17.1622 46.979 17.3537C46.4046 17.5452 45.8141 17.6968 45.2078 17.8085C44.6014 17.9362 44.0269 18 43.4844 18C42.0482 18 40.7556 17.7926 39.6067 17.3777C38.4578 16.9468 37.4764 16.3564 36.6625 15.6064C35.8487 14.8404 35.2264 13.9388 34.7955 12.9016C34.3647 11.8644 34.1492 10.7314 34.1492 9.50266C34.1492 7.89096 34.3886 6.49468 34.8673 5.31383C35.362 4.11702 36.0243 3.12766 36.854 2.34574C37.6998 1.54787 38.6652 0.957446 39.7503 0.574468C40.8514 0.191489 42.0003 0 43.1971 0C44.3301 0 45.3673 0.127659 46.3088 0.382978C47.2503 0.622339 48.0482 0.925531 48.7024 1.29255L47.5774 4.52394C47.2902 4.36436 46.9072 4.20479 46.4285 4.04521C45.9498 3.88564 45.4631 3.75798 44.9684 3.66223C44.4737 3.55053 44.0349 3.49468 43.6519 3.49468C42.6945 3.49468 41.8487 3.61436 41.1147 3.85372C40.3806 4.09309 39.7583 4.45213 39.2477 4.93085C38.753 5.40957 38.378 6.00798 38.1227 6.72606C37.8673 7.42819 37.7397 8.25 37.7397 9.19149C37.7397 10.0213 37.8833 10.7713 38.1705 11.4415C38.4578 12.0957 38.8567 12.6543 39.3673 13.117C39.8939 13.5798 40.5083 13.9309 41.2104 14.1702C41.9285 14.4096 42.7184 14.5293 43.5801 14.5293C44.0748 14.5293 44.5296 14.4973 44.9445 14.4335C45.3594 14.3537 45.7104 14.234 45.9977 14.0745V11.9441H42.9578V8.59309H49.5163V16.0372Z" fill="white"/>
<path d="M52.3819 9.02394C52.3819 7.81117 52.6133 6.66223 53.076 5.57713C53.5388 4.49202 54.1771 3.53457 54.9909 2.70479C55.8207 1.85904 56.7782 1.19681 57.8633 0.718084C58.9484 0.239361 60.1133 0 61.3579 0C62.5867 0 63.7436 0.239361 64.8287 0.718084C65.9138 1.19681 66.8712 1.85904 67.701 2.70479C68.5468 3.53457 69.201 4.49202 69.6638 5.57713C70.1425 6.66223 70.3819 7.81117 70.3819 9.02394C70.3819 10.2686 70.1425 11.4335 69.6638 12.5186C69.201 13.6037 68.5468 14.5612 67.701 15.391C66.8712 16.2048 65.9138 16.8431 64.8287 17.3059C63.7436 17.7686 62.5867 18 61.3579 18C60.1133 18 58.9484 17.7686 57.8633 17.3059C56.7782 16.8431 55.8207 16.2048 54.9909 15.391C54.1771 14.5612 53.5388 13.6037 53.076 12.5186C52.6133 11.4335 52.3819 10.2686 52.3819 9.02394ZM55.9723 9.02394C55.9723 9.80585 56.1079 10.5399 56.3792 11.2261C56.6665 11.8963 57.0574 12.4947 57.5521 13.0213C58.0627 13.5319 58.6452 13.9309 59.2994 14.2181C59.9696 14.5053 60.6957 14.6489 61.4776 14.6489C62.2276 14.6489 62.9218 14.5053 63.5601 14.2181C64.2143 13.9309 64.7808 13.5319 65.2595 13.0213C65.7383 12.4947 66.1133 11.8963 66.3845 11.2261C66.6558 10.5399 66.7915 9.80585 66.7915 9.02394C66.7915 8.22606 66.6478 7.48404 66.3606 6.79787C66.0893 6.1117 65.7063 5.5133 65.2117 5.00266C64.7329 4.47606 64.1665 4.06915 63.5122 3.78191C62.8579 3.49468 62.1478 3.35106 61.3819 3.35106C60.6159 3.35106 59.9058 3.49468 59.2516 3.78191C58.5973 4.06915 58.0228 4.47606 57.5282 5.00266C57.0335 5.5133 56.6505 6.1117 56.3792 6.79787C56.1079 7.48404 55.9723 8.22606 55.9723 9.02394Z" fill="white"/>
</svg>
